<svg width="23" height="22" viewBox="0 0 23 22" fill="none" xmlns="http://www.w3.org/2000/svg">
<path d="M19.2502 13.3145C20.7688 13.3145 22 12.2357 22 10.9049C22 9.57407 20.7688 8.49524 19.2502 8.49524C17.7315 8.49524 16.5003 9.57407 16.5003 10.9049C16.5003 12.2357 17.7315 13.3145 19.2502 13.3145Z" stroke="white" stroke-miterlimit="10"/>
<path d="M19.0186 13.695C20.5373 13.695 21.7684 12.6161 21.7684 11.2853C21.7684 9.95453 20.5373 8.8757 19.0186 8.8757C17.4999 8.8757 16.2688 9.95453 16.2688 11.2853C16.2688 12.6161 17.4999 13.695 19.0186 13.695Z" stroke="white" stroke-miterlimit="10"/>
<path d="M18.5121 13.7711C20.0308 13.7711 21.2619 12.6923 21.2619 11.3615C21.2619 10.0306 20.0308 8.95181 18.5121 8.95181C16.9934 8.95181 15.7622 10.0306 15.7622 11.3615C15.7622 12.6923 16.9934 13.7711 18.5121 13.7711Z" stroke="white" stroke-miterlimit="10"/>
<path d="M17.991 13.7711C19.5097 13.7711 20.7408 12.6923 20.7408 11.3615C20.7408 10.0306 19.5097 8.95181 17.991 8.95181C16.4723 8.95181 15.2412 10.0306 15.2412 11.3615C15.2412 12.6923 16.4723 13.7711 17.991 13.7711Z" stroke="white" stroke-miterlimit="10"/>
<path d="M17.47 13.7711C18.9887 13.7711 20.2198 12.6923 20.2198 11.3615C20.2198 10.0306 18.9887 8.95181 17.47 8.95181C15.9513 8.95181 14.7202 10.0306 14.7202 11.3615C14.7202 12.6923 15.9513 13.7711 17.47 13.7711Z" stroke="white" stroke-miterlimit="10"/>
<path d="M16.949 13.7711C18.4677 13.7711 19.6988 12.6923 19.6988 11.3615C19.6988 10.0306 18.4677 8.95181 16.949 8.95181C15.4303 8.95181 14.1992 10.0306 14.1992 11.3615C14.1992 12.6923 15.4303 13.7711 16.949 13.7711Z" stroke="white" stroke-miterlimit="10"/>
<path d="M16.428 13.7711C17.9467 13.7711 19.1778 12.6923 19.1778 11.3615C19.1778 10.0306 17.9467 8.95181 16.428 8.95181C14.9093 8.95181 13.6782 10.0306 13.6782 11.3615C13.6782 12.6923 14.9093 13.7711 16.428 13.7711Z" stroke="white" stroke-miterlimit="10"/>
<path d="M15.907 13.7711C17.4256 13.7711 18.6568 12.6923 18.6568 11.3615C18.6568 10.0306 17.4256 8.95181 15.907 8.95181C14.3883 8.95181 13.1571 10.0306 13.1571 11.3615C13.1571 12.6923 14.3883 13.7711 15.907 13.7711Z" stroke="white" stroke-miterlimit="10"/>
<path d="M15.3859 13.7711C16.9046 13.7711 18.1357 12.6923 18.1357 11.3615C18.1357 10.0306 16.9046 8.95181 15.3859 8.95181C13.8672 8.95181 12.6361 10.0306 12.6361 11.3615C12.6361 12.6923 13.8672 13.7711 15.3859 13.7711Z" stroke="white" stroke-miterlimit="10"/>
<path d="M14.8649 13.7711C16.3836 13.7711 17.6147 12.6923 17.6147 11.3615C17.6147 10.0306 16.3836 8.95181 14.8649 8.95181C13.3462 8.95181 12.1151 10.0306 12.1151 11.3615C12.1151 12.6923 13.3462 13.7711 14.8649 13.7711Z" stroke="white" stroke-miterlimit="10"/>
<path d="M14.3439 13.7711C15.8626 13.7711 17.0937 12.6923 17.0937 11.3615C17.0937 10.0306 15.8626 8.95181 14.3439 8.95181C12.8252 8.95181 11.5941 10.0306 11.5941 11.3615C11.5941 12.6923 12.8252 13.7711 14.3439 13.7711Z" stroke="white" stroke-miterlimit="10"/>
<path d="M13.8229 13.7711C15.3416 13.7711 16.5727 12.6923 16.5727 11.3615C16.5727 10.0306 15.3416 8.95181 13.8229 8.95181C12.3042 8.95181 11.0731 10.0306 11.0731 11.3615C11.0731 12.6923 12.3042 13.7711 13.8229 13.7711Z" stroke="white" stroke-miterlimit="10"/>
<path d="M13.3019 13.7711C14.8205 13.7711 16.0517 12.6923 16.0517 11.3615C16.0517 10.0306 14.8205 8.95181 13.3019 8.95181C11.7832 8.95181 10.552 10.0306 10.552 11.3615C10.552 12.6923 11.7832 13.7711 13.3019 13.7711Z" stroke="white" stroke-miterlimit="10"/>
<path d="M12.7808 13.7711C14.2995 13.7711 15.5307 12.6923 15.5307 11.3615C15.5307 10.0306 14.2995 8.95181 12.7808 8.95181C11.2621 8.95181 10.031 10.0306 10.031 11.3615C10.031 12.6923 11.2621 13.7711 12.7808 13.7711Z" stroke="white" stroke-miterlimit="10"/>
<path d="M12.2598 13.7711C13.7785 13.7711 15.0097 12.6923 15.0097 11.3615C15.0097 10.0306 13.7785 8.95181 12.2598 8.95181C10.7411 8.95181 9.51001 10.0306 9.51001 11.3615C9.51001 12.6923 10.7411 13.7711 12.2598 13.7711Z" stroke="white" stroke-miterlimit="10"/>
<path d="M11.7388 13.7711C13.2575 13.7711 14.4886 12.6923 14.4886 11.3615C14.4886 10.0306 13.2575 8.95181 11.7388 8.95181C10.2201 8.95181 8.98898 10.0306 8.98898 11.3615C8.98898 12.6923 10.2201 13.7711 11.7388 13.7711Z" stroke="white" stroke-miterlimit="10"/>
<path d="M11.2178 13.7711C12.7365 13.7711 13.9676 12.6923 13.9676 11.3615C13.9676 10.0306 12.7365 8.95181 11.2178 8.95181C9.6991 8.95181 8.46796 10.0306 8.46796 11.3615C8.46796 12.6923 9.6991 13.7711 11.2178 13.7711Z" stroke="white" stroke-miterlimit="10"/>
<path d="M10.6968 13.7711C12.2154 13.7711 13.4466 12.6923 13.4466 11.3615C13.4466 10.0306 12.2154 8.95181 10.6968 8.95181C9.17807 8.95181 7.94693 10.0306 7.94693 11.3615C7.94693 12.6923 9.17807 13.7711 10.6968 13.7711Z" stroke="white" stroke-miterlimit="10"/>
<path d="M10.1757 13.7711C11.6944 13.7711 12.9256 12.6923 12.9256 11.3615C12.9256 10.0306 11.6944 8.95181 10.1757 8.95181C8.65704 8.95181 7.4259 10.0306 7.4259 11.3615C7.4259 12.6923 8.65704 13.7711 10.1757 13.7711Z" stroke="white" stroke-miterlimit="10"/>
<path d="M9.65473 13.7711C11.1734 13.7711 12.4046 12.6923 12.4046 11.3615C12.4046 10.0306 11.1734 8.95181 9.65473 8.95181C8.13605 8.95181 6.90491 10.0306 6.90491 11.3615C6.90491 12.6923 8.13605 13.7711 9.65473 13.7711Z" stroke="white" stroke-miterlimit="10"/>
<path d="M9.13374 13.7711C10.6524 13.7711 11.8836 12.6923 11.8836 11.3615C11.8836 10.0306 10.6524 8.95181 9.13374 8.95181C7.61505 8.95181 6.38391 10.0306 6.38391 11.3615C6.38391 12.6923 7.61505 13.7711 9.13374 13.7711Z" stroke="white" stroke-miterlimit="10"/>
<path d="M8.61268 13.7711C10.1314 13.7711 11.3625 12.6923 11.3625 11.3615C11.3625 10.0306 10.1314 8.95181 8.61268 8.95181C7.09399 8.95181 5.86285 10.0306 5.86285 11.3615C5.86285 12.6923 7.09399 13.7711 8.61268 13.7711Z" stroke="white" stroke-miterlimit="10"/>
<path d="M8.09165 13.7711C9.61034 13.7711 10.8415 12.6923 10.8415 11.3615C10.8415 10.0306 9.61034 8.95181 8.09165 8.95181C6.57297 8.95181 5.34183 10.0306 5.34183 11.3615C5.34183 12.6923 6.57297 13.7711 8.09165 13.7711Z" stroke="white" stroke-miterlimit="10"/>
<path d="M7.57063 13.7711C9.08931 13.7711 10.3205 12.6923 10.3205 11.3615C10.3205 10.0306 9.08931 8.95181 7.57063 8.95181C6.05194 8.95181 4.8208 10.0306 4.8208 11.3615C4.8208 12.6923 6.05194 13.7711 7.57063 13.7711Z" stroke="white" stroke-miterlimit="10"/>
<path d="M7.04963 13.7711C8.56832 13.7711 9.79946 12.6923 9.79946 11.3615C9.79946 10.0306 8.56832 8.95181 7.04963 8.95181C5.53094 8.95181 4.2998 10.0306 4.2998 11.3615C4.2998 12.6923 5.53094 13.7711 7.04963 13.7711Z" stroke="white" stroke-miterlimit="10"/>
<path d="M6.52863 13.7457C8.04732 13.7457 9.27846 12.6669 9.27846 11.3361C9.27846 10.0053 8.04732 8.92645 6.52863 8.92645C5.00995 8.92645 3.77881 10.0053 3.77881 11.3361C3.77881 12.6669 5.00995 13.7457 6.52863 13.7457Z" stroke="white" stroke-miterlimit="10"/>
<path d="M6.18125 13.4413C7.69994 13.4413 8.93108 12.3625 8.93108 11.0317C8.93108 9.7009 7.69994 8.62207 6.18125 8.62207C4.66257 8.62207 3.43143 9.7009 3.43143 11.0317C3.43143 12.3625 4.66257 13.4413 6.18125 13.4413Z" stroke="white" stroke-miterlimit="10"/>
<path d="M6.28257 13.0101C7.80126 13.0101 9.0324 11.9313 9.0324 10.6005C9.0324 9.26969 7.80126 8.19086 6.28257 8.19086C4.76388 8.19086 3.53275 9.26969 3.53275 10.6005C3.53275 11.9313 4.76388 13.0101 6.28257 13.0101Z" stroke="white" stroke-miterlimit="10"/>
<path d="M6.74571 12.8579C8.26439 12.8579 9.49553 11.7791 9.49553 10.4483C9.49553 9.1175 8.26439 8.03867 6.74571 8.03867C5.22702 8.03867 3.99588 9.1175 3.99588 10.4483C3.99588 11.7791 5.22702 12.8579 6.74571 12.8579Z" stroke="white" stroke-miterlimit="10"/>
<path d="M7.2667 12.8579C8.78539 12.8579 10.0165 11.7791 10.0165 10.4483C10.0165 9.1175 8.78539 8.03867 7.2667 8.03867C5.74802 8.03867 4.51688 9.1175 4.51688 10.4483C4.51688 11.7791 5.74802 12.8579 7.2667 12.8579Z" stroke="white" stroke-miterlimit="10"/>
<path d="M7.78773 12.8579C9.30642 12.8579 10.5376 11.7791 10.5376 10.4483C10.5376 9.1175 9.30642 8.03867 7.78773 8.03867C6.26904 8.03867 5.0379 9.1175 5.0379 10.4483C5.0379 11.7791 6.26904 12.8579 7.78773 12.8579Z" stroke="white" stroke-miterlimit="10"/>
<path d="M8.30876 12.8579C9.82744 12.8579 11.0586 11.7791 11.0586 10.4483C11.0586 9.1175 9.82744 8.03867 8.30876 8.03867C6.79007 8.03867 5.55893 9.1175 5.55893 10.4483C5.55893 11.7791 6.79007 12.8579 8.30876 12.8579Z" stroke="white" stroke-miterlimit="10"/>
<path d="M8.82978 12.8579C10.3485 12.8579 11.5796 11.7791 11.5796 10.4483C11.5796 9.1175 10.3485 8.03867 8.82978 8.03867C7.31109 8.03867 6.07996 9.1175 6.07996 10.4483C6.07996 11.7791 7.31109 12.8579 8.82978 12.8579Z" stroke="white" stroke-miterlimit="10"/>
<path d="M9.35081 12.8579C10.8695 12.8579 12.1006 11.7791 12.1006 10.4483C12.1006 9.1175 10.8695 8.03867 9.35081 8.03867C7.83212 8.03867 6.60098 9.1175 6.60098 10.4483C6.60098 11.7791 7.83212 12.8579 9.35081 12.8579Z" stroke="white" stroke-miterlimit="10"/>
<path d="M9.8718 12.8579C11.3905 12.8579 12.6216 11.7791 12.6216 10.4483C12.6216 9.1175 11.3905 8.03867 9.8718 8.03867C8.35312 8.03867 7.12198 9.1175 7.12198 10.4483C7.12198 11.7791 8.35312 12.8579 9.8718 12.8579Z" stroke="white" stroke-miterlimit="10"/>
<path d="M10.3928 12.8579C11.9115 12.8579 13.1426 11.7791 13.1426 10.4483C13.1426 9.1175 11.9115 8.03867 10.3928 8.03867C8.87411 8.03867 7.64297 9.1175 7.64297 10.4483C7.64297 11.7791 8.87411 12.8579 10.3928 12.8579Z" stroke="white" stroke-miterlimit="10"/>
<path d="M10.9139 12.8579C12.4325 12.8579 13.6637 11.7791 13.6637 10.4483C13.6637 9.1175 12.4325 8.03867 10.9139 8.03867C9.39517 8.03867 8.16403 9.1175 8.16403 10.4483C8.16403 11.7791 9.39517 12.8579 10.9139 12.8579Z" stroke="white" stroke-miterlimit="10"/>
<path d="M11.4349 12.8579C12.9536 12.8579 14.1847 11.7791 14.1847 10.4483C14.1847 9.1175 12.9536 8.03867 11.4349 8.03867C9.9162 8.03867 8.68506 9.1175 8.68506 10.4483C8.68506 11.7791 9.9162 12.8579 11.4349 12.8579Z" stroke="white" stroke-miterlimit="10"/>
<path d="M11.9559 12.8579C13.4746 12.8579 14.7057 11.7791 14.7057 10.4483C14.7057 9.1175 13.4746 8.03867 11.9559 8.03867C10.4372 8.03867 9.20609 9.1175 9.20609 10.4483C9.20609 11.7791 10.4372 12.8579 11.9559 12.8579Z" stroke="white" stroke-miterlimit="10"/>
<path d="M12.4769 12.8579C13.9956 12.8579 15.2267 11.7791 15.2267 10.4483C15.2267 9.1175 13.9956 8.03867 12.4769 8.03867C10.9582 8.03867 9.72708 9.1175 9.72708 10.4483C9.72708 11.7791 10.9582 12.8579 12.4769 12.8579Z" stroke="white" stroke-miterlimit="10"/>
<path d="M12.9979 12.8579C14.5166 12.8579 15.7477 11.7791 15.7477 10.4483C15.7477 9.1175 14.5166 8.03867 12.9979 8.03867C11.4792 8.03867 10.2481 9.1175 10.2481 10.4483C10.2481 11.7791 11.4792 12.8579 12.9979 12.8579Z" stroke="white" stroke-miterlimit="10"/>
<path d="M13.5189 12.8579C15.0376 12.8579 16.2688 11.7791 16.2688 10.4483C16.2688 9.1175 15.0376 8.03867 13.5189 8.03867C12.0002 8.03867 10.7691 9.1175 10.7691 10.4483C10.7691 11.7791 12.0002 12.8579 13.5189 12.8579Z" stroke="white" stroke-miterlimit="10"/>
<path d="M14.04 12.8579C15.5587 12.8579 16.7898 11.7791 16.7898 10.4483C16.7898 9.1175 15.5587 8.03867 14.04 8.03867C12.5213 8.03867 11.2902 9.1175 11.2902 10.4483C11.2902 11.7791 12.5213 12.8579 14.04 12.8579Z" stroke="white" stroke-miterlimit="10"/>
<path d="M14.561 12.8579C16.0797 12.8579 17.3108 11.7791 17.3108 10.4483C17.3108 9.1175 16.0797 8.03867 14.561 8.03867C13.0423 8.03867 11.8112 9.1175 11.8112 10.4483C11.8112 11.7791 13.0423 12.8579 14.561 12.8579Z" stroke="white" stroke-miterlimit="10"/>
<path d="M15.082 12.8579C16.6007 12.8579 17.8318 11.7791 17.8318 10.4483C17.8318 9.1175 16.6007 8.03867 15.082 8.03867C13.5633 8.03867 12.3322 9.1175 12.3322 10.4483C12.3322 11.7791 13.5633 12.8579 15.082 12.8579Z" stroke="white" stroke-miterlimit="10"/>
<path d="M15.603 12.8579C17.1217 12.8579 18.3528 11.7791 18.3528 10.4483C18.3528 9.1175 17.1217 8.03867 15.603 8.03867C14.0843 8.03867 12.8532 9.1175 12.8532 10.4483C12.8532 11.7791 14.0843 12.8579 15.603 12.8579Z" stroke="white" stroke-miterlimit="10"/>
<path d="M16.124 12.8579C17.6427 12.8579 18.8739 11.7791 18.8739 10.4483C18.8739 9.1175 17.6427 8.03867 16.124 8.03867C14.6053 8.03867 13.3742 9.1175 13.3742 10.4483C13.3742 11.7791 14.6053 12.8579 16.124 12.8579Z" stroke="white" stroke-miterlimit="10"/>
<path d="M16.6451 12.8579C18.1638 12.8579 19.3949 11.7791 19.3949 10.4483C19.3949 9.1175 18.1638 8.03867 16.6451 8.03867C15.1264 8.03867 13.8953 9.1175 13.8953 10.4483C13.8953 11.7791 15.1264 12.8579 16.6451 12.8579Z" stroke="white" stroke-miterlimit="10"/>
<path d="M17.1661 12.8579C18.6848 12.8579 19.9159 11.7791 19.9159 10.4483C19.9159 9.1175 18.6848 8.03867 17.1661 8.03867C15.6474 8.03867 14.4163 9.1175 14.4163 10.4483C14.4163 11.7791 15.6474 12.8579 17.1661 12.8579Z" stroke="white" stroke-miterlimit="10"/>
<path d="M17.6871 12.8579C19.2058 12.8579 20.4369 11.7791 20.4369 10.4483C20.4369 9.1175 19.2058 8.03867 17.6871 8.03867C16.1684 8.03867 14.9373 9.1175 14.9373 10.4483C14.9373 11.7791 16.1684 12.8579 17.6871 12.8579Z" stroke="white" stroke-miterlimit="10"/>
<path d="M18.2081 12.8579C19.7268 12.8579 20.9579 11.7791 20.9579 10.4483C20.9579 9.1175 19.7268 8.03867 18.2081 8.03867C16.6894 8.03867 15.4583 9.1175 15.4583 10.4483C15.4583 11.7791 16.6894 12.8579 18.2081 12.8579Z" stroke="white" stroke-miterlimit="10"/>
<path d="M18.7291 12.8579C20.2478 12.8579 21.479 11.7791 21.479 10.4483C21.479 9.1175 20.2478 8.03867 18.7291 8.03867C17.2104 8.03867 15.9793 9.1175 15.9793 10.4483C15.9793 11.7791 17.2104 12.8579 18.7291 12.8579Z" stroke="white" stroke-miterlimit="10"/>
<path d="M19.2502 6.27585C20.7688 6.27585 22 5.19702 22 3.86621C22 2.53541 20.7688 1.45657 19.2502 1.45657C17.7315 1.45657 16.5003 2.53541 16.5003 3.86621C16.5003 5.19702 17.7315 6.27585 19.2502 6.27585Z" stroke="white" stroke-miterlimit="10"/>
<path d="M18.6857 6.73239C20.2044 6.73239 21.4356 5.65356 21.4356 4.32275C21.4356 2.99195 20.2044 1.91312 18.6857 1.91312C17.1671 1.91312 15.9359 2.99195 15.9359 4.32275C15.9359 5.65356 17.1671 6.73239 18.6857 6.73239Z" stroke="white" stroke-miterlimit="10"/>
<path d="M17.8174 6.73239C19.3361 6.73239 20.5672 5.65356 20.5672 4.32275C20.5672 2.99195 19.3361 1.91312 17.8174 1.91312C16.2987 1.91312 15.0676 2.99195 15.0676 4.32275C15.0676 5.65356 16.2987 6.73239 17.8174 6.73239Z" stroke="white" stroke-miterlimit="10"/>
<path d="M16.949 6.73239C18.4677 6.73239 19.6988 5.65356 19.6988 4.32275C19.6988 2.99195 18.4677 1.91312 16.949 1.91312C15.4303 1.91312 14.1992 2.99195 14.1992 4.32275C14.1992 5.65356 15.4303 6.73239 16.949 6.73239Z" stroke="white" stroke-miterlimit="10"/>
<path d="M16.0951 6.73239C17.6138 6.73239 18.8449 5.65356 18.8449 4.32275C18.8449 2.99195 17.6138 1.91312 16.0951 1.91312C14.5764 1.91312 13.3453 2.99195 13.3453 4.32275C13.3453 5.65356 14.5764 6.73239 16.0951 6.73239Z" stroke="white" stroke-miterlimit="10"/>
<path d="M15.2267 6.73239C16.7454 6.73239 17.9766 5.65356 17.9766 4.32275C17.9766 2.99195 16.7454 1.91312 15.2267 1.91312C13.708 1.91312 12.4769 2.99195 12.4769 4.32275C12.4769 5.65356 13.708 6.73239 15.2267 6.73239Z" stroke="white" stroke-miterlimit="10"/>
<path d="M14.3584 6.73239C15.8771 6.73239 17.1082 5.65356 17.1082 4.32275C17.1082 2.99195 15.8771 1.91312 14.3584 1.91312C12.8397 1.91312 11.6086 2.99195 11.6086 4.32275C11.6086 5.65356 12.8397 6.73239 14.3584 6.73239Z" stroke="white" stroke-miterlimit="10"/>
<path d="M13.49 6.73239C15.0087 6.73239 16.2398 5.65356 16.2398 4.32275C16.2398 2.99195 15.0087 1.91312 13.49 1.91312C11.9713 1.91312 10.7402 2.99195 10.7402 4.32275C10.7402 5.65356 11.9713 6.73239 13.49 6.73239Z" stroke="white" stroke-miterlimit="10"/>
<path d="M12.6217 6.73239C14.1403 6.73239 15.3715 5.65356 15.3715 4.32275C15.3715 2.99195 14.1403 1.91312 12.6217 1.91312C11.103 1.91312 9.87183 2.99195 9.87183 4.32275C9.87183 5.65356 11.103 6.73239 12.6217 6.73239Z" stroke="white" stroke-miterlimit="10"/>
<path d="M11.7677 6.73239C13.2864 6.73239 14.5176 5.65356 14.5176 4.32275C14.5176 2.99195 13.2864 1.91312 11.7677 1.91312C10.2491 1.91312 9.01791 2.99195 9.01791 4.32275C9.01791 5.65356 10.2491 6.73239 11.7677 6.73239Z" stroke="white" stroke-miterlimit="10"/>
<path d="M10.8994 6.73239C12.418 6.73239 13.6492 5.65356 13.6492 4.32275C13.6492 2.99195 12.418 1.91312 10.8994 1.91312C9.38068 1.91312 8.14954 2.99195 8.14954 4.32275C8.14954 5.65356 9.38068 6.73239 10.8994 6.73239Z" stroke="white" stroke-miterlimit="10"/>
<path d="M10.031 6.73239C11.5497 6.73239 12.7808 5.65356 12.7808 4.32275C12.7808 2.99195 11.5497 1.91312 10.031 1.91312C8.5123 1.91312 7.28116 2.99195 7.28116 4.32275C7.28116 5.65356 8.5123 6.73239 10.031 6.73239Z" stroke="white" stroke-miterlimit="10"/>
<path d="M9.16264 6.73239C10.6813 6.73239 11.9125 5.65356 11.9125 4.32275C11.9125 2.99195 10.6813 1.91312 9.16264 1.91312C7.64395 1.91312 6.41281 2.99195 6.41281 4.32275C6.41281 5.65356 7.64395 6.73239 9.16264 6.73239Z" stroke="white" stroke-miterlimit="10"/>
<path d="M8.30876 6.73239C9.82744 6.73239 11.0586 5.65356 11.0586 4.32275C11.0586 2.99195 9.82744 1.91312 8.30876 1.91312C6.79007 1.91312 5.55893 2.99195 5.55893 4.32275C5.55893 5.65356 6.79007 6.73239 8.30876 6.73239Z" stroke="white" stroke-miterlimit="10"/>
<path d="M7.42588 6.73239C8.94457 6.73239 10.1757 5.65356 10.1757 4.32275C10.1757 2.99195 8.94457 1.91312 7.42588 1.91312C5.90719 1.91312 4.67606 2.99195 4.67606 4.32275C4.67606 5.65356 5.90719 6.73239 7.42588 6.73239Z" stroke="white" stroke-miterlimit="10"/>
<path d="M6.57203 6.87192C8.09072 6.87192 9.32186 5.79309 9.32186 4.46228C9.32186 3.13147 8.09072 2.05264 6.57203 2.05264C5.05334 2.05264 3.8222 3.13147 3.8222 4.46228C3.8222 5.79309 5.05334 6.87192 6.57203 6.87192Z" stroke="white" stroke-miterlimit="10"/>
<path d="M5.8484 7.22702C7.36708 7.22702 8.59822 6.14819 8.59822 4.81738C8.59822 3.48658 7.36708 2.40775 5.8484 2.40775C4.32971 2.40775 3.09857 3.48658 3.09857 4.81738C3.09857 6.14819 4.32971 7.22702 5.8484 7.22702Z" stroke="white" stroke-miterlimit="10"/>
<path d="M5.28394 7.75968C6.80263 7.75968 8.03377 6.68084 8.03377 5.35004C8.03377 4.01923 6.80263 2.9404 5.28394 2.9404C3.76526 2.9404 2.53412 4.01923 2.53412 5.35004C2.53412 6.68084 3.76526 7.75968 5.28394 7.75968Z" stroke="white" stroke-miterlimit="10"/>
<path d="M4.92213 8.43183C6.44081 8.43183 7.67195 7.35299 7.67195 6.02219C7.67195 4.69138 6.44081 3.61255 4.92213 3.61255C3.40344 3.61255 2.1723 4.69138 2.1723 6.02219C2.1723 7.35299 3.40344 8.43183 4.92213 8.43183Z" stroke="white" stroke-miterlimit="10"/>
<path d="M4.79188 9.23081C6.31057 9.23081 7.54171 8.15197 7.54171 6.82117C7.54171 5.49036 6.31057 4.41153 4.79188 4.41153C3.27319 4.41153 2.04205 5.49036 2.04205 6.82117C2.04205 8.15197 3.27319 9.23081 4.79188 9.23081Z" stroke="white" stroke-miterlimit="10"/>
<path d="M4.79188 9.99176C6.31057 9.99176 7.54171 8.91293 7.54171 7.58212C7.54171 6.25132 6.31057 5.17249 4.79188 5.17249C3.27319 5.17249 2.04205 6.25132 2.04205 7.58212C2.04205 8.91293 3.27319 9.99176 4.79188 9.99176Z" stroke="white" stroke-miterlimit="10"/>
<path d="M4.79188 10.7527C6.31057 10.7527 7.54171 9.67386 7.54171 8.34305C7.54171 7.01224 6.31057 5.93341 4.79188 5.93341C3.27319 5.93341 2.04205 7.01224 2.04205 8.34305C2.04205 9.67386 3.27319 10.7527 4.79188 10.7527Z" stroke="white" stroke-miterlimit="10"/>
<path d="M4.79188 11.5009C6.31057 11.5009 7.54171 10.4221 7.54171 9.09131C7.54171 7.7605 6.31057 6.68167 4.79188 6.68167C3.27319 6.68167 2.04205 7.7605 2.04205 9.09131C2.04205 10.4221 3.27319 11.5009 4.79188 11.5009Z" stroke="white" stroke-miterlimit="10"/>
<path d="M4.79188 12.2619C6.31057 12.2619 7.54171 11.183 7.54171 9.85224C7.54171 8.52143 6.31057 7.4426 4.79188 7.4426C3.27319 7.4426 2.04205 8.52143 2.04205 9.85224C2.04205 11.183 3.27319 12.2619 4.79188 12.2619Z" stroke="white" stroke-miterlimit="10"/>
<path d="M4.79188 13.0228C6.31057 13.0228 7.54171 11.944 7.54171 10.6132C7.54171 9.28238 6.31057 8.20355 4.79188 8.20355C3.27319 8.20355 2.04205 9.28238 2.04205 10.6132C2.04205 11.944 3.27319 13.0228 4.79188 13.0228Z" stroke="white" stroke-miterlimit="10"/>
<path d="M4.79188 13.7838C6.31057 13.7838 7.54171 12.7049 7.54171 11.3741C7.54171 10.0433 6.31057 8.96448 4.79188 8.96448C3.27319 8.96448 2.04205 10.0433 2.04205 11.3741C2.04205 12.7049 3.27319 13.7838 4.79188 13.7838Z" stroke="white" stroke-miterlimit="10"/>
<path d="M4.79188 14.532C6.31057 14.532 7.54171 13.4532 7.54171 12.1224C7.54171 10.7916 6.31057 9.71274 4.79188 9.71274C3.27319 9.71274 2.04205 10.7916 2.04205 12.1224C2.04205 13.4532 3.27319 14.532 4.79188 14.532Z" stroke="white" stroke-miterlimit="10"/>
<path d="M4.79188 15.293C6.31057 15.293 7.54171 14.2141 7.54171 12.8833C7.54171 11.5525 6.31057 10.4737 4.79188 10.4737C3.27319 10.4737 2.04205 11.5525 2.04205 12.8833C2.04205 14.2141 3.27319 15.293 4.79188 15.293Z" stroke="white" stroke-miterlimit="10"/>
<path d="M4.79188 16.0539C6.31057 16.0539 7.54171 14.9751 7.54171 13.6443C7.54171 12.3135 6.31057 11.2346 4.79188 11.2346C3.27319 11.2346 2.04205 12.3135 2.04205 13.6443C2.04205 14.9751 3.27319 16.0539 4.79188 16.0539Z" stroke="white" stroke-miterlimit="10"/>
<path d="M4.79188 16.8149C6.31057 16.8149 7.54171 15.736 7.54171 14.4052C7.54171 13.0744 6.31057 11.9956 4.79188 11.9956C3.27319 11.9956 2.04205 13.0744 2.04205 14.4052C2.04205 15.736 3.27319 16.8149 4.79188 16.8149Z" stroke="white" stroke-miterlimit="10"/>
<path d="M4.79188 17.5758C6.31057 17.5758 7.54171 16.4969 7.54171 15.1661C7.54171 13.8353 6.31057 12.7565 4.79188 12.7565C3.27319 12.7565 2.04205 13.8353 2.04205 15.1661C2.04205 16.4969 3.27319 17.5758 4.79188 17.5758Z" stroke="white" stroke-miterlimit="10"/>
<path d="M4.90766 18.4001C6.42635 18.4001 7.65749 17.3213 7.65749 15.9905C7.65749 14.6597 6.42635 13.5808 4.90766 13.5808C3.38898 13.5808 2.15784 14.6597 2.15784 15.9905C2.15784 17.3213 3.38898 18.4001 4.90766 18.4001Z" stroke="white" stroke-miterlimit="10"/>
<path d="M5.25498 19.0977C6.77367 19.0977 8.00481 18.0188 8.00481 16.688C8.00481 15.3572 6.77367 14.2784 5.25498 14.2784C3.7363 14.2784 2.50516 15.3572 2.50516 16.688C2.50516 18.0188 3.7363 19.0977 5.25498 19.0977Z" stroke="white" stroke-miterlimit="10"/>
<path d="M5.79051 19.6176C7.30919 19.6176 8.54033 18.5388 8.54033 17.208C8.54033 15.8772 7.30919 14.7983 5.79051 14.7983C4.27182 14.7983 3.04068 15.8772 3.04068 17.208C3.04068 18.5388 4.27182 19.6176 5.79051 19.6176Z" stroke="white" stroke-miterlimit="10"/>
<path d="M6.49964 19.9601C8.01833 19.9601 9.24947 18.8812 9.24947 17.5504C9.24947 16.2196 8.01833 15.1408 6.49964 15.1408C4.98096 15.1408 3.74982 16.2196 3.74982 17.5504C3.74982 18.8812 4.98096 19.9601 6.49964 19.9601Z" stroke="white" stroke-miterlimit="10"/>
<path d="M7.36802 20.0869C8.88671 20.0869 10.1178 19.0081 10.1178 17.6772C10.1178 16.3464 8.88671 15.2676 7.36802 15.2676C5.84933 15.2676 4.61819 16.3464 4.61819 17.6772C4.61819 19.0081 5.84933 20.0869 7.36802 20.0869Z" stroke="white" stroke-miterlimit="10"/>
<path d="M8.2364 20.0869C9.75508 20.0869 10.9862 19.0081 10.9862 17.6772C10.9862 16.3464 9.75508 15.2676 8.2364 15.2676C6.71771 15.2676 5.48657 16.3464 5.48657 17.6772C5.48657 19.0081 6.71771 20.0869 8.2364 20.0869Z" stroke="white" stroke-miterlimit="10"/>
<path d="M9.10475 20.0869C10.6234 20.0869 11.8546 19.0081 11.8546 17.6772C11.8546 16.3464 10.6234 15.2676 9.10475 15.2676C7.58606 15.2676 6.35492 16.3464 6.35492 17.6772C6.35492 19.0081 7.58606 20.0869 9.10475 20.0869Z" stroke="white" stroke-miterlimit="10"/>
<path d="M9.95863 20.0869C11.4773 20.0869 12.7085 19.0081 12.7085 17.6772C12.7085 16.3464 11.4773 15.2676 9.95863 15.2676C8.43994 15.2676 7.2088 16.3464 7.2088 17.6772C7.2088 19.0081 8.43994 20.0869 9.95863 20.0869Z" stroke="white" stroke-miterlimit="10"/>
<path d="M10.827 20.0869C12.3457 20.0869 13.5768 19.0081 13.5768 17.6772C13.5768 16.3464 12.3457 15.2676 10.827 15.2676C9.30832 15.2676 8.07718 16.3464 8.07718 17.6772C8.07718 19.0081 9.30832 20.0869 10.827 20.0869Z" stroke="white" stroke-miterlimit="10"/>
<path d="M11.6954 20.0869C13.214 20.0869 14.4452 19.0081 14.4452 17.6772C14.4452 16.3464 13.214 15.2676 11.6954 15.2676C10.1767 15.2676 8.94553 16.3464 8.94553 17.6772C8.94553 19.0081 10.1767 20.0869 11.6954 20.0869Z" stroke="white" stroke-miterlimit="10"/>
<path d="M12.5637 20.0869C14.0824 20.0869 15.3136 19.0081 15.3136 17.6772C15.3136 16.3464 14.0824 15.2676 12.5637 15.2676C11.045 15.2676 9.8139 16.3464 9.8139 17.6772C9.8139 19.0081 11.045 20.0869 12.5637 20.0869Z" stroke="white" stroke-miterlimit="10"/>
<path d="M13.4321 20.0869C14.9508 20.0869 16.1819 19.0081 16.1819 17.6772C16.1819 16.3464 14.9508 15.2676 13.4321 15.2676C11.9134 15.2676 10.6823 16.3464 10.6823 17.6772C10.6823 19.0081 11.9134 20.0869 13.4321 20.0869Z" stroke="white" stroke-miterlimit="10"/>
<path d="M14.286 20.0869C15.8047 20.0869 17.0358 19.0081 17.0358 17.6772C17.0358 16.3464 15.8047 15.2676 14.286 15.2676C12.7673 15.2676 11.5362 16.3464 11.5362 17.6772C11.5362 19.0081 12.7673 20.0869 14.286 20.0869Z" stroke="white" stroke-miterlimit="10"/>
<path d="M15.1544 20.0869C16.6731 20.0869 17.9042 19.0081 17.9042 17.6772C17.9042 16.3464 16.6731 15.2676 15.1544 15.2676C13.6357 15.2676 12.4045 16.3464 12.4045 17.6772C12.4045 19.0081 13.6357 20.0869 15.1544 20.0869Z" stroke="white" stroke-miterlimit="10"/>
<path d="M16.0227 20.0869C17.5414 20.0869 18.7726 19.0081 18.7726 17.6772C18.7726 16.3464 17.5414 15.2676 16.0227 15.2676C14.5041 15.2676 13.2729 16.3464 13.2729 17.6772C13.2729 19.0081 14.5041 20.0869 16.0227 20.0869Z" stroke="white" stroke-miterlimit="10"/>
<path d="M16.8911 20.0869C18.4098 20.0869 19.6409 19.0081 19.6409 17.6772C19.6409 16.3464 18.4098 15.2676 16.8911 15.2676C15.3724 15.2676 14.1413 16.3464 14.1413 17.6772C14.1413 19.0081 15.3724 20.0869 16.8911 20.0869Z" stroke="white" stroke-miterlimit="10"/>
<path d="M17.7595 20.0869C19.2782 20.0869 20.5093 19.0081 20.5093 17.6772C20.5093 16.3464 19.2782 15.2676 17.7595 15.2676C16.2408 15.2676 15.0096 16.3464 15.0096 17.6772C15.0096 19.0081 16.2408 20.0869 17.7595 20.0869Z" stroke="white" stroke-miterlimit="10"/>
<path d="M18.6134 20.0869C20.1321 20.0869 21.3632 19.0081 21.3632 17.6772C21.3632 16.3464 20.1321 15.2676 18.6134 15.2676C17.0947 15.2676 15.8636 16.3464 15.8636 17.6772C15.8636 19.0081 17.0947 20.0869 18.6134 20.0869Z" stroke="white" stroke-miterlimit="10"/>
<path d="M19.2502 20.48C20.7688 20.48 22 19.4012 22 18.0704C22 16.7396 20.7688 15.6607 19.2502 15.6607C17.7315 15.6607 16.5003 16.7396 16.5003 18.0704C16.5003 19.4012 17.7315 20.48 19.2502 20.48Z" stroke="white" stroke-miterlimit="10"/>
<path d="M18.7581 21C20.2768 21 21.508 19.9212 21.508 18.5904C21.508 17.2596 20.2768 16.1807 18.7581 16.1807C17.2394 16.1807 16.0083 17.2596 16.0083 18.5904C16.0083 19.9212 17.2394 21 18.7581 21Z" stroke="white" stroke-miterlimit="10"/>
<path d="M17.8897 21C19.4084 21 20.6396 19.9212 20.6396 18.5904C20.6396 17.2596 19.4084 16.1807 17.8897 16.1807C16.3711 16.1807 15.1399 17.2596 15.1399 18.5904C15.1399 19.9212 16.3711 21 17.8897 21Z" stroke="white" stroke-miterlimit="10"/>
<path d="M17.0214 21C18.5401 21 19.7712 19.9212 19.7712 18.5904C19.7712 17.2596 18.5401 16.1807 17.0214 16.1807C15.5027 16.1807 14.2715 17.2596 14.2715 18.5904C14.2715 19.9212 15.5027 21 17.0214 21Z" stroke="white" stroke-miterlimit="10"/>
<path d="M16.153 21C17.6717 21 18.9029 19.9212 18.9029 18.5904C18.9029 17.2596 17.6717 16.1807 16.153 16.1807C14.6343 16.1807 13.4032 17.2596 13.4032 18.5904C13.4032 19.9212 14.6343 21 16.153 21Z" stroke="white" stroke-miterlimit="10"/>
<path d="M15.2991 21C16.8178 21 18.0489 19.9212 18.0489 18.5904C18.0489 17.2596 16.8178 16.1807 15.2991 16.1807C13.7804 16.1807 12.5493 17.2596 12.5493 18.5904C12.5493 19.9212 13.7804 21 15.2991 21Z" stroke="white" stroke-miterlimit="10"/>
<path d="M14.4307 21C15.9494 21 17.1806 19.9212 17.1806 18.5904C17.1806 17.2596 15.9494 16.1807 14.4307 16.1807C12.912 16.1807 11.6809 17.2596 11.6809 18.5904C11.6809 19.9212 12.912 21 14.4307 21Z" stroke="white" stroke-miterlimit="10"/>
<path d="M13.5624 21C15.081 21 16.3122 19.9212 16.3122 18.5904C16.3122 17.2596 15.081 16.1807 13.5624 16.1807C12.0437 16.1807 10.8125 17.2596 10.8125 18.5904C10.8125 19.9212 12.0437 21 13.5624 21Z" stroke="white" stroke-miterlimit="10"/>
<path d="M12.694 21C14.2127 21 15.4438 19.9212 15.4438 18.5904C15.4438 17.2596 14.2127 16.1807 12.694 16.1807C11.1753 16.1807 9.94418 17.2596 9.94418 18.5904C9.94418 19.9212 11.1753 21 12.694 21Z" stroke="white" stroke-miterlimit="10"/>
<path d="M11.8256 21C13.3443 21 14.5755 19.9212 14.5755 18.5904C14.5755 17.2596 13.3443 16.1807 11.8256 16.1807C10.3069 16.1807 9.07581 17.2596 9.07581 18.5904C9.07581 19.9212 10.3069 21 11.8256 21Z" stroke="white" stroke-miterlimit="10"/>
<path d="M10.9717 21C12.4904 21 13.7215 19.9212 13.7215 18.5904C13.7215 17.2596 12.4904 16.1807 10.9717 16.1807C9.45303 16.1807 8.22189 17.2596 8.22189 18.5904C8.22189 19.9212 9.45303 21 10.9717 21Z" stroke="white" stroke-miterlimit="10"/>
<path d="M10.1033 21C11.622 21 12.8532 19.9212 12.8532 18.5904C12.8532 17.2596 11.622 16.1807 10.1033 16.1807C8.58465 16.1807 7.35352 17.2596 7.35352 18.5904C7.35352 19.9212 8.58465 21 10.1033 21Z" stroke="white" stroke-miterlimit="10"/>
<path d="M9.23499 21C10.7537 21 11.9848 19.9212 11.9848 18.5904C11.9848 17.2596 10.7537 16.1807 9.23499 16.1807C7.71631 16.1807 6.48517 17.2596 6.48517 18.5904C6.48517 19.9212 7.71631 21 9.23499 21Z" stroke="white" stroke-miterlimit="10"/>
<path d="M8.36662 21C9.8853 21 11.1164 19.9212 11.1164 18.5904C11.1164 17.2596 9.8853 16.1807 8.36662 16.1807C6.84793 16.1807 5.61679 17.2596 5.61679 18.5904C5.61679 19.9212 6.84793 21 8.36662 21Z" stroke="white" stroke-miterlimit="10"/>
<path d="M7.49827 21C9.01696 21 10.2481 19.9212 10.2481 18.5904C10.2481 17.2596 9.01696 16.1807 7.49827 16.1807C5.97958 16.1807 4.74844 17.2596 4.74844 18.5904C4.74844 19.9212 5.97958 21 7.49827 21Z" stroke="white" stroke-miterlimit="10"/>
<path d="M6.61543 20.9366C8.13411 20.9366 9.36525 19.8578 9.36525 18.5269C9.36525 17.1961 8.13411 16.1173 6.61543 16.1173C5.09674 16.1173 3.8656 17.1961 3.8656 18.5269C3.8656 19.8578 5.09674 20.9366 6.61543 20.9366Z" stroke="white" stroke-miterlimit="10"/>
<path d="M5.805 20.7083C7.32369 20.7083 8.55483 19.6295 8.55483 18.2987C8.55483 16.9679 7.32369 15.889 5.805 15.889C4.28631 15.889 3.05518 16.9679 3.05518 18.2987C3.05518 19.6295 4.28631 20.7083 5.805 20.7083Z" stroke="white" stroke-miterlimit="10"/>
<path d="M5.11024 20.3279C6.62893 20.3279 7.86006 19.249 7.86006 17.9182C7.86006 16.5874 6.62893 15.5086 5.11024 15.5086C3.59155 15.5086 2.36041 16.5874 2.36041 17.9182C2.36041 19.249 3.59155 20.3279 5.11024 20.3279Z" stroke="white" stroke-miterlimit="10"/>
<path d="M4.54585 19.8206C6.06453 19.8206 7.29567 18.7417 7.29567 17.4109C7.29567 16.0801 6.06453 15.0013 4.54585 15.0013C3.02716 15.0013 1.79602 16.0801 1.79602 17.4109C1.79602 18.7417 3.02716 19.8206 4.54585 19.8206Z" stroke="white" stroke-miterlimit="10"/>
<path d="M4.12614 19.1864C5.64482 19.1864 6.87596 18.1076 6.87596 16.7768C6.87596 15.446 5.64482 14.3672 4.12614 14.3672C2.60745 14.3672 1.37631 15.446 1.37631 16.7768C1.37631 18.1076 2.60745 19.1864 4.12614 19.1864Z" stroke="white" stroke-miterlimit="10"/>
<path d="M3.85114 18.4508C5.36983 18.4508 6.60097 17.372 6.60097 16.0412C6.60097 14.7104 5.36983 13.6316 3.85114 13.6316C2.33246 13.6316 1.10132 14.7104 1.10132 16.0412C1.10132 17.372 2.33246 18.4508 3.85114 18.4508Z" stroke="white" stroke-miterlimit="10"/>
<path d="M3.74983 17.6265C5.26851 17.6265 6.49965 16.5477 6.49965 15.2169C6.49965 13.8861 5.26851 12.8072 3.74983 12.8072C2.23114 12.8072 1 13.8861 1 15.2169C1 16.5477 2.23114 17.6265 3.74983 17.6265Z" stroke="white" stroke-miterlimit="10"/>
<path d="M3.74983 16.8529C5.26851 16.8529 6.49965 15.774 6.49965 14.4432C6.49965 13.1124 5.26851 12.0336 3.74983 12.0336C2.23114 12.0336 1 13.1124 1 14.4432C1 15.774 2.23114 16.8529 3.74983 16.8529Z" stroke="white" stroke-miterlimit="10"/>
<path d="M3.74983 16.1046C5.26851 16.1046 6.49965 15.0258 6.49965 13.695C6.49965 12.3642 5.26851 11.2853 3.74983 11.2853C2.23114 11.2853 1 12.3642 1 13.695C1 15.0258 2.23114 16.1046 3.74983 16.1046Z" stroke="white" stroke-miterlimit="10"/>
<path d="M3.74983 15.3437C5.26851 15.3437 6.49965 14.2649 6.49965 12.9341C6.49965 11.6032 5.26851 10.5244 3.74983 10.5244C2.23114 10.5244 1 11.6032 1 12.9341C1 14.2649 2.23114 15.3437 3.74983 15.3437Z" stroke="white" stroke-miterlimit="10"/>
<path d="M3.74983 14.5827C5.26851 14.5827 6.49965 13.5039 6.49965 12.1731C6.49965 10.8423 5.26851 9.76346 3.74983 9.76346C2.23114 9.76346 1 10.8423 1 12.1731C1 13.5039 2.23114 14.5827 3.74983 14.5827Z" stroke="white" stroke-miterlimit="10"/>
<path d="M3.74983 13.8218C5.26851 13.8218 6.49965 12.743 6.49965 11.4122C6.49965 10.0814 5.26851 9.00253 3.74983 9.00253C2.23114 9.00253 1 10.0814 1 11.4122C1 12.743 2.23114 13.8218 3.74983 13.8218Z" stroke="white" stroke-miterlimit="10"/>
<path d="M3.74983 13.0609C5.26851 13.0609 6.49965 11.9821 6.49965 10.6512C6.49965 9.32044 5.26851 8.24161 3.74983 8.24161C2.23114 8.24161 1 9.32044 1 10.6512C1 11.9821 2.23114 13.0609 3.74983 13.0609Z" stroke="white" stroke-miterlimit="10"/>
<path d="M3.74983 12.3126C5.26851 12.3126 6.49965 11.2338 6.49965 9.90298C6.49965 8.57218 5.26851 7.49335 3.74983 7.49335C2.23114 7.49335 1 8.57218 1 9.90298C1 11.2338 2.23114 12.3126 3.74983 12.3126Z" stroke="white" stroke-miterlimit="10"/>
<path d="M3.74983 11.5517C5.26851 11.5517 6.49965 10.4728 6.49965 9.14203C6.49965 7.81122 5.26851 6.73239 3.74983 6.73239C2.23114 6.73239 1 7.81122 1 9.14203C1 10.4728 2.23114 11.5517 3.74983 11.5517Z" stroke="white" stroke-miterlimit="10"/>
<path d="M3.74983 10.7907C5.26851 10.7907 6.49965 9.71191 6.49965 8.3811C6.49965 7.0503 5.26851 5.97147 3.74983 5.97147C2.23114 5.97147 1 7.0503 1 8.3811C1 9.71191 2.23114 10.7907 3.74983 10.7907Z" stroke="white" stroke-miterlimit="10"/>
<path d="M3.74983 10.0298C5.26851 10.0298 6.49965 8.95099 6.49965 7.62018C6.49965 6.28937 5.26851 5.21054 3.74983 5.21054C2.23114 5.21054 1 6.28937 1 7.62018C1 8.95099 2.23114 10.0298 3.74983 10.0298Z" stroke="white" stroke-miterlimit="10"/>
<path d="M3.74983 9.26886C5.26851 9.26886 6.49965 8.19003 6.49965 6.85922C6.49965 5.52842 5.26851 4.44958 3.74983 4.44958C2.23114 4.44958 1 5.52842 1 6.85922C1 8.19003 2.23114 9.26886 3.74983 9.26886Z" stroke="white" stroke-miterlimit="10"/>
<path d="M3.83668 8.48258C5.35537 8.48258 6.5865 7.40374 6.5865 6.07294C6.5865 4.74213 5.35537 3.6633 3.83668 3.6633C2.31799 3.6633 1.08685 4.74213 1.08685 6.07294C1.08685 7.40374 2.31799 8.48258 3.83668 8.48258Z" stroke="white" stroke-miterlimit="10"/>
<path d="M4.09718 7.74698C5.61586 7.74698 6.847 6.66815 6.847 5.33734C6.847 4.00654 5.61586 2.9277 4.09718 2.9277C2.57849 2.9277 1.34735 4.00654 1.34735 5.33734C1.34735 6.66815 2.57849 7.74698 4.09718 7.74698Z" stroke="white" stroke-miterlimit="10"/>
<path d="M4.53132 7.11289C6.05001 7.11289 7.28115 6.03405 7.28115 4.70325C7.28115 3.37244 6.05001 2.29361 4.53132 2.29361C3.01263 2.29361 1.78149 3.37244 1.78149 4.70325C1.78149 6.03405 3.01263 7.11289 4.53132 7.11289Z" stroke="white" stroke-miterlimit="10"/>
<path d="M5.11024 6.5802C6.62893 6.5802 7.86006 5.50137 7.86006 4.17056C7.86006 2.83976 6.62893 1.76093 5.11024 1.76093C3.59155 1.76093 2.36041 2.83976 2.36041 4.17056C2.36041 5.50137 3.59155 6.5802 5.11024 6.5802Z" stroke="white" stroke-miterlimit="10"/>
<path d="M5.805 6.17438C7.32369 6.17438 8.55483 5.09555 8.55483 3.76474C8.55483 2.43393 7.32369 1.3551 5.805 1.3551C4.28631 1.3551 3.05518 2.43393 3.05518 3.76474C3.05518 5.09555 4.28631 6.17438 5.805 6.17438Z" stroke="white" stroke-miterlimit="10"/>
<path d="M6.60099 5.90805C8.11968 5.90805 9.35082 4.82922 9.35082 3.49841C9.35082 2.16761 8.11968 1.08878 6.60099 1.08878C5.0823 1.08878 3.85117 2.16761 3.85117 3.49841C3.85117 4.82922 5.0823 5.90805 6.60099 5.90805Z" stroke="white" stroke-miterlimit="10"/>
<path d="M7.4838 5.81928C9.00249 5.81928 10.2336 4.74044 10.2336 3.40964C10.2336 2.07883 9.00249 1 7.4838 1C5.96512 1 4.73398 2.07883 4.73398 3.40964C4.73398 4.74044 5.96512 5.81928 7.4838 5.81928Z" stroke="white" stroke-miterlimit="10"/>
<path d="M8.35218 5.81928C9.87087 5.81928 11.102 4.74044 11.102 3.40964C11.102 2.07883 9.87087 1 8.35218 1C6.83349 1 5.60236 2.07883 5.60236 3.40964C5.60236 4.74044 6.83349 5.81928 8.35218 5.81928Z" stroke="white" stroke-miterlimit="10"/>
<path d="M9.20609 5.81928C10.7248 5.81928 11.9559 4.74044 11.9559 3.40964C11.9559 2.07883 10.7248 1 9.20609 1C7.68741 1 6.45627 2.07883 6.45627 3.40964C6.45627 4.74044 7.68741 5.81928 9.20609 5.81928Z" stroke="white" stroke-miterlimit="10"/>
<path d="M10.0744 5.81928C11.5931 5.81928 12.8243 4.74044 12.8243 3.40964C12.8243 2.07883 11.5931 1 10.0744 1C8.55575 1 7.32462 2.07883 7.32462 3.40964C7.32462 4.74044 8.55575 5.81928 10.0744 5.81928Z" stroke="white" stroke-miterlimit="10"/>
<path d="M10.9428 5.81928C12.4615 5.81928 13.6926 4.74044 13.6926 3.40964C13.6926 2.07883 12.4615 1 10.9428 1C9.42413 1 8.19299 2.07883 8.19299 3.40964C8.19299 4.74044 9.42413 5.81928 10.9428 5.81928Z" stroke="white" stroke-miterlimit="10"/>
<path d="M11.8112 5.81928C13.3299 5.81928 14.561 4.74044 14.561 3.40964C14.561 2.07883 13.3299 1 11.8112 1C10.2925 1 9.06137 2.07883 9.06137 3.40964C9.06137 4.74044 10.2925 5.81928 11.8112 5.81928Z" stroke="white" stroke-miterlimit="10"/>
<path d="M12.6795 5.81928C14.1982 5.81928 15.4294 4.74044 15.4294 3.40964C15.4294 2.07883 14.1982 1 12.6795 1C11.1609 1 9.92972 2.07883 9.92972 3.40964C9.92972 4.74044 11.1609 5.81928 12.6795 5.81928Z" stroke="white" stroke-miterlimit="10"/>
<path d="M13.5334 5.81928C15.0521 5.81928 16.2833 4.74044 16.2833 3.40964C16.2833 2.07883 15.0521 1 13.5334 1C12.0147 1 10.7836 2.07883 10.7836 3.40964C10.7836 4.74044 12.0147 5.81928 13.5334 5.81928Z" stroke="white" stroke-miterlimit="10"/>
<path d="M14.4018 5.81928C15.9205 5.81928 17.1516 4.74044 17.1516 3.40964C17.1516 2.07883 15.9205 1 14.4018 1C12.8831 1 11.652 2.07883 11.652 3.40964C11.652 4.74044 12.8831 5.81928 14.4018 5.81928Z" stroke="white" stroke-miterlimit="10"/>
<path d="M15.2702 5.81928C16.7888 5.81928 18.02 4.74044 18.02 3.40964C18.02 2.07883 16.7888 1 15.2702 1C13.7515 1 12.5203 2.07883 12.5203 3.40964C12.5203 4.74044 13.7515 5.81928 15.2702 5.81928Z" stroke="white" stroke-miterlimit="10"/>
<path d="M16.1385 5.81928C17.6572 5.81928 18.8884 4.74044 18.8884 3.40964C18.8884 2.07883 17.6572 1 16.1385 1C14.6198 1 13.3887 2.07883 13.3887 3.40964C13.3887 4.74044 14.6198 5.81928 16.1385 5.81928Z" stroke="white" stroke-miterlimit="10"/>
<path d="M16.9924 5.81928C18.5111 5.81928 19.7422 4.74044 19.7422 3.40964C19.7422 2.07883 18.5111 1 16.9924 1C15.4737 1 14.2426 2.07883 14.2426 3.40964C14.2426 4.74044 15.4737 5.81928 16.9924 5.81928Z" stroke="white" stroke-miterlimit="10"/>
<path d="M17.8608 5.81928C19.3795 5.81928 20.6106 4.74044 20.6106 3.40964C20.6106 2.07883 19.3795 1 17.8608 1C16.3421 1 15.111 2.07883 15.111 3.40964C15.111 4.74044 16.3421 5.81928 17.8608 5.81928Z" stroke="white" stroke-miterlimit="10"/>
<path d="M18.7291 5.81928C20.2478 5.81928 21.479 4.74044 21.479 3.40964C21.479 2.07883 20.2478 1 18.7291 1C17.2104 1 15.9793 2.07883 15.9793 3.40964C15.9793 4.74044 17.2104 5.81928 18.7291 5.81928Z" stroke="white" stroke-miterlimit="10"/>
</svg>
