<svg width="165" height="160" viewBox="0 0 165 160" fill="none" xmlns="http://www.w3.org/2000/svg">
<path d="M143.3 152.5C153.793 152.5 162.3 143.993 162.3 133.5C162.3 123.007 153.793 114.5 143.3 114.5C132.806 114.5 124.3 123.007 124.3 133.5C124.3 143.993 132.806 152.5 143.3 152.5Z" stroke="white" stroke-miterlimit="10"/>
<path d="M144.4 155.5C154.893 155.5 163.4 146.993 163.4 136.5C163.4 126.007 154.893 117.5 144.4 117.5C133.906 117.5 125.4 126.007 125.4 136.5C125.4 146.993 133.906 155.5 144.4 155.5Z" stroke="white" stroke-miterlimit="10"/>
<path d="M142.6 158.2C153.094 158.2 161.6 149.693 161.6 139.2C161.6 128.707 153.094 120.2 142.6 120.2C132.107 120.2 123.6 128.707 123.6 139.2C123.6 149.693 132.107 158.2 142.6 158.2Z" stroke="white" stroke-miterlimit="10"/>
<path d="M139.5 158.5C149.993 158.5 158.5 149.993 158.5 139.5C158.5 129.007 149.993 120.5 139.5 120.5C129.007 120.5 120.5 129.007 120.5 139.5C120.5 149.993 129.007 158.5 139.5 158.5Z" stroke="white" stroke-miterlimit="10"/>
<path d="M137 156.4C147.493 156.4 156 147.893 156 137.4C156 126.907 147.493 118.4 137 118.4C126.507 118.4 118 126.907 118 137.4C118 147.893 126.507 156.4 137 156.4Z" stroke="white" stroke-miterlimit="10"/>
<path d="M134.7 154.1C145.193 154.1 153.7 145.593 153.7 135.1C153.7 124.607 145.193 116.1 134.7 116.1C124.207 116.1 115.7 124.607 115.7 135.1C115.7 145.593 124.207 154.1 134.7 154.1Z" stroke="white" stroke-miterlimit="10"/>
<path d="M132.3 151.8C142.793 151.8 151.3 143.293 151.3 132.8C151.3 122.307 142.793 113.8 132.3 113.8C121.806 113.8 113.3 122.307 113.3 132.8C113.3 143.293 121.806 151.8 132.3 151.8Z" stroke="white" stroke-miterlimit="10"/>
<path d="M130 149.4C140.493 149.4 149 140.893 149 130.4C149 119.907 140.493 111.4 130 111.4C119.507 111.4 111 119.907 111 130.4C111 140.893 119.507 149.4 130 149.4Z" stroke="white" stroke-miterlimit="10"/>
<path d="M127.7 147.1C138.193 147.1 146.7 138.593 146.7 128.1C146.7 117.607 138.193 109.1 127.7 109.1C117.207 109.1 108.7 117.607 108.7 128.1C108.7 138.593 117.207 147.1 127.7 147.1Z" stroke="white" stroke-miterlimit="10"/>
<path d="M125.4 144.8C135.893 144.8 144.4 136.293 144.4 125.8C144.4 115.307 135.893 106.8 125.4 106.8C114.906 106.8 106.4 115.307 106.4 125.8C106.4 136.293 114.906 144.8 125.4 144.8Z" stroke="white" stroke-miterlimit="10"/>
<path d="M123.1 142.5C133.594 142.5 142.1 133.993 142.1 123.5C142.1 113.007 133.594 104.5 123.1 104.5C112.607 104.5 104.1 113.007 104.1 123.5C104.1 133.993 112.607 142.5 123.1 142.5Z" stroke="white" stroke-miterlimit="10"/>
<path d="M120.7 140.2C131.193 140.2 139.7 131.693 139.7 121.2C139.7 110.707 131.193 102.2 120.7 102.2C110.207 102.2 101.7 110.707 101.7 121.2C101.7 131.693 110.207 140.2 120.7 140.2Z" stroke="white" stroke-miterlimit="10"/>
<path d="M118.4 137.8C128.893 137.8 137.4 129.293 137.4 118.8C137.4 108.307 128.893 99.8 118.4 99.8C107.907 99.8 99.3999 108.307 99.3999 118.8C99.3999 129.293 107.907 137.8 118.4 137.8Z" stroke="white" stroke-miterlimit="10"/>
<path d="M116.1 135.5C126.594 135.5 135.1 126.993 135.1 116.5C135.1 106.007 126.594 97.5 116.1 97.5C105.607 97.5 97.1001 106.007 97.1001 116.5C97.1001 126.993 105.607 135.5 116.1 135.5Z" stroke="white" stroke-miterlimit="10"/>
<path d="M113.8 133.2C124.293 133.2 132.8 124.693 132.8 114.2C132.8 103.707 124.293 95.2 113.8 95.2C103.307 95.2 94.8 103.707 94.8 114.2C94.8 124.693 103.307 133.2 113.8 133.2Z" stroke="white" stroke-miterlimit="10"/>
<path d="M111.5 130.9C121.993 130.9 130.5 122.393 130.5 111.9C130.5 101.407 121.993 92.9 111.5 92.9C101.007 92.9 92.5 101.407 92.5 111.9C92.5 122.393 101.007 130.9 111.5 130.9Z" stroke="white" stroke-miterlimit="10"/>
<path d="M109.1 128.6C119.594 128.6 128.1 120.093 128.1 109.6C128.1 99.1066 119.594 90.6 109.1 90.6C98.6067 90.6 90.1001 99.1066 90.1001 109.6C90.1001 120.093 98.6067 128.6 109.1 128.6Z" stroke="white" stroke-miterlimit="10"/>
<path d="M106.8 126.3C117.293 126.3 125.8 117.793 125.8 107.3C125.8 96.8066 117.293 88.3 106.8 88.3C96.3066 88.3 87.8 96.8066 87.8 107.3C87.8 117.793 96.3066 126.3 106.8 126.3Z" stroke="white" stroke-miterlimit="10"/>
<path d="M108 117C118.493 117 127 108.493 127 98C127 87.5066 118.493 79 108 79C97.5065 79 89 87.5066 89 98C89 108.493 97.5065 117 108 117Z" stroke="white" stroke-miterlimit="10"/>
<path d="M105 120.6C115.493 120.6 124 112.093 124 101.6C124 91.1066 115.493 82.6 105 82.6C94.5066 82.6 86 91.1066 86 101.6C86 112.093 94.5066 120.6 105 120.6Z" stroke="white" stroke-miterlimit="10"/>
<path d="M107.7 118.9C118.193 118.9 126.7 110.393 126.7 99.9C126.7 89.4066 118.193 80.9 107.7 80.9C97.2065 80.9 88.7 89.4066 88.7 99.9C88.7 110.393 97.2065 118.9 107.7 118.9Z" stroke="white" stroke-miterlimit="10"/>
<path d="M110.7 119.9C121.193 119.9 129.7 111.393 129.7 100.9C129.7 90.4066 121.193 81.9 110.7 81.9C100.207 81.9 91.7 90.4066 91.7 100.9C91.7 111.393 100.207 119.9 110.7 119.9Z" stroke="white" stroke-miterlimit="10"/>
<path d="M144.7 99C155.193 99 163.7 90.4934 163.7 80C163.7 69.5066 155.193 61 144.7 61C134.207 61 125.7 69.5066 125.7 80C125.7 90.4934 134.207 99 144.7 99Z" stroke="white" stroke-miterlimit="10"/>
<path d="M144.4 104.7C154.893 104.7 163.4 96.1934 163.4 85.7C163.4 75.2066 154.893 66.7 144.4 66.7C133.906 66.7 125.4 75.2066 125.4 85.7C125.4 96.1934 133.906 104.7 144.4 104.7Z" stroke="white" stroke-miterlimit="10"/>
<path d="M143.6 110.3C154.094 110.3 162.6 101.793 162.6 91.3C162.6 80.8066 154.094 72.3 143.6 72.3C133.107 72.3 124.6 80.8066 124.6 91.3C124.6 101.793 133.107 110.3 143.6 110.3Z" stroke="white" stroke-miterlimit="10"/>
<path d="M142.2 115.8C152.693 115.8 161.2 107.293 161.2 96.8C161.2 86.3066 152.693 77.8 142.2 77.8C131.707 77.8 123.2 86.3066 123.2 96.8C123.2 107.293 131.707 115.8 142.2 115.8Z" stroke="white" stroke-miterlimit="10"/>
<path d="M140.3 121.2C150.793 121.2 159.3 112.693 159.3 102.2C159.3 91.7066 150.793 83.2 140.3 83.2C129.806 83.2 121.3 91.7066 121.3 102.2C121.3 112.693 129.806 121.2 140.3 121.2Z" stroke="white" stroke-miterlimit="10"/>
<path d="M137.8 126.4C148.293 126.4 156.8 117.893 156.8 107.4C156.8 96.9066 148.293 88.4 137.8 88.4C127.306 88.4 118.8 96.9066 118.8 107.4C118.8 117.893 127.306 126.4 137.8 126.4Z" stroke="white" stroke-miterlimit="10"/>
<path d="M132.8 127.6C143.293 127.6 151.8 119.093 151.8 108.6C151.8 98.1066 143.293 89.6 132.8 89.6C122.306 89.6 113.8 98.1066 113.8 108.6C113.8 119.093 122.306 127.6 132.8 127.6Z" stroke="white" stroke-miterlimit="10"/>
<path d="M131.6 122.7C142.094 122.7 150.6 114.193 150.6 103.7C150.6 93.2066 142.094 84.7 131.6 84.7C121.107 84.7 112.6 93.2066 112.6 103.7C112.6 114.193 121.107 122.7 131.6 122.7Z" stroke="white" stroke-miterlimit="10"/>
<path d="M134 117.4C144.493 117.4 153 108.893 153 98.4C153 87.9066 144.493 79.4 134 79.4C123.507 79.4 115 87.9066 115 98.4C115 108.893 123.507 117.4 134 117.4Z" stroke="white" stroke-miterlimit="10"/>
<path d="M140 101C150.493 101 159 91.598 159 80C159 68.402 150.493 59 140 59C129.507 59 121 68.402 121 80C121 91.598 129.507 101 140 101Z" stroke="white" stroke-miterlimit="10"/>
<path d="M136.9 106.5C147.393 106.5 155.9 97.9934 155.9 87.5C155.9 77.0066 147.393 68.5 136.9 68.5C126.406 68.5 117.9 77.0066 117.9 87.5C117.9 97.9934 126.406 106.5 136.9 106.5Z" stroke="white" stroke-miterlimit="10"/>
<path d="M137.5 100.8C147.993 100.8 156.5 92.2935 156.5 81.8C156.5 71.3066 147.993 62.8 137.5 62.8C127.007 62.8 118.5 71.3066 118.5 81.8C118.5 92.2935 127.007 100.8 137.5 100.8Z" stroke="white" stroke-miterlimit="10"/>
<path d="M137.3 95C147.793 95 156.3 86.4934 156.3 76C156.3 65.5066 147.793 57 137.3 57C126.806 57 118.3 65.5066 118.3 76C118.3 86.4934 126.806 95 137.3 95Z" stroke="white" stroke-miterlimit="10"/>
<path d="M136.6 89.3C147.094 89.3 155.6 80.7935 155.6 70.3C155.6 59.8066 147.094 51.3 136.6 51.3C126.107 51.3 117.6 59.8066 117.6 70.3C117.6 80.7935 126.107 89.3 136.6 89.3Z" stroke="white" stroke-miterlimit="10"/>
<path d="M135.2 83.8C145.693 83.8 154.2 75.2935 154.2 64.8C154.2 54.3066 145.693 45.8 135.2 45.8C124.707 45.8 116.2 54.3066 116.2 64.8C116.2 75.2935 124.707 83.8 135.2 83.8Z" stroke="white" stroke-miterlimit="10"/>
<path d="M133.2 78.6C143.693 78.6 152.2 70.0934 152.2 59.6C152.2 49.1066 143.693 40.6 133.2 40.6C122.707 40.6 114.2 49.1066 114.2 59.6C114.2 70.0934 122.707 78.6 133.2 78.6Z" stroke="white" stroke-miterlimit="10"/>
<path d="M130.7 73.6C141.193 73.6 149.7 65.0934 149.7 54.6C149.7 44.1066 141.193 35.6 130.7 35.6C120.207 35.6 111.7 44.1066 111.7 54.6C111.7 65.0934 120.207 73.6 130.7 73.6Z" stroke="white" stroke-miterlimit="10"/>
<path d="M127.6 68.9C138.094 68.9 146.6 60.3934 146.6 49.9C146.6 39.4066 138.094 30.9 127.6 30.9C117.107 30.9 108.6 39.4066 108.6 49.9C108.6 60.3934 117.107 68.9 127.6 68.9Z" stroke="white" stroke-miterlimit="10"/>
<path d="M124.1 64.6C134.594 64.6 143.1 56.0934 143.1 45.6C143.1 35.1066 134.594 26.6 124.1 26.6C113.607 26.6 105.1 35.1066 105.1 45.6C105.1 56.0934 113.607 64.6 124.1 64.6Z" stroke="white" stroke-miterlimit="10"/>
<path d="M120.2 60.6C130.693 60.6 139.2 52.0934 139.2 41.6C139.2 31.1066 130.693 22.6 120.2 22.6C109.707 22.6 101.2 31.1066 101.2 41.6C101.2 52.0934 109.707 60.6 120.2 60.6Z" stroke="white" stroke-miterlimit="10"/>
<path d="M115.8 57.1C126.293 57.1 134.8 48.5934 134.8 38.1C134.8 27.6066 126.293 19.1 115.8 19.1C105.307 19.1 96.8 27.6066 96.8 38.1C96.8 48.5934 105.307 57.1 115.8 57.1Z" stroke="white" stroke-miterlimit="10"/>
<path d="M111.1 54C121.594 54 130.1 45.4934 130.1 35C130.1 24.5066 121.594 16 111.1 16C100.607 16 92.1001 24.5066 92.1001 35C92.1001 45.4934 100.607 54 111.1 54Z" stroke="white" stroke-miterlimit="10"/>
<path d="M106.1 51.4C116.594 51.4 125.1 42.8934 125.1 32.4C125.1 21.9066 116.594 13.4 106.1 13.4C95.6067 13.4 87.1001 21.9066 87.1001 32.4C87.1001 42.8934 95.6067 51.4 106.1 51.4Z" stroke="white" stroke-miterlimit="10"/>
<path d="M77.1001 46.5C87.5935 46.5 96.1001 37.9934 96.1001 27.5C96.1001 17.0066 87.5935 8.5 77.1001 8.5C66.6067 8.5 58.1001 17.0066 58.1001 27.5C58.1001 37.9934 66.6067 46.5 77.1001 46.5Z" stroke="white" stroke-miterlimit="10"/>
<path d="M100.7 49.2C111.193 49.2 119.7 40.6934 119.7 30.2C119.7 19.7066 111.193 11.2 100.7 11.2C90.2065 11.2 81.7 19.7066 81.7 30.2C81.7 40.6934 90.2065 49.2 100.7 49.2Z" stroke="white" stroke-miterlimit="10"/>
<path d="M93 46C103.493 46 112 37.4934 112 27C112 16.5066 103.493 8 93 8C82.5066 8 74 16.5066 74 27C74 37.4934 82.5066 46 93 46Z" stroke="white" stroke-miterlimit="10"/>
<path d="M89.2 46.6C99.6934 46.6 108.2 38.0934 108.2 27.6C108.2 17.1066 99.6934 8.60004 89.2 8.60004C78.7065 8.60004 70.2 17.1066 70.2 27.6C70.2 38.0934 78.7065 46.6 89.2 46.6Z" stroke="white" stroke-miterlimit="10"/>
<path d="M83.2 46.2C93.6934 46.2 102.2 37.6934 102.2 27.2C102.2 16.7066 93.6934 8.20001 83.2 8.20001C72.7065 8.20001 64.2 16.7066 64.2 27.2C64.2 37.6934 72.7065 46.2 83.2 46.2Z" stroke="white" stroke-miterlimit="10"/>
<path d="M71.2 47.3C81.6934 47.3 90.2 38.7935 90.2 28.3C90.2 17.8066 81.6934 9.30005 71.2 9.30005C60.7065 9.30005 52.2 17.8066 52.2 28.3C52.2 38.7935 60.7065 47.3 71.2 47.3Z" stroke="white" stroke-miterlimit="10"/>
<path d="M65.5 48.8C75.9934 48.8 84.5 40.2935 84.5 29.8C84.5 19.3066 75.9934 10.8 65.5 10.8C55.0066 10.8 46.5 19.3066 46.5 29.8C46.5 40.2935 55.0066 48.8 65.5 48.8Z" stroke="white" stroke-miterlimit="10"/>
<path d="M60.1001 50.7C70.5935 50.7 79.1001 42.1934 79.1001 31.7C79.1001 21.2066 70.5935 12.7 60.1001 12.7C49.6067 12.7 41.1001 21.2066 41.1001 31.7C41.1001 42.1934 49.6067 50.7 60.1001 50.7Z" stroke="white" stroke-miterlimit="10"/>
<path d="M54.8999 53.2C65.3933 53.2 73.8999 44.6934 73.8999 34.2C73.8999 23.7066 65.3933 15.2 54.8999 15.2C44.4065 15.2 35.8999 23.7066 35.8999 34.2C35.8999 44.6934 44.4065 53.2 54.8999 53.2Z" stroke="white" stroke-miterlimit="10"/>
<path d="M50.1001 56.2C60.5935 56.2 69.1001 47.6934 69.1001 37.2C69.1001 26.7066 60.5935 18.2 50.1001 18.2C39.6067 18.2 31.1001 26.7066 31.1001 37.2C31.1001 47.6934 39.6067 56.2 50.1001 56.2Z" stroke="white" stroke-miterlimit="10"/>
<path d="M45.7 59.6C56.1934 59.6 64.7 51.0934 64.7 40.6C64.7 30.1066 56.1934 21.6 45.7 21.6C35.2065 21.6 26.7 30.1066 26.7 40.6C26.7 51.0934 35.2065 59.6 45.7 59.6Z" stroke="white" stroke-miterlimit="10"/>
<path d="M41.6001 63.5C52.0935 63.5 60.6001 54.9934 60.6001 44.5C60.6001 34.0066 52.0935 25.5 41.6001 25.5C31.1067 25.5 22.6001 34.0066 22.6001 44.5C22.6001 54.9934 31.1067 63.5 41.6001 63.5Z" stroke="white" stroke-miterlimit="10"/>
<path d="M38 67.7C48.4934 67.7 57 59.1934 57 48.7C57 38.2066 48.4934 29.7 38 29.7C27.5066 29.7 19 38.2066 19 48.7C19 59.1934 27.5066 67.7 38 67.7Z" stroke="white" stroke-miterlimit="10"/>
<path d="M34.8 72.3C45.2935 72.3 53.8 63.7935 53.8 53.3C53.8 42.8066 45.2935 34.3 34.8 34.3C24.3066 34.3 15.8 42.8066 15.8 53.3C15.8 63.7935 24.3066 72.3 34.8 72.3Z" stroke="white" stroke-miterlimit="10"/>
<path d="M32.2 77.2C42.6934 77.2 51.2 68.6934 51.2 58.2C51.2 47.7066 42.6934 39.2 32.2 39.2C21.7065 39.2 13.2 47.7066 13.2 58.2C13.2 68.6934 21.7065 77.2 32.2 77.2Z" stroke="white" stroke-miterlimit="10"/>
<path d="M30 82.3C40.4934 82.3 49 73.7935 49 63.3C49 52.8066 40.4934 44.3 30 44.3C19.5066 44.3 11 52.8066 11 63.3C11 73.7935 19.5066 82.3 30 82.3Z" stroke="white" stroke-miterlimit="10"/>
<path d="M28.5 87.8C38.9934 87.8 47.5 79.2935 47.5 68.8C47.5 58.3066 38.9934 49.8 28.5 49.8C18.0066 49.8 9.5 58.3066 9.5 68.8C9.5 79.2935 18.0066 87.8 28.5 87.8Z" stroke="white" stroke-miterlimit="10"/>
<path d="M27.5 93.4C37.9934 93.4 46.5 84.8934 46.5 74.4C46.5 63.9066 37.9934 55.4 27.5 55.4C17.0066 55.4 8.5 63.9066 8.5 74.4C8.5 84.8934 17.0066 93.4 27.5 93.4Z" stroke="white" stroke-miterlimit="10"/>
<path d="M27 99C37.4934 99 46 90.4934 46 80C46 69.5066 37.4934 61 27 61C16.5066 61 8 69.5066 8 80C8 90.4934 16.5066 99 27 99Z" stroke="white" stroke-miterlimit="10"/>
<path d="M27.6001 105C38.0935 105 46.6001 96.4934 46.6001 86C46.6001 75.5066 38.0935 67 27.6001 67C17.1067 67 8.6001 75.5066 8.6001 86C8.6001 96.4934 17.1067 105 27.6001 105Z" stroke="white" stroke-miterlimit="10"/>
<path d="M28.6001 110.6C39.0935 110.6 47.6001 102.093 47.6001 91.6C47.6001 81.1066 39.0935 72.6 28.6001 72.6C18.1067 72.6 9.6001 81.1066 9.6001 91.6C9.6001 102.093 18.1067 110.6 28.6001 110.6Z" stroke="white" stroke-miterlimit="10"/>
<path d="M30.2 116C40.6934 116 49.2 107.493 49.2 97C49.2 86.5066 40.6934 78 30.2 78C19.7065 78 11.2 86.5066 11.2 97C11.2 107.493 19.7065 116 30.2 116Z" stroke="white" stroke-miterlimit="10"/>
<path d="M32.3999 121.2C42.8933 121.2 51.3999 112.693 51.3999 102.2C51.3999 91.7066 42.8933 83.2 32.3999 83.2C21.9065 83.2 13.3999 91.7066 13.3999 102.2C13.3999 112.693 21.9065 121.2 32.3999 121.2Z" stroke="white" stroke-miterlimit="10"/>
<path d="M35.1001 126C45.5935 126 54.1001 117.493 54.1001 107C54.1001 96.5066 45.5935 88 35.1001 88C24.6067 88 16.1001 96.5066 16.1001 107C16.1001 117.493 24.6067 126 35.1001 126Z" stroke="white" stroke-miterlimit="10"/>
<path d="M38.3 130.6C48.7935 130.6 57.3 122.093 57.3 111.6C57.3 101.107 48.7935 92.6 38.3 92.6C27.8066 92.6 19.3 101.107 19.3 111.6C19.3 122.093 27.8066 130.6 38.3 130.6Z" stroke="white" stroke-miterlimit="10"/>
<path d="M41.8999 134.8C52.3933 134.8 60.8999 126.293 60.8999 115.8C60.8999 105.307 52.3933 96.8 41.8999 96.8C31.4065 96.8 22.8999 105.307 22.8999 115.8C22.8999 126.293 31.4065 134.8 41.8999 134.8Z" stroke="white" stroke-miterlimit="10"/>
<path d="M46 138.6C56.4934 138.6 65 130.093 65 119.6C65 109.107 56.4934 100.6 46 100.6C35.5066 100.6 27 109.107 27 119.6C27 130.093 35.5066 138.6 46 138.6Z" stroke="white" stroke-miterlimit="10"/>
<path d="M50.5 142C60.9934 142 69.5 133.493 69.5 123C69.5 112.507 60.9934 104 50.5 104C40.0066 104 31.5 112.507 31.5 123C31.5 133.493 40.0066 142 50.5 142Z" stroke="white" stroke-miterlimit="10"/>
<path d="M55.3 144.9C65.7935 144.9 74.3 136.393 74.3 125.9C74.3 115.407 65.7935 106.9 55.3 106.9C44.8066 106.9 36.3 115.407 36.3 125.9C36.3 136.393 44.8066 144.9 55.3 144.9Z" stroke="white" stroke-miterlimit="10"/>
<path d="M60.5 147.4C70.9934 147.4 79.5 138.893 79.5 128.4C79.5 117.907 70.9934 109.4 60.5 109.4C50.0066 109.4 41.5 117.907 41.5 128.4C41.5 138.893 50.0066 147.4 60.5 147.4Z" stroke="white" stroke-miterlimit="10"/>
<path d="M66 149.3C76.4934 149.3 85 140.793 85 130.3C85 119.807 76.4934 111.3 66 111.3C55.5066 111.3 47 119.807 47 130.3C47 140.793 55.5066 149.3 66 149.3Z" stroke="white" stroke-miterlimit="10"/>
<path d="M71.7 150.7C82.1934 150.7 90.7 142.193 90.7 131.7C90.7 121.207 82.1934 112.7 71.7 112.7C61.2065 112.7 52.7 121.207 52.7 131.7C52.7 142.193 61.2065 150.7 71.7 150.7Z" stroke="white" stroke-miterlimit="10"/>
<path d="M77.6001 151.5C88.0935 151.5 96.6001 142.993 96.6001 132.5C96.6001 122.007 88.0935 113.5 77.6001 113.5C67.1067 113.5 58.6001 122.007 58.6001 132.5C58.6001 142.993 67.1067 151.5 77.6001 151.5Z" stroke="white" stroke-miterlimit="10"/>
<path d="M83.6001 151.7C94.0935 151.7 102.6 143.193 102.6 132.7C102.6 122.207 94.0935 113.7 83.6001 113.7C73.1067 113.7 64.6001 122.207 64.6001 132.7C64.6001 143.193 73.1067 151.7 83.6001 151.7Z" stroke="white" stroke-miterlimit="10"/>
<path d="M89.3999 151.3C99.8933 151.3 108.4 142.793 108.4 132.3C108.4 121.807 99.8933 113.3 89.3999 113.3C78.9065 113.3 70.3999 121.807 70.3999 132.3C70.3999 142.793 78.9065 151.3 89.3999 151.3Z" stroke="white" stroke-miterlimit="10"/>
<path d="M95 150.3C105.493 150.3 114 141.793 114 131.3C114 120.807 105.493 112.3 95 112.3C84.5066 112.3 76 120.807 76 131.3C76 141.793 84.5066 150.3 95 150.3Z" stroke="white" stroke-miterlimit="10"/>
<path d="M109 144C120.046 144 129 135.046 129 124C129 112.954 120.046 104 109 104C97.9543 104 89 112.954 89 124C89 135.046 97.9543 144 109 144Z" stroke="white" stroke-miterlimit="10"/>
<path d="M105.7 146.7C116.193 146.7 124.7 138.193 124.7 127.7C124.7 117.207 116.193 108.7 105.7 108.7C95.2065 108.7 86.7 117.207 86.7 127.7C86.7 138.193 95.2065 146.7 105.7 146.7Z" stroke="white" stroke-miterlimit="10"/>
<path d="M111.1 146.4C121.594 146.4 130.1 137.893 130.1 127.4C130.1 116.907 121.594 108.4 111.1 108.4C100.607 108.4 92.1001 116.907 92.1001 127.4C92.1001 137.893 100.607 146.4 111.1 146.4Z" stroke="white" stroke-miterlimit="10"/>
<path d="M111.8 151.5C122.293 151.5 130.8 142.993 130.8 132.5C130.8 122.007 122.293 113.5 111.8 113.5C101.307 113.5 92.8 122.007 92.8 132.5C92.8 142.993 101.307 151.5 111.8 151.5Z" stroke="white" stroke-miterlimit="10"/>
<path d="M106.8 154.2C117.293 154.2 125.8 145.693 125.8 135.2C125.8 124.707 117.293 116.2 106.8 116.2C96.3066 116.2 87.8 124.707 87.8 135.2C87.8 145.693 96.3066 154.2 106.8 154.2Z" stroke="white" stroke-miterlimit="10"/>
<path d="M101.4 156.1C111.893 156.1 120.4 147.593 120.4 137.1C120.4 126.607 111.893 118.1 101.4 118.1C90.9065 118.1 82.3999 126.607 82.3999 137.1C82.3999 147.593 90.9065 156.1 101.4 156.1Z" stroke="white" stroke-miterlimit="10"/>
<path d="M95.8999 157.5C106.393 157.5 114.9 148.993 114.9 138.5C114.9 128.007 106.393 119.5 95.8999 119.5C85.4065 119.5 76.8999 128.007 76.8999 138.5C76.8999 148.993 85.4065 157.5 95.8999 157.5Z" stroke="white" stroke-miterlimit="10"/>
<path d="M94 156C104.493 156 113 147.493 113 137C113 126.507 104.493 118 94 118C83.5066 118 75 126.507 75 137C75 147.493 83.5066 156 94 156Z" stroke="white" stroke-miterlimit="10"/>
<path d="M84.6001 158.9C95.0935 158.9 103.6 150.393 103.6 139.9C103.6 129.407 95.0935 120.9 84.6001 120.9C74.1067 120.9 65.6001 129.407 65.6001 139.9C65.6001 150.393 74.1067 158.9 84.6001 158.9Z" stroke="white" stroke-miterlimit="10"/>
<path d="M78.6001 158.8C89.0935 158.8 97.6001 150.293 97.6001 139.8C97.6001 129.307 89.0935 120.8 78.6001 120.8C68.1067 120.8 59.6001 129.307 59.6001 139.8C59.6001 150.293 68.1067 158.8 78.6001 158.8Z" stroke="white" stroke-miterlimit="10"/>
<path d="M72.6001 158.2C83.0935 158.2 91.6001 149.693 91.6001 139.2C91.6001 128.707 83.0935 120.2 72.6001 120.2C62.1067 120.2 53.6001 128.707 53.6001 139.2C53.6001 149.693 62.1067 158.2 72.6001 158.2Z" stroke="white" stroke-miterlimit="10"/>
<path d="M77 159C87.4934 159 96 150.493 96 140C96 129.507 87.4934 121 77 121C66.5066 121 58 129.507 58 140C58 150.493 66.5066 159 77 159Z" stroke="white" stroke-miterlimit="10"/>
<path d="M61.3 155.4C71.7935 155.4 80.3 146.893 80.3 136.4C80.3 125.907 71.7935 117.4 61.3 117.4C50.8066 117.4 42.3 125.907 42.3 136.4C42.3 146.893 50.8066 155.4 61.3 155.4Z" stroke="white" stroke-miterlimit="10"/>
<path d="M55.8999 153.3C66.3933 153.3 74.8999 144.793 74.8999 134.3C74.8999 123.807 66.3933 115.3 55.8999 115.3C45.4065 115.3 36.8999 123.807 36.8999 134.3C36.8999 144.793 45.4065 153.3 55.8999 153.3Z" stroke="white" stroke-miterlimit="10"/>
<path d="M50.8 150.7C61.2935 150.7 69.8 142.193 69.8 131.7C69.8 121.207 61.2935 112.7 50.8 112.7C40.3066 112.7 31.8 121.207 31.8 131.7C31.8 142.193 40.3066 150.7 50.8 150.7Z" stroke="white" stroke-miterlimit="10"/>
<path d="M46 147.7C56.4934 147.7 65 139.193 65 128.7C65 118.207 56.4934 109.7 46 109.7C35.5066 109.7 27 118.207 27 128.7C27 139.193 35.5066 147.7 46 147.7Z" stroke="white" stroke-miterlimit="10"/>
<path d="M41.6001 144.3C52.0935 144.3 60.6001 135.793 60.6001 125.3C60.6001 114.807 52.0935 106.3 41.6001 106.3C31.1067 106.3 22.6001 114.807 22.6001 125.3C22.6001 135.793 31.1067 144.3 41.6001 144.3Z" stroke="white" stroke-miterlimit="10"/>
<path d="M50 145C60.4934 145 69 136.493 69 126C69 115.507 60.4934 107 50 107C39.5066 107 31 115.507 31 126C31 136.493 39.5066 145 50 145Z" stroke="white" stroke-miterlimit="10"/>
<path d="M33.7 136.4C44.1934 136.4 52.7 127.893 52.7 117.4C52.7 106.907 44.1934 98.4 33.7 98.4C23.2065 98.4 14.7 106.907 14.7 117.4C14.7 127.893 23.2065 136.4 33.7 136.4Z" stroke="white" stroke-miterlimit="10"/>
<path d="M30.3 131.9C40.7935 131.9 49.3 123.393 49.3 112.9C49.3 102.407 40.7935 93.9 30.3 93.9C19.8066 93.9 11.3 102.407 11.3 112.9C11.3 123.393 19.8066 131.9 30.3 131.9Z" stroke="white" stroke-miterlimit="10"/>
<path d="M27.3999 127.2C37.8933 127.2 46.3999 118.693 46.3999 108.2C46.3999 97.7066 37.8933 89.2 27.3999 89.2C16.9065 89.2 8.3999 97.7066 8.3999 108.2C8.3999 118.693 16.9065 127.2 27.3999 127.2Z" stroke="white" stroke-miterlimit="10"/>
<path d="M26 125C36.4934 125 45 116.493 45 106C45 95.5066 36.4934 87 26 87C15.5066 87 7 95.5066 7 106C7 116.493 15.5066 125 26 125Z" stroke="white" stroke-miterlimit="10"/>
<path d="M22.8999 117C33.3933 117 41.8999 108.493 41.8999 98C41.8999 87.5066 33.3933 79 22.8999 79C12.4065 79 3.8999 87.5066 3.8999 98C3.8999 108.493 12.4065 117 22.8999 117Z" stroke="white" stroke-miterlimit="10"/>
<path d="M21.3999 111.5C31.8933 111.5 40.3999 102.993 40.3999 92.5C40.3999 82.0066 31.8933 73.5 21.3999 73.5C10.9065 73.5 2.3999 82.0066 2.3999 92.5C2.3999 102.993 10.9065 111.5 21.3999 111.5Z" stroke="white" stroke-miterlimit="10"/>
<path d="M21 109C31.4934 109 40 100.493 40 90C40 79.5066 31.4934 71 21 71C10.5066 71 2 79.5066 2 90C2 100.493 10.5066 109 21 109Z" stroke="white" stroke-miterlimit="10"/>
<path d="M20 100.1C30.4934 100.1 39 91.5934 39 81.1C39 70.6066 30.4934 62.1 20 62.1C9.50659 62.1 1 70.6066 1 81.1C1 91.5934 9.50659 100.1 20 100.1Z" stroke="white" stroke-miterlimit="10"/>
<path d="M20.2 94.2C30.6934 94.2 39.2 85.6934 39.2 75.2C39.2 64.7066 30.6934 56.2 20.2 56.2C9.70654 56.2 1.19995 64.7066 1.19995 75.2C1.19995 85.6934 9.70654 94.2 20.2 94.2Z" stroke="white" stroke-miterlimit="10"/>
<path d="M21 88.5C31.4934 88.5 40 79.9934 40 69.5C40 59.0066 31.4934 50.5 21 50.5C10.5066 50.5 2 59.0066 2 69.5C2 79.9934 10.5066 88.5 21 88.5Z" stroke="white" stroke-miterlimit="10"/>
<path d="M22.3 83C32.7935 83 41.3 74.4934 41.3 64C41.3 53.5066 32.7935 45 22.3 45C11.8066 45 3.30005 53.5066 3.30005 64C3.30005 74.4934 11.8066 83 22.3 83Z" stroke="white" stroke-miterlimit="10"/>
<path d="M24 87C34.4934 87 43 77.3741 43 65.5C43 53.6259 34.4934 44 24 44C13.5066 44 5 53.6259 5 65.5C5 77.3741 13.5066 87 24 87Z" stroke="white" stroke-miterlimit="10"/>
<path d="M26.3999 72.6C36.8933 72.6 45.3999 64.0934 45.3999 53.6C45.3999 43.1066 36.8933 34.6 26.3999 34.6C15.9065 34.6 7.3999 43.1066 7.3999 53.6C7.3999 64.0934 15.9065 72.6 26.3999 72.6Z" stroke="white" stroke-miterlimit="10"/>
<path d="M29 70C39.4934 70 48 61.4934 48 51C48 40.5066 39.4934 32 29 32C18.5066 32 10 40.5066 10 51C10 61.4934 18.5066 70 29 70Z" stroke="white" stroke-miterlimit="10"/>
<path d="M32.3 63.2C42.7935 63.2 51.3 54.6934 51.3 44.2C51.3 33.7066 42.7935 25.2 32.3 25.2C21.8066 25.2 13.3 33.7066 13.3 44.2C13.3 54.6934 21.8066 63.2 32.3 63.2Z" stroke="white" stroke-miterlimit="10"/>
<path d="M36 59C46.4934 59 55 50.4934 55 40C55 29.5066 46.4934 21 36 21C25.5066 21 17 29.5066 17 40C17 50.4934 25.5066 59 36 59Z" stroke="white" stroke-miterlimit="10"/>
<path d="M38 61C48.4934 61 57 52.4934 57 42C57 31.5066 48.4934 23 38 23C27.5066 23 19 31.5066 19 42C19 52.4934 27.5066 61 38 61Z" stroke="white" stroke-miterlimit="10"/>
<path d="M44.3 51.5C54.7935 51.5 63.3 42.9934 63.3 32.5C63.3 22.0066 54.7935 13.5 44.3 13.5C33.8066 13.5 25.3 22.0066 25.3 32.5C25.3 42.9934 33.8066 51.5 44.3 51.5Z" stroke="white" stroke-miterlimit="10"/>
<path d="M49 48.3C59.4934 48.3 68 39.7935 68 29.3C68 18.8066 59.4934 10.3 49 10.3C38.5066 10.3 30 18.8066 30 29.3C30 39.7935 38.5066 48.3 49 48.3Z" stroke="white" stroke-miterlimit="10"/>
<path d="M54 45.6C64.4934 45.6 73 37.0934 73 26.6C73 16.1066 64.4934 7.60004 54 7.60004C43.5066 7.60004 35 16.1066 35 26.6C35 37.0934 43.5066 45.6 54 45.6Z" stroke="white" stroke-miterlimit="10"/>
<path d="M59.2 43.3C69.6934 43.3 78.2 34.7935 78.2 24.3C78.2 13.8066 69.6934 5.30005 59.2 5.30005C48.7065 5.30005 40.2 13.8066 40.2 24.3C40.2 34.7935 48.7065 43.3 59.2 43.3Z" stroke="white" stroke-miterlimit="10"/>
<path d="M62 47C72.4934 47 81 38.0457 81 27C81 15.9543 72.4934 7 62 7C51.5066 7 43 15.9543 43 27C43 38.0457 51.5066 47 62 47Z" stroke="white" stroke-miterlimit="10"/>
<path d="M70.3999 40.1C80.8933 40.1 89.3999 31.5934 89.3999 21.1C89.3999 10.6066 80.8933 2.10004 70.3999 2.10004C59.9065 2.10004 51.3999 10.6066 51.3999 21.1C51.3999 31.5934 59.9065 40.1 70.3999 40.1Z" stroke="white" stroke-miterlimit="10"/>
<path d="M76.3 39.3C86.7935 39.3 95.3 30.7935 95.3 20.3C95.3 9.80664 86.7935 1.30005 76.3 1.30005C65.8066 1.30005 57.3 9.80664 57.3 20.3C57.3 30.7935 65.8066 39.3 76.3 39.3Z" stroke="white" stroke-miterlimit="10"/>
<path d="M82.3999 39C92.8933 39 101.4 30.4934 101.4 20C101.4 9.50659 92.8933 1 82.3999 1C71.9065 1 63.3999 9.50659 63.3999 20C63.3999 30.4934 71.9065 39 82.3999 39Z" stroke="white" stroke-miterlimit="10"/>
<path d="M88 39C98.4934 39 107 30.4934 107 20C107 9.50659 98.4934 1 88 1C77.5066 1 69 9.50659 69 20C69 30.4934 77.5066 39 88 39Z" stroke="white" stroke-miterlimit="10"/>
</svg>
