<svg width="23" height="22" viewBox="0 0 23 22" fill="none" xmlns="http://www.w3.org/2000/svg">
<path d="M19.537 6.27585C20.8973 6.27585 22 5.19702 22 3.86621C22 2.53541 20.8973 1.45657 19.537 1.45657C18.1768 1.45657 17.0741 2.53541 17.0741 3.86621C17.0741 5.19702 18.1768 6.27585 19.537 6.27585Z" stroke="white" stroke-miterlimit="10"/>
<path d="M19.4333 6.56751C20.7936 6.56751 21.8963 5.48868 21.8963 4.15787C21.8963 2.82706 20.7936 1.74823 19.4333 1.74823C18.0731 1.74823 16.9704 2.82706 16.9704 4.15787C16.9704 5.48868 18.0731 6.56751 19.4333 6.56751Z" stroke="white" stroke-miterlimit="10"/>
<path d="M19.1611 6.71973C20.5214 6.71973 21.6241 5.6409 21.6241 4.31009C21.6241 2.97928 20.5214 1.90045 19.1611 1.90045C17.8009 1.90045 16.6982 2.97928 16.6982 4.31009C16.6982 5.6409 17.8009 6.71973 19.1611 6.71973Z" stroke="white" stroke-miterlimit="10"/>
<path d="M18.837 6.7324C20.1973 6.7324 21.3 5.65356 21.3 4.32276C21.3 2.99195 20.1973 1.91312 18.837 1.91312C17.4768 1.91312 16.3741 2.99195 16.3741 4.32276C16.3741 5.65356 17.4768 6.7324 18.837 6.7324Z" stroke="white" stroke-miterlimit="10"/>
<path d="M18.513 6.7324C19.8732 6.7324 20.9759 5.65356 20.9759 4.32276C20.9759 2.99195 19.8732 1.91312 18.513 1.91312C17.1527 1.91312 16.05 2.99195 16.05 4.32276C16.05 5.65356 17.1527 6.7324 18.513 6.7324Z" stroke="white" stroke-miterlimit="10"/>
<path d="M18.1889 6.7324C19.5491 6.7324 20.6518 5.65356 20.6518 4.32276C20.6518 2.99195 19.5491 1.91312 18.1889 1.91312C16.8286 1.91312 15.7259 2.99195 15.7259 4.32276C15.7259 5.65356 16.8286 6.7324 18.1889 6.7324Z" stroke="white" stroke-miterlimit="10"/>
<path d="M17.8648 6.7324C19.2251 6.7324 20.3278 5.65356 20.3278 4.32276C20.3278 2.99195 19.2251 1.91312 17.8648 1.91312C16.5046 1.91312 15.4019 2.99195 15.4019 4.32276C15.4019 5.65356 16.5046 6.7324 17.8648 6.7324Z" stroke="white" stroke-miterlimit="10"/>
<path d="M17.5537 6.7324C18.9139 6.7324 20.0167 5.65356 20.0167 4.32276C20.0167 2.99195 18.9139 1.91312 17.5537 1.91312C16.1934 1.91312 15.0907 2.99195 15.0907 4.32276C15.0907 5.65356 16.1934 6.7324 17.5537 6.7324Z" stroke="white" stroke-miterlimit="10"/>
<path d="M17.2296 6.7324C18.5899 6.7324 19.6926 5.65356 19.6926 4.32276C19.6926 2.99195 18.5899 1.91312 17.2296 1.91312C15.8694 1.91312 14.7667 2.99195 14.7667 4.32276C14.7667 5.65356 15.8694 6.7324 17.2296 6.7324Z" stroke="white" stroke-miterlimit="10"/>
<path d="M16.9056 6.7324C18.2658 6.7324 19.3685 5.65356 19.3685 4.32276C19.3685 2.99195 18.2658 1.91312 16.9056 1.91312C15.5453 1.91312 14.4426 2.99195 14.4426 4.32276C14.4426 5.65356 15.5453 6.7324 16.9056 6.7324Z" stroke="white" stroke-miterlimit="10"/>
<path d="M16.5815 6.7324C17.9417 6.7324 19.0444 5.65356 19.0444 4.32276C19.0444 2.99195 17.9417 1.91312 16.5815 1.91312C15.2212 1.91312 14.1185 2.99195 14.1185 4.32276C14.1185 5.65356 15.2212 6.7324 16.5815 6.7324Z" stroke="white" stroke-miterlimit="10"/>
<path d="M16.2574 6.7324C17.6177 6.7324 18.7204 5.65356 18.7204 4.32276C18.7204 2.99195 17.6177 1.91312 16.2574 1.91312C14.8971 1.91312 13.7944 2.99195 13.7944 4.32276C13.7944 5.65356 14.8971 6.7324 16.2574 6.7324Z" stroke="white" stroke-miterlimit="10"/>
<path d="M15.9333 6.7324C17.2936 6.7324 18.3963 5.65356 18.3963 4.32276C18.3963 2.99195 17.2936 1.91312 15.9333 1.91312C14.5731 1.91312 13.4704 2.99195 13.4704 4.32276C13.4704 5.65356 14.5731 6.7324 15.9333 6.7324Z" stroke="white" stroke-miterlimit="10"/>
<path d="M15.6222 6.7324C16.9825 6.7324 18.0852 5.65356 18.0852 4.32276C18.0852 2.99195 16.9825 1.91312 15.6222 1.91312C14.262 1.91312 13.1593 2.99195 13.1593 4.32276C13.1593 5.65356 14.262 6.7324 15.6222 6.7324Z" stroke="white" stroke-miterlimit="10"/>
<path d="M15.2982 6.7324C16.6584 6.7324 17.7611 5.65356 17.7611 4.32276C17.7611 2.99195 16.6584 1.91312 15.2982 1.91312C13.9379 1.91312 12.8352 2.99195 12.8352 4.32276C12.8352 5.65356 13.9379 6.7324 15.2982 6.7324Z" stroke="white" stroke-miterlimit="10"/>
<path d="M14.9741 6.7324C16.3343 6.7324 17.437 5.65356 17.437 4.32276C17.437 2.99195 16.3343 1.91312 14.9741 1.91312C13.6138 1.91312 12.5111 2.99195 12.5111 4.32276C12.5111 5.65356 13.6138 6.7324 14.9741 6.7324Z" stroke="white" stroke-miterlimit="10"/>
<path d="M14.65 6.7324C16.0103 6.7324 17.113 5.65356 17.113 4.32276C17.113 2.99195 16.0103 1.91312 14.65 1.91312C13.2897 1.91312 12.187 2.99195 12.187 4.32276C12.187 5.65356 13.2897 6.7324 14.65 6.7324Z" stroke="white" stroke-miterlimit="10"/>
<path d="M14.3259 6.7324C15.6862 6.7324 16.7889 5.65356 16.7889 4.32276C16.7889 2.99195 15.6862 1.91312 14.3259 1.91312C12.9657 1.91312 11.863 2.99195 11.863 4.32276C11.863 5.65356 12.9657 6.7324 14.3259 6.7324Z" stroke="white" stroke-miterlimit="10"/>
<path d="M14.0148 6.7324C15.3751 6.7324 16.4778 5.65356 16.4778 4.32276C16.4778 2.99195 15.3751 1.91312 14.0148 1.91312C12.6546 1.91312 11.5518 2.99195 11.5518 4.32276C11.5518 5.65356 12.6546 6.7324 14.0148 6.7324Z" stroke="white" stroke-miterlimit="10"/>
<path d="M13.6907 6.7324C15.051 6.7324 16.1537 5.65356 16.1537 4.32276C16.1537 2.99195 15.051 1.91312 13.6907 1.91312C12.3305 1.91312 11.2278 2.99195 11.2278 4.32276C11.2278 5.65356 12.3305 6.7324 13.6907 6.7324Z" stroke="white" stroke-miterlimit="10"/>
<path d="M13.3667 6.7324C14.7269 6.7324 15.8296 5.65356 15.8296 4.32276C15.8296 2.99195 14.7269 1.91312 13.3667 1.91312C12.0064 1.91312 10.9037 2.99195 10.9037 4.32276C10.9037 5.65356 12.0064 6.7324 13.3667 6.7324Z" stroke="white" stroke-miterlimit="10"/>
<path d="M13.0426 6.7324C14.4028 6.7324 15.5055 5.65356 15.5055 4.32276C15.5055 2.99195 14.4028 1.91312 13.0426 1.91312C11.6823 1.91312 10.5796 2.99195 10.5796 4.32276C10.5796 5.65356 11.6823 6.7324 13.0426 6.7324Z" stroke="white" stroke-miterlimit="10"/>
<path d="M12.7185 6.7324C14.0788 6.7324 15.1815 5.65356 15.1815 4.32276C15.1815 2.99195 14.0788 1.91312 12.7185 1.91312C11.3583 1.91312 10.2556 2.99195 10.2556 4.32276C10.2556 5.65356 11.3583 6.7324 12.7185 6.7324Z" stroke="white" stroke-miterlimit="10"/>
<path d="M12.3945 6.7324C13.7547 6.7324 14.8574 5.65356 14.8574 4.32276C14.8574 2.99195 13.7547 1.91312 12.3945 1.91312C11.0342 1.91312 9.93149 2.99195 9.93149 4.32276C9.93149 5.65356 11.0342 6.7324 12.3945 6.7324Z" stroke="white" stroke-miterlimit="10"/>
<path d="M12.0833 6.7324C13.4436 6.7324 14.5463 5.65356 14.5463 4.32276C14.5463 2.99195 13.4436 1.91312 12.0833 1.91312C10.7231 1.91312 9.62036 2.99195 9.62036 4.32276C9.62036 5.65356 10.7231 6.7324 12.0833 6.7324Z" stroke="white" stroke-miterlimit="10"/>
<path d="M11.7593 6.7324C13.1195 6.7324 14.2222 5.65356 14.2222 4.32276C14.2222 2.99195 13.1195 1.91312 11.7593 1.91312C10.399 1.91312 9.2963 2.99195 9.2963 4.32276C9.2963 5.65356 10.399 6.7324 11.7593 6.7324Z" stroke="white" stroke-miterlimit="10"/>
<path d="M11.4352 6.7324C12.7954 6.7324 13.8982 5.65356 13.8982 4.32276C13.8982 2.99195 12.7954 1.91312 11.4352 1.91312C10.0749 1.91312 8.97223 2.99195 8.97223 4.32276C8.97223 5.65356 10.0749 6.7324 11.4352 6.7324Z" stroke="white" stroke-miterlimit="10"/>
<path d="M11.1111 6.7324C12.4714 6.7324 13.5741 5.65356 13.5741 4.32276C13.5741 2.99195 12.4714 1.91312 11.1111 1.91312C9.75087 1.91312 8.64816 2.99195 8.64816 4.32276C8.64816 5.65356 9.75087 6.7324 11.1111 6.7324Z" stroke="white" stroke-miterlimit="10"/>
<path d="M10.787 6.7324C12.1473 6.7324 13.25 5.65356 13.25 4.32276C13.25 2.99195 12.1473 1.91312 10.787 1.91312C9.42677 1.91312 8.32407 2.99195 8.32407 4.32276C8.32407 5.65356 9.42677 6.7324 10.787 6.7324Z" stroke="white" stroke-miterlimit="10"/>
<path d="M10.463 6.7324C11.8232 6.7324 12.9259 5.65356 12.9259 4.32276C12.9259 2.99195 11.8232 1.91312 10.463 1.91312C9.10271 1.91312 8 2.99195 8 4.32276C8 5.65356 9.10271 6.7324 10.463 6.7324Z" stroke="white" stroke-miterlimit="10"/>
<path d="M10.1519 6.7324C11.5121 6.7324 12.6148 5.65356 12.6148 4.32276C12.6148 2.99195 11.5121 1.91312 10.1519 1.91312C8.79161 1.91312 7.6889 2.99195 7.6889 4.32276C7.6889 5.65356 8.79161 6.7324 10.1519 6.7324Z" stroke="white" stroke-miterlimit="10"/>
<path d="M9.82777 6.7324C11.188 6.7324 12.2907 5.65356 12.2907 4.32276C12.2907 2.99195 11.188 1.91312 9.82777 1.91312C8.46751 1.91312 7.36481 2.99195 7.36481 4.32276C7.36481 5.65356 8.46751 6.7324 9.82777 6.7324Z" stroke="white" stroke-miterlimit="10"/>
<path d="M9.5037 6.7324C10.864 6.7324 11.9667 5.65356 11.9667 4.32276C11.9667 2.99195 10.864 1.91312 9.5037 1.91312C8.14345 1.91312 7.04074 2.99195 7.04074 4.32276C7.04074 5.65356 8.14345 6.7324 9.5037 6.7324Z" stroke="white" stroke-miterlimit="10"/>
<path d="M9.17964 6.7324C10.5399 6.7324 11.6426 5.65356 11.6426 4.32276C11.6426 2.99195 10.5399 1.91312 9.17964 1.91312C7.81938 1.91312 6.71667 2.99195 6.71667 4.32276C6.71667 5.65356 7.81938 6.7324 9.17964 6.7324Z" stroke="white" stroke-miterlimit="10"/>
<path d="M8.85554 6.7324C10.2158 6.7324 11.3185 5.65356 11.3185 4.32276C11.3185 2.99195 10.2158 1.91312 8.85554 1.91312C7.49528 1.91312 6.39258 2.99195 6.39258 4.32276C6.39258 5.65356 7.49528 6.7324 8.85554 6.7324Z" stroke="white" stroke-miterlimit="10"/>
<path d="M8.53147 6.7324C9.89173 6.7324 10.9944 5.65356 10.9944 4.32276C10.9944 2.99195 9.89173 1.91312 8.53147 1.91312C7.17122 1.91312 6.06851 2.99195 6.06851 4.32276C6.06851 5.65356 7.17122 6.7324 8.53147 6.7324Z" stroke="white" stroke-miterlimit="10"/>
<path d="M8.22035 6.7324C9.58061 6.7324 10.6833 5.65356 10.6833 4.32276C10.6833 2.99195 9.58061 1.91312 8.22035 1.91312C6.86009 1.91312 5.75739 2.99195 5.75739 4.32276C5.75739 5.65356 6.86009 6.7324 8.22035 6.7324Z" stroke="white" stroke-miterlimit="10"/>
<path d="M7.89628 6.7324C9.25654 6.7324 10.3592 5.65356 10.3592 4.32276C10.3592 2.99195 9.25654 1.91312 7.89628 1.91312C6.53603 1.91312 5.43332 2.99195 5.43332 4.32276C5.43332 5.65356 6.53603 6.7324 7.89628 6.7324Z" stroke="white" stroke-miterlimit="10"/>
<path d="M7.57222 6.7324C8.93247 6.7324 10.0352 5.65356 10.0352 4.32276C10.0352 2.99195 8.93247 1.91312 7.57222 1.91312C6.21196 1.91312 5.10925 2.99195 5.10925 4.32276C5.10925 5.65356 6.21196 6.7324 7.57222 6.7324Z" stroke="white" stroke-miterlimit="10"/>
<path d="M7.24815 6.7324C8.60841 6.7324 9.71111 5.65356 9.71111 4.32276C9.71111 2.99195 8.60841 1.91312 7.24815 1.91312C5.88789 1.91312 4.78519 2.99195 4.78519 4.32276C4.78519 5.65356 5.88789 6.7324 7.24815 6.7324Z" stroke="white" stroke-miterlimit="10"/>
<path d="M6.92408 6.7324C8.28434 6.7324 9.38705 5.65356 9.38705 4.32276C9.38705 2.99195 8.28434 1.91312 6.92408 1.91312C5.56383 1.91312 4.46112 2.99195 4.46112 4.32276C4.46112 5.65356 5.56383 6.7324 6.92408 6.7324Z" stroke="white" stroke-miterlimit="10"/>
<path d="M6.59999 6.7324C7.96024 6.7324 9.06295 5.65356 9.06295 4.32276C9.06295 2.99195 7.96024 1.91312 6.59999 1.91312C5.23973 1.91312 4.13702 2.99195 4.13702 4.32276C4.13702 5.65356 5.23973 6.7324 6.59999 6.7324Z" stroke="white" stroke-miterlimit="10"/>
<path d="M6.28889 6.7324C7.64915 6.7324 8.75185 5.65356 8.75185 4.32276C8.75185 2.99195 7.64915 1.91312 6.28889 1.91312C4.92863 1.91312 3.82593 2.99195 3.82593 4.32276C3.82593 5.65356 4.92863 6.7324 6.28889 6.7324Z" stroke="white" stroke-miterlimit="10"/>
<path d="M5.96482 6.7324C7.32508 6.7324 8.42779 5.65356 8.42779 4.32276C8.42779 2.99195 7.32508 1.91312 5.96482 1.91312C4.60457 1.91312 3.50186 2.99195 3.50186 4.32276C3.50186 5.65356 4.60457 6.7324 5.96482 6.7324Z" stroke="white" stroke-miterlimit="10"/>
<path d="M5.64076 6.7324C7.00102 6.7324 8.10372 5.65356 8.10372 4.32276C8.10372 2.99195 7.00102 1.91312 5.64076 1.91312C4.2805 1.91312 3.1778 2.99195 3.1778 4.32276C3.1778 5.65356 4.2805 6.7324 5.64076 6.7324Z" stroke="white" stroke-miterlimit="10"/>
<path d="M5.31666 6.7324C6.67692 6.7324 7.77962 5.65356 7.77962 4.32276C7.77962 2.99195 6.67692 1.91312 5.31666 1.91312C3.9564 1.91312 2.8537 2.99195 2.8537 4.32276C2.8537 5.65356 3.9564 6.7324 5.31666 6.7324Z" stroke="white" stroke-miterlimit="10"/>
<path d="M4.9926 6.7324C6.35285 6.7324 7.45556 5.65356 7.45556 4.32276C7.45556 2.99195 6.35285 1.91312 4.9926 1.91312C3.63234 1.91312 2.52963 2.99195 2.52963 4.32276C2.52963 5.65356 3.63234 6.7324 4.9926 6.7324Z" stroke="white" stroke-miterlimit="10"/>
<path d="M4.66853 6.7324C6.02879 6.7324 7.13149 5.65356 7.13149 4.32276C7.13149 2.99195 6.02879 1.91312 4.66853 1.91312C3.30827 1.91312 2.20557 2.99195 2.20557 4.32276C2.20557 5.65356 3.30827 6.7324 4.66853 6.7324Z" stroke="white" stroke-miterlimit="10"/>
<path d="M4.3574 6.7324C5.71766 6.7324 6.82037 5.65356 6.82037 4.32276C6.82037 2.99195 5.71766 1.91312 4.3574 1.91312C2.99715 1.91312 1.89444 2.99195 1.89444 4.32276C1.89444 5.65356 2.99715 6.7324 4.3574 6.7324Z" stroke="white" stroke-miterlimit="10"/>
<path d="M4.03334 6.7324C5.39359 6.7324 6.4963 5.65356 6.4963 4.32276C6.4963 2.99195 5.39359 1.91312 4.03334 1.91312C2.67308 1.91312 1.57037 2.99195 1.57037 4.32276C1.57037 5.65356 2.67308 6.7324 4.03334 6.7324Z" stroke="white" stroke-miterlimit="10"/>
<path d="M3.70927 6.68167C5.06953 6.68167 6.17223 5.60284 6.17223 4.27204C6.17223 2.94123 5.06953 1.8624 3.70927 1.8624C2.34901 1.8624 1.24631 2.94123 1.24631 4.27204C1.24631 5.60284 2.34901 6.68167 3.70927 6.68167Z" stroke="white" stroke-miterlimit="10"/>
<path d="M3.48887 6.4661C4.84913 6.4661 5.95184 5.38727 5.95184 4.05646C5.95184 2.72565 4.84913 1.64682 3.48887 1.64682C2.12862 1.64682 1.02591 2.72565 1.02591 4.05646C1.02591 5.38727 2.12862 6.4661 3.48887 6.4661Z" stroke="white" stroke-miterlimit="10"/>
<path d="M3.46296 6.16169C4.82322 6.16169 5.92593 5.08285 5.92593 3.75205C5.92593 2.42124 4.82322 1.34241 3.46296 1.34241C2.10271 1.34241 1 2.42124 1 3.75205C1 5.08285 2.10271 6.16169 3.46296 6.16169Z" stroke="white" stroke-miterlimit="10"/>
<path d="M3.63148 5.90805C4.99174 5.90805 6.09444 4.82922 6.09444 3.49841C6.09444 2.16761 4.99174 1.08878 3.63148 1.08878C2.27122 1.08878 1.16852 2.16761 1.16852 3.49841C1.16852 4.82922 2.27122 5.90805 3.63148 5.90805Z" stroke="white" stroke-miterlimit="10"/>
<path d="M3.94261 5.81928C5.30286 5.81928 6.40557 4.74045 6.40557 3.40964C6.40557 2.07883 5.30286 1 3.94261 1C2.58235 1 1.47964 2.07883 1.47964 3.40964C1.47964 4.74045 2.58235 5.81928 3.94261 5.81928Z" stroke="white" stroke-miterlimit="10"/>
<path d="M4.2537 5.81928C5.61396 5.81928 6.71667 4.74045 6.71667 3.40964C6.71667 2.07883 5.61396 1 4.2537 1C2.89345 1 1.79074 2.07883 1.79074 3.40964C1.79074 4.74045 2.89345 5.81928 4.2537 5.81928Z" stroke="white" stroke-miterlimit="10"/>
<path d="M4.57777 5.81928C5.93803 5.81928 7.04073 4.74045 7.04073 3.40964C7.04073 2.07883 5.93803 1 4.57777 1C3.21751 1 2.11481 2.07883 2.11481 3.40964C2.11481 4.74045 3.21751 5.81928 4.57777 5.81928Z" stroke="white" stroke-miterlimit="10"/>
<path d="M4.90187 5.81928C6.26212 5.81928 7.36483 4.74045 7.36483 3.40964C7.36483 2.07883 6.26212 1 4.90187 1C3.54161 1 2.4389 2.07883 2.4389 3.40964C2.4389 4.74045 3.54161 5.81928 4.90187 5.81928Z" stroke="white" stroke-miterlimit="10"/>
<path d="M5.2259 5.81928C6.58616 5.81928 7.68887 4.74045 7.68887 3.40964C7.68887 2.07883 6.58616 1 5.2259 1C3.86565 1 2.76294 2.07883 2.76294 3.40964C2.76294 4.74045 3.86565 5.81928 5.2259 5.81928Z" stroke="white" stroke-miterlimit="10"/>
<path d="M5.55 5.81928C6.91026 5.81928 8.01296 4.74045 8.01296 3.40964C8.01296 2.07883 6.91026 1 5.55 1C4.18974 1 3.08704 2.07883 3.08704 3.40964C3.08704 4.74045 4.18974 5.81928 5.55 5.81928Z" stroke="white" stroke-miterlimit="10"/>
<path d="M5.87406 5.81928C7.23432 5.81928 8.33703 4.74045 8.33703 3.40964C8.33703 2.07883 7.23432 1 5.87406 1C4.51381 1 3.4111 2.07883 3.4111 3.40964C3.4111 4.74045 4.51381 5.81928 5.87406 5.81928Z" stroke="white" stroke-miterlimit="10"/>
<path d="M6.18519 5.81928C7.54545 5.81928 8.64815 4.74045 8.64815 3.40964C8.64815 2.07883 7.54545 1 6.18519 1C4.82494 1 3.72223 2.07883 3.72223 3.40964C3.72223 4.74045 4.82494 5.81928 6.18519 5.81928Z" stroke="white" stroke-miterlimit="10"/>
<path d="M6.50926 5.81928C7.86951 5.81928 8.97222 4.74045 8.97222 3.40964C8.97222 2.07883 7.86951 1 6.50926 1C5.149 1 4.0463 2.07883 4.0463 3.40964C4.0463 4.74045 5.149 5.81928 6.50926 5.81928Z" stroke="white" stroke-miterlimit="10"/>
<path d="M6.83332 5.81928C8.19358 5.81928 9.29629 4.74045 9.29629 3.40964C9.29629 2.07883 8.19358 1 6.83332 1C5.47307 1 4.37036 2.07883 4.37036 3.40964C4.37036 4.74045 5.47307 5.81928 6.83332 5.81928Z" stroke="white" stroke-miterlimit="10"/>
<path d="M7.15742 5.81928C8.51768 5.81928 9.62038 4.74045 9.62038 3.40964C9.62038 2.07883 8.51768 1 7.15742 1C5.79716 1 4.69446 2.07883 4.69446 3.40964C4.69446 4.74045 5.79716 5.81928 7.15742 5.81928Z" stroke="white" stroke-miterlimit="10"/>
<path d="M7.48149 5.81928C8.84174 5.81928 9.94445 4.74045 9.94445 3.40964C9.94445 2.07883 8.84174 1 7.48149 1C6.12123 1 5.01852 2.07883 5.01852 3.40964C5.01852 4.74045 6.12123 5.81928 7.48149 5.81928Z" stroke="white" stroke-miterlimit="10"/>
<path d="M7.80555 5.81928C9.16581 5.81928 10.2685 4.74045 10.2685 3.40964C10.2685 2.07883 9.16581 1 7.80555 1C6.4453 1 5.34259 2.07883 5.34259 3.40964C5.34259 4.74045 6.4453 5.81928 7.80555 5.81928Z" stroke="white" stroke-miterlimit="10"/>
<path d="M8.11668 5.81928C9.47694 5.81928 10.5796 4.74045 10.5796 3.40964C10.5796 2.07883 9.47694 1 8.11668 1C6.75642 1 5.65372 2.07883 5.65372 3.40964C5.65372 4.74045 6.75642 5.81928 8.11668 5.81928Z" stroke="white" stroke-miterlimit="10"/>
<path d="M8.44075 5.81928C9.801 5.81928 10.9037 4.74045 10.9037 3.40964C10.9037 2.07883 9.801 1 8.44075 1C7.08049 1 5.97778 2.07883 5.97778 3.40964C5.97778 4.74045 7.08049 5.81928 8.44075 5.81928Z" stroke="white" stroke-miterlimit="10"/>
<path d="M8.76481 5.81928C10.1251 5.81928 11.2278 4.74045 11.2278 3.40964C11.2278 2.07883 10.1251 1 8.76481 1C7.40456 1 6.30185 2.07883 6.30185 3.40964C6.30185 4.74045 7.40456 5.81928 8.76481 5.81928Z" stroke="white" stroke-miterlimit="10"/>
<path d="M9.08888 5.81928C10.4491 5.81928 11.5518 4.74045 11.5518 3.40964C11.5518 2.07883 10.4491 1 9.08888 1C7.72862 1 6.62592 2.07883 6.62592 3.40964C6.62592 4.74045 7.72862 5.81928 9.08888 5.81928Z" stroke="white" stroke-miterlimit="10"/>
<path d="M9.41298 5.81928C10.7732 5.81928 11.8759 4.74045 11.8759 3.40964C11.8759 2.07883 10.7732 1 9.41298 1C8.05272 1 6.95001 2.07883 6.95001 3.40964C6.95001 4.74045 8.05272 5.81928 9.41298 5.81928Z" stroke="white" stroke-miterlimit="10"/>
<path d="M9.73704 5.81928C11.0973 5.81928 12.2 4.74045 12.2 3.40964C12.2 2.07883 11.0973 1 9.73704 1C8.37678 1 7.27408 2.07883 7.27408 3.40964C7.27408 4.74045 8.37678 5.81928 9.73704 5.81928Z" stroke="white" stroke-miterlimit="10"/>
<path d="M10.0482 5.81928C11.4084 5.81928 12.5111 4.74045 12.5111 3.40964C12.5111 2.07883 11.4084 1 10.0482 1C8.68791 1 7.58521 2.07883 7.58521 3.40964C7.58521 4.74045 8.68791 5.81928 10.0482 5.81928Z" stroke="white" stroke-miterlimit="10"/>
<path d="M10.3722 5.81928C11.7325 5.81928 12.8352 4.74045 12.8352 3.40964C12.8352 2.07883 11.7325 1 10.3722 1C9.01198 1 7.90927 2.07883 7.90927 3.40964C7.90927 4.74045 9.01198 5.81928 10.3722 5.81928Z" stroke="white" stroke-miterlimit="10"/>
<path d="M10.6963 5.81928C12.0566 5.81928 13.1593 4.74045 13.1593 3.40964C13.1593 2.07883 12.0566 1 10.6963 1C9.33604 1 8.23334 2.07883 8.23334 3.40964C8.23334 4.74045 9.33604 5.81928 10.6963 5.81928Z" stroke="white" stroke-miterlimit="10"/>
<path d="M11.0204 5.81928C12.3806 5.81928 13.4833 4.74045 13.4833 3.40964C13.4833 2.07883 12.3806 1 11.0204 1C9.66011 1 8.5574 2.07883 8.5574 3.40964C8.5574 4.74045 9.66011 5.81928 11.0204 5.81928Z" stroke="white" stroke-miterlimit="10"/>
<path d="M11.3445 5.81928C12.7047 5.81928 13.8074 4.74045 13.8074 3.40964C13.8074 2.07883 12.7047 1 11.3445 1C9.98421 1 8.8815 2.07883 8.8815 3.40964C8.8815 4.74045 9.98421 5.81928 11.3445 5.81928Z" stroke="white" stroke-miterlimit="10"/>
<path d="M11.6685 5.81928C13.0288 5.81928 14.1315 4.74045 14.1315 3.40964C14.1315 2.07883 13.0288 1 11.6685 1C10.3083 1 9.20557 2.07883 9.20557 3.40964C9.20557 4.74045 10.3083 5.81928 11.6685 5.81928Z" stroke="white" stroke-miterlimit="10"/>
<path d="M11.9796 5.81928C13.3399 5.81928 14.4426 4.74045 14.4426 3.40964C14.4426 2.07883 13.3399 1 11.9796 1C10.6194 1 9.51666 2.07883 9.51666 3.40964C9.51666 4.74045 10.6194 5.81928 11.9796 5.81928Z" stroke="white" stroke-miterlimit="10"/>
<path d="M12.3037 5.81928C13.6639 5.81928 14.7667 4.74045 14.7667 3.40964C14.7667 2.07883 13.6639 1 12.3037 1C10.9434 1 9.84073 2.07883 9.84073 3.40964C9.84073 4.74045 10.9434 5.81928 12.3037 5.81928Z" stroke="white" stroke-miterlimit="10"/>
<path d="M12.6278 5.81928C13.988 5.81928 15.0907 4.74045 15.0907 3.40964C15.0907 2.07883 13.988 1 12.6278 1C11.2675 1 10.1648 2.07883 10.1648 3.40964C10.1648 4.74045 11.2675 5.81928 12.6278 5.81928Z" stroke="white" stroke-miterlimit="10"/>
<path d="M12.9519 5.81928C14.3121 5.81928 15.4148 4.74045 15.4148 3.40964C15.4148 2.07883 14.3121 1 12.9519 1C11.5916 1 10.4889 2.07883 10.4889 3.40964C10.4889 4.74045 11.5916 5.81928 12.9519 5.81928Z" stroke="white" stroke-miterlimit="10"/>
<path d="M13.2759 5.81928C14.6362 5.81928 15.7389 4.74045 15.7389 3.40964C15.7389 2.07883 14.6362 1 13.2759 1C11.9157 1 10.813 2.07883 10.813 3.40964C10.813 4.74045 11.9157 5.81928 13.2759 5.81928Z" stroke="white" stroke-miterlimit="10"/>
<path d="M13.6 5.81928C14.9602 5.81928 16.0629 4.74045 16.0629 3.40964C16.0629 2.07883 14.9602 1 13.6 1C12.2397 1 11.137 2.07883 11.137 3.40964C11.137 4.74045 12.2397 5.81928 13.6 5.81928Z" stroke="white" stroke-miterlimit="10"/>
<path d="M13.9111 5.81928C15.2714 5.81928 16.3741 4.74045 16.3741 3.40964C16.3741 2.07883 15.2714 1 13.9111 1C12.5509 1 11.4482 2.07883 11.4482 3.40964C11.4482 4.74045 12.5509 5.81928 13.9111 5.81928Z" stroke="white" stroke-miterlimit="10"/>
<path d="M14.2352 5.81928C15.5954 5.81928 16.6981 4.74045 16.6981 3.40964C16.6981 2.07883 15.5954 1 14.2352 1C12.8749 1 11.7722 2.07883 11.7722 3.40964C11.7722 4.74045 12.8749 5.81928 14.2352 5.81928Z" stroke="white" stroke-miterlimit="10"/>
<path d="M14.5592 5.81928C15.9195 5.81928 17.0222 4.74045 17.0222 3.40964C17.0222 2.07883 15.9195 1 14.5592 1C13.199 1 12.0963 2.07883 12.0963 3.40964C12.0963 4.74045 13.199 5.81928 14.5592 5.81928Z" stroke="white" stroke-miterlimit="10"/>
<path d="M14.8833 5.81928C16.2436 5.81928 17.3463 4.74045 17.3463 3.40964C17.3463 2.07883 16.2436 1 14.8833 1C13.5231 1 12.4204 2.07883 12.4204 3.40964C12.4204 4.74045 13.5231 5.81928 14.8833 5.81928Z" stroke="white" stroke-miterlimit="10"/>
<path d="M15.2074 5.81928C16.5677 5.81928 17.6704 4.74045 17.6704 3.40964C17.6704 2.07883 16.5677 1 15.2074 1C13.8472 1 12.7444 2.07883 12.7444 3.40964C12.7444 4.74045 13.8472 5.81928 15.2074 5.81928Z" stroke="white" stroke-miterlimit="10"/>
<path d="M15.5315 5.81928C16.8917 5.81928 17.9944 4.74045 17.9944 3.40964C17.9944 2.07883 16.8917 1 15.5315 1C14.1712 1 13.0685 2.07883 13.0685 3.40964C13.0685 4.74045 14.1712 5.81928 15.5315 5.81928Z" stroke="white" stroke-miterlimit="10"/>
<path d="M15.8426 5.81928C17.2029 5.81928 18.3056 4.74045 18.3056 3.40964C18.3056 2.07883 17.2029 1 15.8426 1C14.4823 1 13.3796 2.07883 13.3796 3.40964C13.3796 4.74045 14.4823 5.81928 15.8426 5.81928Z" stroke="white" stroke-miterlimit="10"/>
<path d="M16.1667 5.81928C17.5269 5.81928 18.6296 4.74045 18.6296 3.40964C18.6296 2.07883 17.5269 1 16.1667 1C14.8064 1 13.7037 2.07883 13.7037 3.40964C13.7037 4.74045 14.8064 5.81928 16.1667 5.81928Z" stroke="white" stroke-miterlimit="10"/>
<path d="M16.4908 5.81928C17.851 5.81928 18.9537 4.74045 18.9537 3.40964C18.9537 2.07883 17.851 1 16.4908 1C15.1305 1 14.0278 2.07883 14.0278 3.40964C14.0278 4.74045 15.1305 5.81928 16.4908 5.81928Z" stroke="white" stroke-miterlimit="10"/>
<path d="M16.8148 5.81928C18.1751 5.81928 19.2778 4.74045 19.2778 3.40964C19.2778 2.07883 18.1751 1 16.8148 1C15.4545 1 14.3518 2.07883 14.3518 3.40964C14.3518 4.74045 15.4545 5.81928 16.8148 5.81928Z" stroke="white" stroke-miterlimit="10"/>
<path d="M17.1389 5.81928C18.4992 5.81928 19.6019 4.74045 19.6019 3.40964C19.6019 2.07883 18.4992 1 17.1389 1C15.7786 1 14.6759 2.07883 14.6759 3.40964C14.6759 4.74045 15.7786 5.81928 17.1389 5.81928Z" stroke="white" stroke-miterlimit="10"/>
<path d="M17.463 5.81928C18.8232 5.81928 19.9259 4.74045 19.9259 3.40964C19.9259 2.07883 18.8232 1 17.463 1C16.1027 1 15 2.07883 15 3.40964C15 4.74045 16.1027 5.81928 17.463 5.81928Z" stroke="white" stroke-miterlimit="10"/>
<path d="M17.7741 5.81928C19.1343 5.81928 20.237 4.74045 20.237 3.40964C20.237 2.07883 19.1343 1 17.7741 1C16.4138 1 15.3111 2.07883 15.3111 3.40964C15.3111 4.74045 16.4138 5.81928 17.7741 5.81928Z" stroke="white" stroke-miterlimit="10"/>
<path d="M18.0982 5.81928C19.4584 5.81928 20.5611 4.74045 20.5611 3.40964C20.5611 2.07883 19.4584 1 18.0982 1C16.7379 1 15.6352 2.07883 15.6352 3.40964C15.6352 4.74045 16.7379 5.81928 18.0982 5.81928Z" stroke="white" stroke-miterlimit="10"/>
<path d="M18.4222 5.81928C19.7825 5.81928 20.8852 4.74045 20.8852 3.40964C20.8852 2.07883 19.7825 1 18.4222 1C17.062 1 15.9593 2.07883 15.9593 3.40964C15.9593 4.74045 17.062 5.81928 18.4222 5.81928Z" stroke="white" stroke-miterlimit="10"/>
<path d="M18.7463 5.81928C20.1065 5.81928 21.2092 4.74045 21.2092 3.40964C21.2092 2.07883 20.1065 1 18.7463 1C17.386 1 16.2833 2.07883 16.2833 3.40964C16.2833 4.74045 17.386 5.81928 18.7463 5.81928Z" stroke="white" stroke-miterlimit="10"/>
<path d="M19.0704 5.81928C20.4306 5.81928 21.5333 4.74045 21.5333 3.40964C21.5333 2.07883 20.4306 1 19.0704 1C17.7101 1 16.6074 2.07883 16.6074 3.40964C16.6074 4.74045 17.7101 5.81928 19.0704 5.81928Z" stroke="white" stroke-miterlimit="10"/>
<path d="M11.9537 20.5435C13.3139 20.5435 14.4166 19.4646 14.4166 18.1338C14.4166 16.803 13.3139 15.7242 11.9537 15.7242C10.5934 15.7242 9.49072 16.803 9.49072 18.1338C9.49072 19.4646 10.5934 20.5435 11.9537 20.5435Z" stroke="white" stroke-miterlimit="10"/>
<path d="M11.9537 20.2771C13.3139 20.2771 14.4166 19.1983 14.4166 17.8675C14.4166 16.5367 13.3139 15.4578 11.9537 15.4578C10.5934 15.4578 9.49072 16.5367 9.49072 17.8675C9.49072 19.1983 10.5934 20.2771 11.9537 20.2771Z" stroke="white" stroke-miterlimit="10"/>
<path d="M11.9537 20.0108C13.3139 20.0108 14.4166 18.9319 14.4166 17.6011C14.4166 16.2703 13.3139 15.1915 11.9537 15.1915C10.5934 15.1915 9.49072 16.2703 9.49072 17.6011C9.49072 18.9319 10.5934 20.0108 11.9537 20.0108Z" stroke="white" stroke-miterlimit="10"/>
<path d="M11.9537 19.7444C13.3139 19.7444 14.4166 18.6656 14.4166 17.3348C14.4166 16.004 13.3139 14.9252 11.9537 14.9252C10.5934 14.9252 9.49072 16.004 9.49072 17.3348C9.49072 18.6656 10.5934 19.7444 11.9537 19.7444Z" stroke="white" stroke-miterlimit="10"/>
<path d="M11.9537 19.4781C13.3139 19.4781 14.4166 18.3993 14.4166 17.0685C14.4166 15.7377 13.3139 14.6588 11.9537 14.6588C10.5934 14.6588 9.49072 15.7377 9.49072 17.0685C9.49072 18.3993 10.5934 19.4781 11.9537 19.4781Z" stroke="white" stroke-miterlimit="10"/>
<path d="M11.9537 19.2245C13.3139 19.2245 14.4166 18.1456 14.4166 16.8148C14.4166 15.484 13.3139 14.4052 11.9537 14.4052C10.5934 14.4052 9.49072 15.484 9.49072 16.8148C9.49072 18.1456 10.5934 19.2245 11.9537 19.2245Z" stroke="white" stroke-miterlimit="10"/>
<path d="M11.9537 18.9582C13.3139 18.9582 14.4166 17.8793 14.4166 16.5485C14.4166 15.2177 13.3139 14.1389 11.9537 14.1389C10.5934 14.1389 9.49072 15.2177 9.49072 16.5485C9.49072 17.8793 10.5934 18.9582 11.9537 18.9582Z" stroke="white" stroke-miterlimit="10"/>
<path d="M11.9537 18.6918C13.3139 18.6918 14.4166 17.613 14.4166 16.2822C14.4166 14.9514 13.3139 13.8726 11.9537 13.8726C10.5934 13.8726 9.49072 14.9514 9.49072 16.2822C9.49072 17.613 10.5934 18.6918 11.9537 18.6918Z" stroke="white" stroke-miterlimit="10"/>
<path d="M11.9537 18.4255C13.3139 18.4255 14.4166 17.3466 14.4166 16.0158C14.4166 14.685 13.3139 13.6062 11.9537 13.6062C10.5934 13.6062 9.49072 14.685 9.49072 16.0158C9.49072 17.3466 10.5934 18.4255 11.9537 18.4255Z" stroke="white" stroke-miterlimit="10"/>
<path d="M11.9537 18.1718C13.3139 18.1718 14.4166 17.093 14.4166 15.7622C14.4166 14.4314 13.3139 13.3526 11.9537 13.3526C10.5934 13.3526 9.49072 14.4314 9.49072 15.7622C9.49072 17.093 10.5934 18.1718 11.9537 18.1718Z" stroke="white" stroke-miterlimit="10"/>
<path d="M11.9537 17.9055C13.3139 17.9055 14.4166 16.8267 14.4166 15.4959C14.4166 14.1651 13.3139 13.0862 11.9537 13.0862C10.5934 13.0862 9.49072 14.1651 9.49072 15.4959C9.49072 16.8267 10.5934 17.9055 11.9537 17.9055Z" stroke="white" stroke-miterlimit="10"/>
<path d="M11.9537 17.6392C13.3139 17.6392 14.4166 16.5603 14.4166 15.2295C14.4166 13.8987 13.3139 12.8199 11.9537 12.8199C10.5934 12.8199 9.49072 13.8987 9.49072 15.2295C9.49072 16.5603 10.5934 17.6392 11.9537 17.6392Z" stroke="white" stroke-miterlimit="10"/>
<path d="M11.9537 17.3728C13.3139 17.3728 14.4166 16.294 14.4166 14.9632C14.4166 13.6324 13.3139 12.5536 11.9537 12.5536C10.5934 12.5536 9.49072 13.6324 9.49072 14.9632C9.49072 16.294 10.5934 17.3728 11.9537 17.3728Z" stroke="white" stroke-miterlimit="10"/>
<path d="M11.9537 17.1192C13.3139 17.1192 14.4166 16.0404 14.4166 14.7096C14.4166 13.3788 13.3139 12.2999 11.9537 12.2999C10.5934 12.2999 9.49072 13.3788 9.49072 14.7096C9.49072 16.0404 10.5934 17.1192 11.9537 17.1192Z" stroke="white" stroke-miterlimit="10"/>
<path d="M11.9537 16.8529C13.3139 16.8529 14.4166 15.774 14.4166 14.4432C14.4166 13.1124 13.3139 12.0336 11.9537 12.0336C10.5934 12.0336 9.49072 13.1124 9.49072 14.4432C9.49072 15.774 10.5934 16.8529 11.9537 16.8529Z" stroke="white" stroke-miterlimit="10"/>
<path d="M11.9537 16.5866C13.3139 16.5866 14.4166 15.5077 14.4166 14.1769C14.4166 12.8461 13.3139 11.7673 11.9537 11.7673C10.5934 11.7673 9.49072 12.8461 9.49072 14.1769C9.49072 15.5077 10.5934 16.5866 11.9537 16.5866Z" stroke="white" stroke-miterlimit="10"/>
<path d="M11.9537 16.3202C13.3139 16.3202 14.4166 15.2414 14.4166 13.9106C14.4166 12.5798 13.3139 11.5009 11.9537 11.5009C10.5934 11.5009 9.49072 12.5798 9.49072 13.9106C9.49072 15.2414 10.5934 16.3202 11.9537 16.3202Z" stroke="white" stroke-miterlimit="10"/>
<path d="M11.9537 16.0539C13.3139 16.0539 14.4166 14.9751 14.4166 13.6443C14.4166 12.3135 13.3139 11.2346 11.9537 11.2346C10.5934 11.2346 9.49072 12.3135 9.49072 13.6443C9.49072 14.9751 10.5934 16.0539 11.9537 16.0539Z" stroke="white" stroke-miterlimit="10"/>
<path d="M11.9537 15.8002C13.3139 15.8002 14.4166 14.7214 14.4166 13.3906C14.4166 12.0598 13.3139 10.981 11.9537 10.981C10.5934 10.981 9.49072 12.0598 9.49072 13.3906C9.49072 14.7214 10.5934 15.8002 11.9537 15.8002Z" stroke="white" stroke-miterlimit="10"/>
<path d="M11.9537 15.5339C13.3139 15.5339 14.4166 14.4551 14.4166 13.1243C14.4166 11.7935 13.3139 10.7146 11.9537 10.7146C10.5934 10.7146 9.49072 11.7935 9.49072 13.1243C9.49072 14.4551 10.5934 15.5339 11.9537 15.5339Z" stroke="white" stroke-miterlimit="10"/>
<path d="M11.9537 15.2676C13.3139 15.2676 14.4166 14.1887 14.4166 12.8579C14.4166 11.5271 13.3139 10.4483 11.9537 10.4483C10.5934 10.4483 9.49072 11.5271 9.49072 12.8579C9.49072 14.1887 10.5934 15.2676 11.9537 15.2676Z" stroke="white" stroke-miterlimit="10"/>
<path d="M11.9537 15.0013C13.3139 15.0013 14.4166 13.9224 14.4166 12.5916C14.4166 11.2608 13.3139 10.182 11.9537 10.182C10.5934 10.182 9.49072 11.2608 9.49072 12.5916C9.49072 13.9224 10.5934 15.0013 11.9537 15.0013Z" stroke="white" stroke-miterlimit="10"/>
<path d="M11.9537 14.7476C13.3139 14.7476 14.4166 13.6688 14.4166 12.338C14.4166 11.0072 13.3139 9.92834 11.9537 9.92834C10.5934 9.92834 9.49072 11.0072 9.49072 12.338C9.49072 13.6688 10.5934 14.7476 11.9537 14.7476Z" stroke="white" stroke-miterlimit="10"/>
<path d="M11.9537 14.4813C13.3139 14.4813 14.4166 13.4025 14.4166 12.0717C14.4166 10.7409 13.3139 9.66202 11.9537 9.66202C10.5934 9.66202 9.49072 10.7409 9.49072 12.0717C9.49072 13.4025 10.5934 14.4813 11.9537 14.4813Z" stroke="white" stroke-miterlimit="10"/>
<path d="M11.9537 14.215C13.3139 14.215 14.4166 13.1361 14.4166 11.8053C14.4166 10.4745 13.3139 9.39569 11.9537 9.39569C10.5934 9.39569 9.49072 10.4745 9.49072 11.8053C9.49072 13.1361 10.5934 14.215 11.9537 14.215Z" stroke="white" stroke-miterlimit="10"/>
<path d="M11.9537 13.9486C13.3139 13.9486 14.4166 12.8698 14.4166 11.539C14.4166 10.2082 13.3139 9.12936 11.9537 9.12936C10.5934 9.12936 9.49072 10.2082 9.49072 11.539C9.49072 12.8698 10.5934 13.9486 11.9537 13.9486Z" stroke="white" stroke-miterlimit="10"/>
<path d="M11.9537 13.695C13.3139 13.695 14.4166 12.6161 14.4166 11.2853C14.4166 9.95453 13.3139 8.8757 11.9537 8.8757C10.5934 8.8757 9.49072 9.95453 9.49072 11.2853C9.49072 12.6161 10.5934 13.695 11.9537 13.695Z" stroke="white" stroke-miterlimit="10"/>
<path d="M11.9537 13.4287C13.3139 13.4287 14.4166 12.3498 14.4166 11.019C14.4166 9.68821 13.3139 8.60938 11.9537 8.60938C10.5934 8.60938 9.49072 9.68821 9.49072 11.019C9.49072 12.3498 10.5934 13.4287 11.9537 13.4287Z" stroke="white" stroke-miterlimit="10"/>
<path d="M11.9537 13.1623C13.3139 13.1623 14.4166 12.0835 14.4166 10.7527C14.4166 9.42188 13.3139 8.34305 11.9537 8.34305C10.5934 8.34305 9.49072 9.42188 9.49072 10.7527C9.49072 12.0835 10.5934 13.1623 11.9537 13.1623Z" stroke="white" stroke-miterlimit="10"/>
<path d="M11.9537 12.896C13.3139 12.896 14.4166 11.8172 14.4166 10.4864C14.4166 9.15555 13.3139 8.07672 11.9537 8.07672C10.5934 8.07672 9.49072 9.15555 9.49072 10.4864C9.49072 11.8172 10.5934 12.896 11.9537 12.896Z" stroke="white" stroke-miterlimit="10"/>
<path d="M11.9537 12.6424C13.3139 12.6424 14.4166 11.5635 14.4166 10.2327C14.4166 8.90192 13.3139 7.82309 11.9537 7.82309C10.5934 7.82309 9.49072 8.90192 9.49072 10.2327C9.49072 11.5635 10.5934 12.6424 11.9537 12.6424Z" stroke="white" stroke-miterlimit="10"/>
<path d="M11.9537 12.376C13.3139 12.376 14.4166 11.2972 14.4166 9.9664C14.4166 8.6356 13.3139 7.55676 11.9537 7.55676C10.5934 7.55676 9.49072 8.6356 9.49072 9.9664C9.49072 11.2972 10.5934 12.376 11.9537 12.376Z" stroke="white" stroke-miterlimit="10"/>
<path d="M11.9537 12.1097C13.3139 12.1097 14.4166 11.0309 14.4166 9.70008C14.4166 8.36927 13.3139 7.29044 11.9537 7.29044C10.5934 7.29044 9.49072 8.36927 9.49072 9.70008C9.49072 11.0309 10.5934 12.1097 11.9537 12.1097Z" stroke="white" stroke-miterlimit="10"/>
<path d="M11.9537 11.8434C13.3139 11.8434 14.4166 10.7646 14.4166 9.43375C14.4166 8.10294 13.3139 7.02411 11.9537 7.02411C10.5934 7.02411 9.49072 8.10294 9.49072 9.43375C9.49072 10.7646 10.5934 11.8434 11.9537 11.8434Z" stroke="white" stroke-miterlimit="10"/>
<path d="M11.9537 11.577C13.3139 11.577 14.4166 10.4982 14.4166 9.16739C14.4166 7.83658 13.3139 6.75775 11.9537 6.75775C10.5934 6.75775 9.49072 7.83658 9.49072 9.16739C9.49072 10.4982 10.5934 11.577 11.9537 11.577Z" stroke="white" stroke-miterlimit="10"/>
<path d="M11.9537 11.3234C13.3139 11.3234 14.4166 10.2445 14.4166 8.91373C14.4166 7.58292 13.3139 6.50409 11.9537 6.50409C10.5934 6.50409 9.49072 7.58292 9.49072 8.91373C9.49072 10.2445 10.5934 11.3234 11.9537 11.3234Z" stroke="white" stroke-miterlimit="10"/>
<path d="M11.9537 11.057C13.3139 11.057 14.4166 9.97821 14.4166 8.6474C14.4166 7.31659 13.3139 6.23776 11.9537 6.23776C10.5934 6.23776 9.49072 7.31659 9.49072 8.6474C9.49072 9.97821 10.5934 11.057 11.9537 11.057Z" stroke="white" stroke-miterlimit="10"/>
<path d="M11.9537 10.7907C13.3139 10.7907 14.4166 9.71191 14.4166 8.38111C14.4166 7.0503 13.3139 5.97147 11.9537 5.97147C10.5934 5.97147 9.49072 7.0503 9.49072 8.38111C9.49072 9.71191 10.5934 10.7907 11.9537 10.7907Z" stroke="white" stroke-miterlimit="10"/>
<path d="M11.9537 10.5244C13.3139 10.5244 14.4166 9.44559 14.4166 8.11478C14.4166 6.78397 13.3139 5.70514 11.9537 5.70514C10.5934 5.70514 9.49072 6.78397 9.49072 8.11478C9.49072 9.44559 10.5934 10.5244 11.9537 10.5244Z" stroke="white" stroke-miterlimit="10"/>
<path d="M11.9537 10.2708C13.3139 10.2708 14.4166 9.19195 14.4166 7.86115C14.4166 6.53034 13.3139 5.45151 11.9537 5.45151C10.5934 5.45151 9.49072 6.53034 9.49072 7.86115C9.49072 9.19195 10.5934 10.2708 11.9537 10.2708Z" stroke="white" stroke-miterlimit="10"/>
<path d="M11.9537 10.0045C13.3139 10.0045 14.4166 8.92563 14.4166 7.59482C14.4166 6.26401 13.3139 5.18518 11.9537 5.18518C10.5934 5.18518 9.49072 6.26401 9.49072 7.59482C9.49072 8.92563 10.5934 10.0045 11.9537 10.0045Z" stroke="white" stroke-miterlimit="10"/>
<path d="M11.9537 9.7381C13.3139 9.7381 14.4166 8.65927 14.4166 7.32846C14.4166 5.99766 13.3139 4.91882 11.9537 4.91882C10.5934 4.91882 9.49072 5.99766 9.49072 7.32846C9.49072 8.65927 10.5934 9.7381 11.9537 9.7381Z" stroke="white" stroke-miterlimit="10"/>
<path d="M11.9537 9.47178C13.3139 9.47178 14.4166 8.39294 14.4166 7.06214C14.4166 5.73133 13.3139 4.6525 11.9537 4.6525C10.5934 4.6525 9.49072 5.73133 9.49072 7.06214C9.49072 8.39294 10.5934 9.47178 11.9537 9.47178Z" stroke="white" stroke-miterlimit="10"/>
<path d="M11.9537 9.21811C13.3139 9.21811 14.4166 8.13928 14.4166 6.80847C14.4166 5.47767 13.3139 4.39883 11.9537 4.39883C10.5934 4.39883 9.49072 5.47767 9.49072 6.80847C9.49072 8.13928 10.5934 9.21811 11.9537 9.21811Z" stroke="white" stroke-miterlimit="10"/>
<path d="M11.9537 8.95179C13.3139 8.95179 14.4166 7.87295 14.4166 6.54215C14.4166 5.21134 13.3139 4.13251 11.9537 4.13251C10.5934 4.13251 9.49072 5.21134 9.49072 6.54215C9.49072 7.87295 10.5934 8.95179 11.9537 8.95179Z" stroke="white" stroke-miterlimit="10"/>
<path d="M11.9537 8.68549C13.3139 8.68549 14.4166 7.60666 14.4166 6.27585C14.4166 4.94504 13.3139 3.86621 11.9537 3.86621C10.5934 3.86621 9.49072 4.94504 9.49072 6.27585C9.49072 7.60666 10.5934 8.68549 11.9537 8.68549Z" stroke="white" stroke-miterlimit="10"/>
<path d="M11.9537 8.41916C13.3139 8.41916 14.4166 7.34033 14.4166 6.00952C14.4166 4.67872 13.3139 3.59988 11.9537 3.59988C10.5934 3.59988 9.49072 4.67872 9.49072 6.00952C9.49072 7.34033 10.5934 8.41916 11.9537 8.41916Z" stroke="white" stroke-miterlimit="10"/>
<path d="M11.9278 8.15281C13.288 8.15281 14.3907 7.07397 14.3907 5.74317C14.3907 4.41236 13.288 3.33353 11.9278 3.33353C10.5675 3.33353 9.46481 4.41236 9.46481 5.74317C9.46481 7.07397 10.5675 8.15281 11.9278 8.15281Z" stroke="white" stroke-miterlimit="10"/>
<path d="M11.7722 7.94989C13.1325 7.94989 14.2352 6.87106 14.2352 5.54025C14.2352 4.20945 13.1325 3.13062 11.7722 3.13062C10.4119 3.13062 9.30923 4.20945 9.30923 5.54025C9.30923 6.87106 10.4119 7.94989 11.7722 7.94989Z" stroke="white" stroke-miterlimit="10"/>
<path d="M11.5259 7.86112C12.8862 7.86112 13.9889 6.78229 13.9889 5.45148C13.9889 4.12067 12.8862 3.04184 11.5259 3.04184C10.1657 3.04184 9.06296 4.12067 9.06296 5.45148C9.06296 6.78229 10.1657 7.86112 11.5259 7.86112Z" stroke="white" stroke-miterlimit="10"/>
<path d="M11.2667 7.91184C12.6269 7.91184 13.7296 6.83301 13.7296 5.5022C13.7296 4.17139 12.6269 3.09256 11.2667 3.09256C9.90642 3.09256 8.80371 4.17139 8.80371 5.5022C8.80371 6.83301 9.90642 7.91184 11.2667 7.91184Z" stroke="white" stroke-miterlimit="10"/>
<path d="M11.0852 8.10209C12.4454 8.10209 13.5481 7.02325 13.5481 5.69245C13.5481 4.36164 12.4454 3.28281 11.0852 3.28281C9.72493 3.28281 8.62222 4.36164 8.62222 5.69245C8.62222 7.02325 9.72493 8.10209 11.0852 8.10209Z" stroke="white" stroke-miterlimit="10"/>
<path d="M11.0204 8.35575C12.3806 8.35575 13.4833 7.27692 13.4833 5.94611C13.4833 4.6153 12.3806 3.53647 11.0204 3.53647C9.66011 3.53647 8.5574 4.6153 8.5574 5.94611C8.5574 7.27692 9.66011 8.35575 11.0204 8.35575Z" stroke="white" stroke-miterlimit="10"/>
<path d="M11.0204 8.60941C12.3806 8.60941 13.4833 7.53058 13.4833 6.19977C13.4833 4.86896 12.3806 3.79013 11.0204 3.79013C9.66011 3.79013 8.5574 4.86896 8.5574 6.19977C8.5574 7.53058 9.66011 8.60941 11.0204 8.60941Z" stroke="white" stroke-miterlimit="10"/>
<path d="M11.0204 8.87571C12.3806 8.87571 13.4833 7.79687 13.4833 6.46607C13.4833 5.13526 12.3806 4.05643 11.0204 4.05643C9.66011 4.05643 8.5574 5.13526 8.5574 6.46607C8.5574 7.79687 9.66011 8.87571 11.0204 8.87571Z" stroke="white" stroke-miterlimit="10"/>
<path d="M11.0204 9.14203C12.3806 9.14203 13.4833 8.0632 13.4833 6.73239C13.4833 5.40159 12.3806 4.32275 11.0204 4.32275C9.66011 4.32275 8.5574 5.40159 8.5574 6.73239C8.5574 8.0632 9.66011 9.14203 11.0204 9.14203Z" stroke="white" stroke-miterlimit="10"/>
<path d="M11.0204 9.40836C12.3806 9.40836 13.4833 8.32953 13.4833 6.99872C13.4833 5.66791 12.3806 4.58908 11.0204 4.58908C9.66011 4.58908 8.5574 5.66791 8.5574 6.99872C8.5574 8.32953 9.66011 9.40836 11.0204 9.40836Z" stroke="white" stroke-miterlimit="10"/>
<path d="M11.0204 9.67469C12.3806 9.67469 13.4833 8.59585 13.4833 7.26505C13.4833 5.93424 12.3806 4.85541 11.0204 4.85541C9.66011 4.85541 8.5574 5.93424 8.5574 7.26505C8.5574 8.59585 9.66011 9.67469 11.0204 9.67469Z" stroke="white" stroke-miterlimit="10"/>
<path d="M11.0204 9.92832C12.3806 9.92832 13.4833 8.84949 13.4833 7.51868C13.4833 6.18787 12.3806 5.10904 11.0204 5.10904C9.66011 5.10904 8.5574 6.18787 8.5574 7.51868C8.5574 8.84949 9.66011 9.92832 11.0204 9.92832Z" stroke="white" stroke-miterlimit="10"/>
<path d="M11.463 10.8193C12.8232 10.8193 13.9259 9.74045 13.9259 8.40964C13.9259 7.07883 12.8232 6 11.463 6C10.1027 6 9 7.07883 9 8.40964C9 9.74045 10.1027 10.8193 11.463 10.8193Z" stroke="white" stroke-miterlimit="10"/>
<path d="M11.0204 10.461C12.3806 10.461 13.4833 9.38217 13.4833 8.05136C13.4833 6.72056 12.3806 5.64172 11.0204 5.64172C9.66011 5.64172 8.5574 6.72056 8.5574 8.05136C8.5574 9.38217 9.66011 10.461 11.0204 10.461Z" stroke="white" stroke-miterlimit="10"/>
<path d="M11.0204 10.7273C12.3806 10.7273 13.4833 9.6485 13.4833 8.31769C13.4833 6.98688 12.3806 5.90805 11.0204 5.90805C9.66011 5.90805 8.5574 6.98688 8.5574 8.31769C8.5574 9.6485 9.66011 10.7273 11.0204 10.7273Z" stroke="white" stroke-miterlimit="10"/>
<path d="M11.0204 10.981C12.3806 10.981 13.4833 9.90213 13.4833 8.57132C13.4833 7.24051 12.3806 6.16168 11.0204 6.16168C9.66011 6.16168 8.5574 7.24051 8.5574 8.57132C8.5574 9.90213 9.66011 10.981 11.0204 10.981Z" stroke="white" stroke-miterlimit="10"/>
<path d="M11.0204 11.2473C12.3806 11.2473 13.4833 10.1685 13.4833 8.83765C13.4833 7.50684 12.3806 6.42801 11.0204 6.42801C9.66011 6.42801 8.5574 7.50684 8.5574 8.83765C8.5574 10.1685 9.66011 11.2473 11.0204 11.2473Z" stroke="white" stroke-miterlimit="10"/>
<path d="M11.0204 11.5136C12.3806 11.5136 13.4833 10.4348 13.4833 9.10398C13.4833 7.77317 12.3806 6.69434 11.0204 6.69434C9.66011 6.69434 8.5574 7.77317 8.5574 9.10398C8.5574 10.4348 9.66011 11.5136 11.0204 11.5136Z" stroke="white" stroke-miterlimit="10"/>
<path d="M11.0204 11.78C12.3806 11.78 13.4833 10.7011 13.4833 9.37033C13.4833 8.03953 12.3806 6.96069 11.0204 6.96069C9.66011 6.96069 8.5574 8.03953 8.5574 9.37033C8.5574 10.7011 9.66011 11.78 11.0204 11.78Z" stroke="white" stroke-miterlimit="10"/>
<path d="M11.0204 12.0336C12.3806 12.0336 13.4833 10.9548 13.4833 9.62396C13.4833 8.29316 12.3806 7.21432 11.0204 7.21432C9.66011 7.21432 8.5574 8.29316 8.5574 9.62396C8.5574 10.9548 9.66011 12.0336 11.0204 12.0336Z" stroke="white" stroke-miterlimit="10"/>
<path d="M11.0204 12.2999C12.3806 12.2999 13.4833 11.2211 13.4833 9.89029C13.4833 8.55948 12.3806 7.48065 11.0204 7.48065C9.66011 7.48065 8.5574 8.55948 8.5574 9.89029C8.5574 11.2211 9.66011 12.2999 11.0204 12.2999Z" stroke="white" stroke-miterlimit="10"/>
<path d="M11.0204 12.5663C12.3806 12.5663 13.4833 11.4874 13.4833 10.1566C13.4833 8.82581 12.3806 7.74698 11.0204 7.74698C9.66011 7.74698 8.5574 8.82581 8.5574 10.1566C8.5574 11.4874 9.66011 12.5663 11.0204 12.5663Z" stroke="white" stroke-miterlimit="10"/>
<path d="M11.0204 12.8326C12.3806 12.8326 13.4833 11.7538 13.4833 10.4229C13.4833 9.09214 12.3806 8.01331 11.0204 8.01331C9.66011 8.01331 8.5574 9.09214 8.5574 10.4229C8.5574 11.7538 9.66011 12.8326 11.0204 12.8326Z" stroke="white" stroke-miterlimit="10"/>
<path d="M11.0204 13.0989C12.3806 13.0989 13.4833 12.0201 13.4833 10.6893C13.4833 9.35846 12.3806 8.27963 11.0204 8.27963C9.66011 8.27963 8.5574 9.35846 8.5574 10.6893C8.5574 12.0201 9.66011 13.0989 11.0204 13.0989Z" stroke="white" stroke-miterlimit="10"/>
<path d="M11.0204 13.3525C12.3806 13.3525 13.4833 12.2737 13.4833 10.9429C13.4833 9.6121 12.3806 8.53326 11.0204 8.53326C9.66011 8.53326 8.5574 9.6121 8.5574 10.9429C8.5574 12.2737 9.66011 13.3525 11.0204 13.3525Z" stroke="white" stroke-miterlimit="10"/>
<path d="M11.0204 13.6189C12.3806 13.6189 13.4833 12.5401 13.4833 11.2093C13.4833 9.87845 12.3806 8.79962 11.0204 8.79962C9.66011 8.79962 8.5574 9.87845 8.5574 11.2093C8.5574 12.5401 9.66011 13.6189 11.0204 13.6189Z" stroke="white" stroke-miterlimit="10"/>
<path d="M11.0204 13.8852C12.3806 13.8852 13.4833 12.8064 13.4833 11.4756C13.4833 10.1448 12.3806 9.06595 11.0204 9.06595C9.66011 9.06595 8.5574 10.1448 8.5574 11.4756C8.5574 12.8064 9.66011 13.8852 11.0204 13.8852Z" stroke="white" stroke-miterlimit="10"/>
<path d="M11.0204 14.1516C12.3806 14.1516 13.4833 13.0727 13.4833 11.7419C13.4833 10.4111 12.3806 9.33228 11.0204 9.33228C9.66011 9.33228 8.5574 10.4111 8.5574 11.7419C8.5574 13.0727 9.66011 14.1516 11.0204 14.1516Z" stroke="white" stroke-miterlimit="10"/>
<path d="M11.0204 14.4052C12.3806 14.4052 13.4833 13.3264 13.4833 11.9956C13.4833 10.6648 12.3806 9.58594 11.0204 9.58594C9.66011 9.58594 8.5574 10.6648 8.5574 11.9956C8.5574 13.3264 9.66011 14.4052 11.0204 14.4052Z" stroke="white" stroke-miterlimit="10"/>
<path d="M11.0204 14.6715C12.3806 14.6715 13.4833 13.5927 13.4833 12.2619C13.4833 10.9311 12.3806 9.85226 11.0204 9.85226C9.66011 9.85226 8.5574 10.9311 8.5574 12.2619C8.5574 13.5927 9.66011 14.6715 11.0204 14.6715Z" stroke="white" stroke-miterlimit="10"/>
<path d="M11.0204 14.9379C12.3806 14.9379 13.4833 13.859 13.4833 12.5282C13.4833 11.1974 12.3806 10.1186 11.0204 10.1186C9.66011 10.1186 8.5574 11.1974 8.5574 12.5282C8.5574 13.859 9.66011 14.9379 11.0204 14.9379Z" stroke="white" stroke-miterlimit="10"/>
<path d="M11.463 14.4467C12.8232 14.4467 13.9259 13.3679 13.9259 12.0371C13.9259 10.7063 12.8232 9.62744 11.463 9.62744C10.1027 9.62744 9 10.7063 9 12.0371C9 13.3679 10.1027 14.4467 11.463 14.4467Z" stroke="white" stroke-miterlimit="10"/>
<path d="M11.0204 15.4578C12.3806 15.4578 13.4833 14.379 13.4833 13.0482C13.4833 11.7174 12.3806 10.6385 11.0204 10.6385C9.66011 10.6385 8.5574 11.7174 8.5574 13.0482C8.5574 14.379 9.66011 15.4578 11.0204 15.4578Z" stroke="white" stroke-miterlimit="10"/>
<path d="M11.0204 15.7242C12.3806 15.7242 13.4833 14.6453 13.4833 13.3145C13.4833 11.9837 12.3806 10.9049 11.0204 10.9049C9.66011 10.9049 8.5574 11.9837 8.5574 13.3145C8.5574 14.6453 9.66011 15.7242 11.0204 15.7242Z" stroke="white" stroke-miterlimit="10"/>
<path d="M11.0204 15.9905C12.3806 15.9905 13.4833 14.9117 13.4833 13.5808C13.4833 12.25 12.3806 11.1712 11.0204 11.1712C9.66011 11.1712 8.5574 12.25 8.5574 13.5808C8.5574 14.9117 9.66011 15.9905 11.0204 15.9905Z" stroke="white" stroke-miterlimit="10"/>
<path d="M11.0204 16.2568C12.3806 16.2568 13.4833 15.178 13.4833 13.8472C13.4833 12.5164 12.3806 11.4375 11.0204 11.4375C9.66011 11.4375 8.5574 12.5164 8.5574 13.8472C8.5574 15.178 9.66011 16.2568 11.0204 16.2568Z" stroke="white" stroke-miterlimit="10"/>
<path d="M11.0204 16.5231C12.3806 16.5231 13.4833 15.4443 13.4833 14.1135C13.4833 12.7827 12.3806 11.7039 11.0204 11.7039C9.66011 11.7039 8.5574 12.7827 8.5574 14.1135C8.5574 15.4443 9.66011 16.5231 11.0204 16.5231Z" stroke="white" stroke-miterlimit="10"/>
<path d="M11.0204 16.7768C12.3806 16.7768 13.4833 15.698 13.4833 14.3672C13.4833 13.0364 12.3806 11.9575 11.0204 11.9575C9.66011 11.9575 8.5574 13.0364 8.5574 14.3672C8.5574 15.698 9.66011 16.7768 11.0204 16.7768Z" stroke="white" stroke-miterlimit="10"/>
<path d="M11.0204 17.0431C12.3806 17.0431 13.4833 15.9643 13.4833 14.6335C13.4833 13.3027 12.3806 12.2238 11.0204 12.2238C9.66011 12.2238 8.5574 13.3027 8.5574 14.6335C8.5574 15.9643 9.66011 17.0431 11.0204 17.0431Z" stroke="white" stroke-miterlimit="10"/>
<path d="M11.0204 17.3095C12.3806 17.3095 13.4833 16.2306 13.4833 14.8998C13.4833 13.569 12.3806 12.4902 11.0204 12.4902C9.66011 12.4902 8.5574 13.569 8.5574 14.8998C8.5574 16.2306 9.66011 17.3095 11.0204 17.3095Z" stroke="white" stroke-miterlimit="10"/>
<path d="M11.0204 17.5758C12.3806 17.5758 13.4833 16.4969 13.4833 15.1661C13.4833 13.8353 12.3806 12.7565 11.0204 12.7565C9.66011 12.7565 8.5574 13.8353 8.5574 15.1661C8.5574 16.4969 9.66011 17.5758 11.0204 17.5758Z" stroke="white" stroke-miterlimit="10"/>
<path d="M11.0204 17.8294C12.3806 17.8294 13.4833 16.7506 13.4833 15.4198C13.4833 14.089 12.3806 13.0101 11.0204 13.0101C9.66011 13.0101 8.5574 14.089 8.5574 15.4198C8.5574 16.7506 9.66011 17.8294 11.0204 17.8294Z" stroke="white" stroke-miterlimit="10"/>
<path d="M11.0204 18.0957C12.3806 18.0957 13.4833 17.0169 13.4833 15.6861C13.4833 14.3553 12.3806 13.2765 11.0204 13.2765C9.66011 13.2765 8.5574 14.3553 8.5574 15.6861C8.5574 17.0169 9.66011 18.0957 11.0204 18.0957Z" stroke="white" stroke-miterlimit="10"/>
<path d="M11.0204 18.3621C12.3806 18.3621 13.4833 17.2832 13.4833 15.9524C13.4833 14.6216 12.3806 13.5428 11.0204 13.5428C9.66011 13.5428 8.5574 14.6216 8.5574 15.9524C8.5574 17.2832 9.66011 18.3621 11.0204 18.3621Z" stroke="white" stroke-miterlimit="10"/>
<path d="M11.0204 18.6284C12.3806 18.6284 13.4833 17.5496 13.4833 16.2188C13.4833 14.8879 12.3806 13.8091 11.0204 13.8091C9.66011 13.8091 8.5574 14.8879 8.5574 16.2188C8.5574 17.5496 9.66011 18.6284 11.0204 18.6284Z" stroke="white" stroke-miterlimit="10"/>
<path d="M11.0204 18.8821C12.3806 18.8821 13.4833 17.8033 13.4833 16.4724C13.4833 15.1416 12.3806 14.0628 11.0204 14.0628C9.66011 14.0628 8.5574 15.1416 8.5574 16.4724C8.5574 17.8033 9.66011 18.8821 11.0204 18.8821Z" stroke="white" stroke-miterlimit="10"/>
<path d="M11.0204 19.1484C12.3806 19.1484 13.4833 18.0695 13.4833 16.7387C13.4833 15.4079 12.3806 14.3291 11.0204 14.3291C9.66011 14.3291 8.5574 15.4079 8.5574 16.7387C8.5574 18.0695 9.66011 19.1484 11.0204 19.1484Z" stroke="white" stroke-miterlimit="10"/>
<path d="M11.0204 19.4147C12.3806 19.4147 13.4833 18.3359 13.4833 17.0051C13.4833 15.6743 12.3806 14.5954 11.0204 14.5954C9.66011 14.5954 8.5574 15.6743 8.5574 17.0051C8.5574 18.3359 9.66011 19.4147 11.0204 19.4147Z" stroke="white" stroke-miterlimit="10"/>
<path d="M11.0204 19.681C12.3806 19.681 13.4833 18.6022 13.4833 17.2714C13.4833 15.9406 12.3806 14.8618 11.0204 14.8618C9.66011 14.8618 8.5574 15.9406 8.5574 17.2714C8.5574 18.6022 9.66011 19.681 11.0204 19.681Z" stroke="white" stroke-miterlimit="10"/>
<path d="M11.0204 19.9347C12.3806 19.9347 13.4833 18.8558 13.4833 17.525C13.4833 16.1942 12.3806 15.1154 11.0204 15.1154C9.66011 15.1154 8.5574 16.1942 8.5574 17.525C8.5574 18.8558 9.66011 19.9347 11.0204 19.9347Z" stroke="white" stroke-miterlimit="10"/>
<path d="M11.0204 20.201C12.3806 20.201 13.4833 19.1222 13.4833 17.7914C13.4833 16.4605 12.3806 15.3817 11.0204 15.3817C9.66011 15.3817 8.5574 16.4605 8.5574 17.7914C8.5574 19.1222 9.66011 20.201 11.0204 20.201Z" stroke="white" stroke-miterlimit="10"/>
<path d="M11.0204 20.4674C12.3806 20.4674 13.4833 19.3885 13.4833 18.0577C13.4833 16.7269 12.3806 15.6481 11.0204 15.6481C9.66011 15.6481 8.5574 16.7269 8.5574 18.0577C8.5574 19.3885 9.66011 20.4674 11.0204 20.4674Z" stroke="white" stroke-miterlimit="10"/>
<path d="M11.0593 20.7337C12.4195 20.7337 13.5222 19.6548 13.5222 18.324C13.5222 16.9932 12.4195 15.9144 11.0593 15.9144C9.69902 15.9144 8.59631 16.9932 8.59631 18.324C8.59631 19.6548 9.69902 20.7337 11.0593 20.7337Z" stroke="white" stroke-miterlimit="10"/>
<path d="M11.2407 20.9239C12.601 20.9239 13.7037 19.8451 13.7037 18.5143C13.7037 17.1834 12.601 16.1046 11.2407 16.1046C9.88048 16.1046 8.77777 17.1834 8.77777 18.5143C8.77777 19.8451 9.88048 20.9239 11.2407 20.9239Z" stroke="white" stroke-miterlimit="10"/>
<path d="M11.487 21C12.8473 21 13.95 19.9212 13.95 18.5904C13.95 17.2596 12.8473 16.1807 11.487 16.1807C10.1268 16.1807 9.02405 17.2596 9.02405 18.5904C9.02405 19.9212 10.1268 21 11.487 21Z" stroke="white" stroke-miterlimit="10"/>
</svg>
