<svg width="23" height="22" viewBox="0 0 23 22" fill="none" xmlns="http://www.w3.org/2000/svg">
<path d="M19.2059 6.27585C20.749 6.27585 22 5.19702 22 3.86621C22 2.5354 20.749 1.45657 19.2059 1.45657C17.6627 1.45657 16.4118 2.5354 16.4118 3.86621C16.4118 5.19702 17.6627 6.27585 19.2059 6.27585Z" stroke="white" stroke-miterlimit="10"/>
<path d="M19.2059 7.01141C20.749 7.01141 22 5.93258 22 4.60178C22 3.27097 20.749 2.19214 19.2059 2.19214C17.6627 2.19214 16.4118 3.27097 16.4118 4.60178C16.4118 5.93258 17.6627 7.01141 19.2059 7.01141Z" stroke="white" stroke-miterlimit="10"/>
<path d="M19.2059 7.73431C20.749 7.73431 22 6.65548 22 5.32468C22 3.99387 20.749 2.91504 19.2059 2.91504C17.6627 2.91504 16.4118 3.99387 16.4118 5.32468C16.4118 6.65548 17.6627 7.73431 19.2059 7.73431Z" stroke="white" stroke-miterlimit="10"/>
<path d="M19.2059 8.45721C20.749 8.45721 22 7.37838 22 6.04758C22 4.71677 20.749 3.63794 19.2059 3.63794C17.6627 3.63794 16.4118 4.71677 16.4118 6.04758C16.4118 7.37838 17.6627 8.45721 19.2059 8.45721Z" stroke="white" stroke-miterlimit="10"/>
<path d="M19.2059 9.18008C20.749 9.18008 22 8.10125 22 6.77045C22 5.43964 20.749 4.36081 19.2059 4.36081C17.6627 4.36081 16.4118 5.43964 16.4118 6.77045C16.4118 8.10125 17.6627 9.18008 19.2059 9.18008Z" stroke="white" stroke-miterlimit="10"/>
<path d="M19.2059 9.90298C20.749 9.90298 22 8.82415 22 7.49335C22 6.16254 20.749 5.08371 19.2059 5.08371C17.6627 5.08371 16.4118 6.16254 16.4118 7.49335C16.4118 8.82415 17.6627 9.90298 19.2059 9.90298Z" stroke="white" stroke-miterlimit="10"/>
<path d="M19.2059 10.6259C20.749 10.6259 22 9.54705 22 8.21625C22 6.88544 20.749 5.80661 19.2059 5.80661C17.6627 5.80661 16.4118 6.88544 16.4118 8.21625C16.4118 9.54705 17.6627 10.6259 19.2059 10.6259Z" stroke="white" stroke-miterlimit="10"/>
<path d="M19.2059 11.3488C20.749 11.3488 22 10.2699 22 8.93912C22 7.60831 20.749 6.52948 19.2059 6.52948C17.6627 6.52948 16.4118 7.60831 16.4118 8.93912C16.4118 10.2699 17.6627 11.3488 19.2059 11.3488Z" stroke="white" stroke-miterlimit="10"/>
<path d="M19.2059 12.0844C20.749 12.0844 22 11.0055 22 9.67471C22 8.34391 20.749 7.26508 19.2059 7.26508C17.6627 7.26508 16.4118 8.34391 16.4118 9.67471C16.4118 11.0055 17.6627 12.0844 19.2059 12.0844Z" stroke="white" stroke-miterlimit="10"/>
<path d="M19.2059 12.8072C20.749 12.8072 22 11.7284 22 10.3976C22 9.06678 20.749 7.98795 19.2059 7.98795C17.6627 7.98795 16.4118 9.06678 16.4118 10.3976C16.4118 11.7284 17.6627 12.8072 19.2059 12.8072Z" stroke="white" stroke-miterlimit="10"/>
<path d="M19.2059 13.5301C20.749 13.5301 22 12.4513 22 11.1205C22 9.78968 20.749 8.71085 19.2059 8.71085C17.6627 8.71085 16.4118 9.78968 16.4118 11.1205C16.4118 12.4513 17.6627 13.5301 19.2059 13.5301Z" stroke="white" stroke-miterlimit="10"/>
<path d="M19.1618 14.2657C20.7049 14.2657 21.9559 13.1869 21.9559 11.856C21.9559 10.5252 20.7049 9.44641 19.1618 9.44641C17.6186 9.44641 16.3676 10.5252 16.3676 11.856C16.3676 13.1869 17.6186 14.2657 19.1618 14.2657Z" stroke="white" stroke-miterlimit="10"/>
<path d="M19.0588 14.9886C20.602 14.9886 21.8529 13.9098 21.8529 12.5789C21.8529 11.2481 20.602 10.1693 19.0588 10.1693C17.5157 10.1693 16.2647 11.2481 16.2647 12.5789C16.2647 13.9098 17.5157 14.9886 19.0588 14.9886Z" stroke="white" stroke-miterlimit="10"/>
<path d="M18.9118 15.7115C20.4549 15.7115 21.7059 14.6326 21.7059 13.3018C21.7059 11.971 20.4549 10.8922 18.9118 10.8922C17.3686 10.8922 16.1176 11.971 16.1176 13.3018C16.1176 14.6326 17.3686 15.7115 18.9118 15.7115Z" stroke="white" stroke-miterlimit="10"/>
<path d="M18.6765 16.409C20.2196 16.409 21.4706 15.3302 21.4706 13.9994C21.4706 12.6686 20.2196 11.5897 18.6765 11.5897C17.1333 11.5897 15.8824 12.6686 15.8824 13.9994C15.8824 15.3302 17.1333 16.409 18.6765 16.409Z" stroke="white" stroke-miterlimit="10"/>
<path d="M18.3971 17.0812C19.9402 17.0812 21.1912 16.0023 21.1912 14.6715C21.1912 13.3407 19.9402 12.2619 18.3971 12.2619C16.8539 12.2619 15.6029 13.3407 15.6029 14.6715C15.6029 16.0023 16.8539 17.0812 18.3971 17.0812Z" stroke="white" stroke-miterlimit="10"/>
<path d="M18.0588 17.7153C19.602 17.7153 20.8529 16.6364 20.8529 15.3056C20.8529 13.9748 19.602 12.896 18.0588 12.896C16.5157 12.896 15.2647 13.9748 15.2647 15.3056C15.2647 16.6364 16.5157 17.7153 18.0588 17.7153Z" stroke="white" stroke-miterlimit="10"/>
<path d="M17.6471 18.3113C19.1902 18.3113 20.4412 17.2325 20.4412 15.9017C20.4412 14.5709 19.1902 13.4921 17.6471 13.4921C16.1039 13.4921 14.8529 14.5709 14.8529 15.9017C14.8529 17.2325 16.1039 18.3113 17.6471 18.3113Z" stroke="white" stroke-miterlimit="10"/>
<path d="M17.1765 18.8694C18.7196 18.8694 19.9706 17.7905 19.9706 16.4597C19.9706 15.1289 18.7196 14.0501 17.1765 14.0501C15.6333 14.0501 14.3824 15.1289 14.3824 16.4597C14.3824 17.7905 15.6333 18.8694 17.1765 18.8694Z" stroke="white" stroke-miterlimit="10"/>
<path d="M16.6323 19.3766C18.1755 19.3766 19.4265 18.2978 19.4265 16.967C19.4265 15.6362 18.1755 14.5574 16.6323 14.5574C15.0892 14.5574 13.8382 15.6362 13.8382 16.967C13.8382 18.2978 15.0892 19.3766 16.6323 19.3766Z" stroke="white" stroke-miterlimit="10"/>
<path d="M16.0294 19.8332C17.5726 19.8332 18.8235 18.7544 18.8235 17.4236C18.8235 16.0928 17.5726 15.0139 16.0294 15.0139C14.4863 15.0139 13.2353 16.0928 13.2353 17.4236C13.2353 18.7544 14.4863 19.8332 16.0294 19.8332Z" stroke="white" stroke-miterlimit="10"/>
<path d="M15.3676 20.2137C16.9108 20.2137 18.1618 19.1349 18.1618 17.804C18.1618 16.4732 16.9108 15.3944 15.3676 15.3944C13.8245 15.3944 12.5735 16.4732 12.5735 17.804C12.5735 19.1349 13.8245 20.2137 15.3676 20.2137Z" stroke="white" stroke-miterlimit="10"/>
<path d="M14.6323 20.5307C16.1755 20.5307 17.4265 19.4519 17.4265 18.1211C17.4265 16.7903 16.1755 15.7115 14.6323 15.7115C13.0892 15.7115 11.8382 16.7903 11.8382 18.1211C11.8382 19.4519 13.0892 20.5307 14.6323 20.5307Z" stroke="white" stroke-miterlimit="10"/>
<path d="M13.8235 20.7717C15.3667 20.7717 16.6176 19.6929 16.6176 18.3621C16.6176 17.0313 15.3667 15.9524 13.8235 15.9524C12.2804 15.9524 11.0294 17.0313 11.0294 18.3621C11.0294 19.6929 12.2804 20.7717 13.8235 20.7717Z" stroke="white" stroke-miterlimit="10"/>
<path d="M12.9412 20.9239C14.4843 20.9239 15.7353 19.8451 15.7353 18.5143C15.7353 17.1834 14.4843 16.1046 12.9412 16.1046C11.398 16.1046 10.147 17.1834 10.147 18.5143C10.147 19.8451 11.398 20.9239 12.9412 20.9239Z" stroke="white" stroke-miterlimit="10"/>
<path d="M12 21C13.5431 21 14.7941 19.9212 14.7941 18.5904C14.7941 17.2596 13.5431 16.1807 12 16.1807C10.4568 16.1807 9.20587 17.2596 9.20587 18.5904C9.20587 19.9212 10.4568 21 12 21Z" stroke="white" stroke-miterlimit="10"/>
<path d="M11.0882 20.9873C12.6314 20.9873 13.8823 19.9085 13.8823 18.5777C13.8823 17.2469 12.6314 16.168 11.0882 16.168C9.54507 16.168 8.2941 17.2469 8.2941 18.5777C8.2941 19.9085 9.54507 20.9873 11.0882 20.9873Z" stroke="white" stroke-miterlimit="10"/>
<path d="M10.2353 20.8985C11.7785 20.8985 13.0294 19.8197 13.0294 18.4889C13.0294 17.1581 11.7785 16.0793 10.2353 16.0793C8.69216 16.0793 7.44119 17.1581 7.44119 18.4889C7.44119 19.8197 8.69216 20.8985 10.2353 20.8985Z" stroke="white" stroke-miterlimit="10"/>
<path d="M9.42647 20.7464C10.9696 20.7464 12.2206 19.6675 12.2206 18.3367C12.2206 17.0059 10.9696 15.9271 9.42647 15.9271C7.88332 15.9271 6.63235 17.0059 6.63235 18.3367C6.63235 19.6675 7.88332 20.7464 9.42647 20.7464Z" stroke="white" stroke-miterlimit="10"/>
<path d="M8.66176 20.5307C10.2049 20.5307 11.4559 19.4519 11.4559 18.1211C11.4559 16.7903 10.2049 15.7115 8.66176 15.7115C7.11861 15.7115 5.86765 16.7903 5.86765 18.1211C5.86765 19.4519 7.11861 20.5307 8.66176 20.5307Z" stroke="white" stroke-miterlimit="10"/>
<path d="M7.94118 20.2517C9.48433 20.2517 10.7353 19.1729 10.7353 17.8421C10.7353 16.5113 9.48433 15.4325 7.94118 15.4325C6.39803 15.4325 5.14706 16.5113 5.14706 17.8421C5.14706 19.1729 6.39803 20.2517 7.94118 20.2517Z" stroke="white" stroke-miterlimit="10"/>
<path d="M7.27941 19.9093C8.82256 19.9093 10.0735 18.8305 10.0735 17.4997C10.0735 16.1689 8.82256 15.09 7.27941 15.09C5.73626 15.09 4.48529 16.1689 4.48529 17.4997C4.48529 18.8305 5.73626 19.9093 7.27941 19.9093Z" stroke="white" stroke-miterlimit="10"/>
<path d="M6.66176 19.5035C8.20491 19.5035 9.45588 18.4246 9.45588 17.0938C9.45588 15.763 8.20491 14.6842 6.66176 14.6842C5.11861 14.6842 3.86765 15.763 3.86765 17.0938C3.86765 18.4246 5.11861 19.5035 6.66176 19.5035Z" stroke="white" stroke-miterlimit="10"/>
<path d="M6.10292 19.0469C7.64607 19.0469 8.89704 17.9681 8.89704 16.6373C8.89704 15.3065 7.64607 14.2277 6.10292 14.2277C4.55978 14.2277 3.30881 15.3065 3.30881 16.6373C3.30881 17.9681 4.55978 19.0469 6.10292 19.0469Z" stroke="white" stroke-miterlimit="10"/>
<path d="M5.60295 18.5269C7.1461 18.5269 8.39707 17.4481 8.39707 16.1173C8.39707 14.7865 7.1461 13.7077 5.60295 13.7077C4.05981 13.7077 2.80884 14.7865 2.80884 16.1173C2.80884 17.4481 4.05981 18.5269 5.60295 18.5269Z" stroke="white" stroke-miterlimit="10"/>
<path d="M5.14705 17.9689C6.6902 17.9689 7.94117 16.8901 7.94117 15.5593C7.94117 14.2285 6.6902 13.1497 5.14705 13.1497C3.6039 13.1497 2.35294 14.2285 2.35294 15.5593C2.35294 16.8901 3.6039 17.9689 5.14705 17.9689Z" stroke="white" stroke-miterlimit="10"/>
<path d="M4.7647 17.3475C6.30785 17.3475 7.55881 16.2687 7.55881 14.9379C7.55881 13.6071 6.30785 12.5282 4.7647 12.5282C3.22155 12.5282 1.97058 13.6071 1.97058 14.9379C1.97058 16.2687 3.22155 17.3475 4.7647 17.3475Z" stroke="white" stroke-miterlimit="10"/>
<path d="M4.44118 16.6753C5.98433 16.6753 7.2353 15.5965 7.2353 14.2657C7.2353 12.9349 5.98433 11.856 4.44118 11.856C2.89803 11.856 1.64706 12.9349 1.64706 14.2657C1.64706 15.5965 2.89803 16.6753 4.44118 16.6753Z" stroke="white" stroke-miterlimit="10"/>
<path d="M4.17647 15.9651C5.71962 15.9651 6.97059 14.8863 6.97059 13.5555C6.97059 12.2247 5.71962 11.1458 4.17647 11.1458C2.63332 11.1458 1.38235 12.2247 1.38235 13.5555C1.38235 14.8863 2.63332 15.9651 4.17647 15.9651Z" stroke="white" stroke-miterlimit="10"/>
<path d="M3.98531 15.2042C5.52846 15.2042 6.77943 14.1254 6.77943 12.7946C6.77943 11.4637 5.52846 10.3849 3.98531 10.3849C2.44216 10.3849 1.19119 11.4637 1.19119 12.7946C1.19119 14.1254 2.44216 15.2042 3.98531 15.2042Z" stroke="white" stroke-miterlimit="10"/>
<path d="M3.85295 14.4052C5.3961 14.4052 6.64707 13.3264 6.64707 11.9956C6.64707 10.6648 5.3961 9.58594 3.85295 9.58594C2.30981 9.58594 1.05884 10.6648 1.05884 11.9956C1.05884 13.3264 2.30981 14.4052 3.85295 14.4052Z" stroke="white" stroke-miterlimit="10"/>
<path d="M3.79412 13.5681C5.33726 13.5681 6.58823 12.4893 6.58823 11.1585C6.58823 9.8277 5.33726 8.74887 3.79412 8.74887C2.25097 8.74887 1 9.8277 1 11.1585C1 12.4893 2.25097 13.5681 3.79412 13.5681Z" stroke="white" stroke-miterlimit="10"/>
<path d="M3.79412 12.7946C5.33726 12.7946 6.58823 11.7157 6.58823 10.3849C6.58823 9.05411 5.33726 7.97528 3.79412 7.97528C2.25097 7.97528 1 9.05411 1 10.3849C1 11.7157 2.25097 12.7946 3.79412 12.7946Z" stroke="white" stroke-miterlimit="10"/>
<path d="M3.79412 12.0717C5.33726 12.0717 6.58823 10.9928 6.58823 9.66202C6.58823 8.33121 5.33726 7.25238 3.79412 7.25238C2.25097 7.25238 1 8.33121 1 9.66202C1 10.9928 2.25097 12.0717 3.79412 12.0717Z" stroke="white" stroke-miterlimit="10"/>
<path d="M3.79412 11.3488C5.33726 11.3488 6.58823 10.2699 6.58823 8.93912C6.58823 7.60831 5.33726 6.52948 3.79412 6.52948C2.25097 6.52948 1 7.60831 1 8.93912C1 10.2699 2.25097 11.3488 3.79412 11.3488Z" stroke="white" stroke-miterlimit="10"/>
<path d="M3.79412 10.6132C5.33726 10.6132 6.58823 9.53436 6.58823 8.20355C6.58823 6.87275 5.33726 5.79391 3.79412 5.79391C2.25097 5.79391 1 6.87275 1 8.20355C1 9.53436 2.25097 10.6132 3.79412 10.6132Z" stroke="white" stroke-miterlimit="10"/>
<path d="M3.79412 9.89029C5.33726 9.89029 6.58823 8.81146 6.58823 7.48065C6.58823 6.14985 5.33726 5.07101 3.79412 5.07101C2.25097 5.07101 1 6.14985 1 7.48065C1 8.81146 2.25097 9.89029 3.79412 9.89029Z" stroke="white" stroke-miterlimit="10"/>
<path d="M3.79412 9.16742C5.33726 9.16742 6.58823 8.08859 6.58823 6.75778C6.58823 5.42698 5.33726 4.34814 3.79412 4.34814C2.25097 4.34814 1 5.42698 1 6.75778C1 8.08859 2.25097 9.16742 3.79412 9.16742Z" stroke="white" stroke-miterlimit="10"/>
<path d="M3.79412 8.44452C5.33726 8.44452 6.58823 7.36569 6.58823 6.03488C6.58823 4.70408 5.33726 3.62524 3.79412 3.62524C2.25097 3.62524 1 4.70408 1 6.03488C1 7.36569 2.25097 8.44452 3.79412 8.44452Z" stroke="white" stroke-miterlimit="10"/>
<path d="M3.79412 7.72162C5.33726 7.72162 6.58823 6.64279 6.58823 5.31198C6.58823 3.98118 5.33726 2.90234 3.79412 2.90234C2.25097 2.90234 1 3.98118 1 5.31198C1 6.64279 2.25097 7.72162 3.79412 7.72162Z" stroke="white" stroke-miterlimit="10"/>
<path d="M3.79412 6.99875C5.33726 6.99875 6.58823 5.91992 6.58823 4.58911C6.58823 3.25831 5.33726 2.17947 3.79412 2.17947C2.25097 2.17947 1 3.25831 1 4.58911C1 5.91992 2.25097 6.99875 3.79412 6.99875Z" stroke="white" stroke-miterlimit="10"/>
<path d="M3.79412 6.27585C5.33726 6.27585 6.58823 5.19702 6.58823 3.86621C6.58823 2.5354 5.33726 1.45657 3.79412 1.45657C2.25097 1.45657 1 2.5354 1 3.86621C1 5.19702 2.25097 6.27585 3.79412 6.27585Z" stroke="white" stroke-miterlimit="10"/>
<path d="M4.33821 5.81927C5.88136 5.81927 7.13233 4.74044 7.13233 3.40964C7.13233 2.07883 5.88136 1 4.33821 1C2.79507 1 1.5441 2.07883 1.5441 3.40964C1.5441 4.74044 2.79507 5.81927 4.33821 5.81927Z" stroke="white" stroke-miterlimit="10"/>
<path d="M4.85292 6.30121C6.39607 6.30121 7.64704 5.22238 7.64704 3.89157C7.64704 2.56077 6.39607 1.48193 4.85292 1.48193C3.30978 1.48193 2.05881 2.56077 2.05881 3.89157C2.05881 5.22238 3.30978 6.30121 4.85292 6.30121Z" stroke="white" stroke-miterlimit="10"/>
<path d="M4.85292 7.02411C6.39607 7.02411 7.64704 5.94528 7.64704 4.61447C7.64704 3.28367 6.39607 2.20483 4.85292 2.20483C3.30978 2.20483 2.05881 3.28367 2.05881 4.61447C2.05881 5.94528 3.30978 7.02411 4.85292 7.02411Z" stroke="white" stroke-miterlimit="10"/>
<path d="M4.85292 7.74701C6.39607 7.74701 7.64704 6.66818 7.64704 5.33737C7.64704 4.00657 6.39607 2.92773 4.85292 2.92773C3.30978 2.92773 2.05881 4.00657 2.05881 5.33737C2.05881 6.66818 3.30978 7.74701 4.85292 7.74701Z" stroke="white" stroke-miterlimit="10"/>
<path d="M4.85292 8.46988C6.39607 8.46988 7.64704 7.39105 7.64704 6.06024C7.64704 4.72944 6.39607 3.6506 4.85292 3.6506C3.30978 3.6506 2.05881 4.72944 2.05881 6.06024C2.05881 7.39105 3.30978 8.46988 4.85292 8.46988Z" stroke="white" stroke-miterlimit="10"/>
<path d="M4.85292 9.19275C6.39607 9.19275 7.64704 8.11392 7.64704 6.78311C7.64704 5.45231 6.39607 4.37347 4.85292 4.37347C3.30978 4.37347 2.05881 5.45231 2.05881 6.78311C2.05881 8.11392 3.30978 9.19275 4.85292 9.19275Z" stroke="white" stroke-miterlimit="10"/>
<path d="M4.85292 9.92834C6.39607 9.92834 7.64704 8.84951 7.64704 7.51871C7.64704 6.1879 6.39607 5.10907 4.85292 5.10907C3.30978 5.10907 2.05881 6.1879 2.05881 7.51871C2.05881 8.84951 3.30978 9.92834 4.85292 9.92834Z" stroke="white" stroke-miterlimit="10"/>
<path d="M4.85292 10.6512C6.39607 10.6512 7.64704 9.57238 7.64704 8.24158C7.64704 6.91077 6.39607 5.83194 4.85292 5.83194C3.30978 5.83194 2.05881 6.91077 2.05881 8.24158C2.05881 9.57238 3.30978 10.6512 4.85292 10.6512Z" stroke="white" stroke-miterlimit="10"/>
<path d="M4.85292 11.3741C6.39607 11.3741 7.64704 10.2953 7.64704 8.96448C7.64704 7.63367 6.39607 6.55484 4.85292 6.55484C3.30978 6.55484 2.05881 7.63367 2.05881 8.96448C2.05881 10.2953 3.30978 11.3741 4.85292 11.3741Z" stroke="white" stroke-miterlimit="10"/>
<path d="M4.85292 12.097C6.39607 12.097 7.64704 11.0182 7.64704 9.68738C7.64704 8.35657 6.39607 7.27774 4.85292 7.27774C3.30978 7.27774 2.05881 8.35657 2.05881 9.68738C2.05881 11.0182 3.30978 12.097 4.85292 12.097Z" stroke="white" stroke-miterlimit="10"/>
<path d="M4.85292 12.8199C6.39607 12.8199 7.64704 11.7411 7.64704 10.4103C7.64704 9.07947 6.39607 8.00064 4.85292 8.00064C3.30978 8.00064 2.05881 9.07947 2.05881 10.4103C2.05881 11.7411 3.30978 12.8199 4.85292 12.8199Z" stroke="white" stroke-miterlimit="10"/>
<path d="M4.85292 13.5428C6.39607 13.5428 7.64704 12.464 7.64704 11.1331C7.64704 9.80234 6.39607 8.72351 4.85292 8.72351C3.30978 8.72351 2.05881 9.80234 2.05881 11.1331C2.05881 12.464 3.30978 13.5428 4.85292 13.5428Z" stroke="white" stroke-miterlimit="10"/>
<path d="M4.91176 14.2403C6.45491 14.2403 7.70588 13.1615 7.70588 11.8307C7.70588 10.4999 6.45491 9.42105 4.91176 9.42105C3.36861 9.42105 2.11765 10.4999 2.11765 11.8307C2.11765 13.1615 3.36861 14.2403 4.91176 14.2403Z" stroke="white" stroke-miterlimit="10"/>
<path d="M5.0147 14.9379C6.55785 14.9379 7.80881 13.859 7.80881 12.5282C7.80881 11.1974 6.55785 10.1186 5.0147 10.1186C3.47155 10.1186 2.22058 11.1974 2.22058 12.5282C2.22058 13.859 3.47155 14.9379 5.0147 14.9379Z" stroke="white" stroke-miterlimit="10"/>
<path d="M5.17647 15.6227C6.71962 15.6227 7.97059 14.5439 7.97059 13.2131C7.97059 11.8823 6.71962 10.8034 5.17647 10.8034C3.63332 10.8034 2.38235 11.8823 2.38235 13.2131C2.38235 14.5439 3.63332 15.6227 5.17647 15.6227Z" stroke="white" stroke-miterlimit="10"/>
<path d="M5.41176 16.2949C6.95491 16.2949 8.20588 15.216 8.20588 13.8852C8.20588 12.5544 6.95491 11.4756 5.41176 11.4756C3.86861 11.4756 2.61765 12.5544 2.61765 13.8852C2.61765 15.216 3.86861 16.2949 5.41176 16.2949Z" stroke="white" stroke-miterlimit="10"/>
<path d="M5.72057 16.929C7.26372 16.929 8.51469 15.8501 8.51469 14.5193C8.51469 13.1885 7.26372 12.1097 5.72057 12.1097C4.17742 12.1097 2.92645 13.1885 2.92645 14.5193C2.92645 15.8501 4.17742 16.929 5.72057 16.929Z" stroke="white" stroke-miterlimit="10"/>
<path d="M6.08825 17.5377C7.63139 17.5377 8.88236 16.4589 8.88236 15.1281C8.88236 13.7973 7.63139 12.7184 6.08825 12.7184C4.5451 12.7184 3.29413 13.7973 3.29413 15.1281C3.29413 16.4589 4.5451 17.5377 6.08825 17.5377Z" stroke="white" stroke-miterlimit="10"/>
<path d="M6.54412 18.0958C8.08726 18.0958 9.33823 17.0169 9.33823 15.6861C9.33823 14.3553 8.08726 13.2765 6.54412 13.2765C5.00097 13.2765 3.75 14.3553 3.75 15.6861C3.75 17.0169 5.00097 18.0958 6.54412 18.0958Z" stroke="white" stroke-miterlimit="10"/>
<path d="M7.07354 18.603C8.61668 18.603 9.86765 17.5242 9.86765 16.1934C9.86765 14.8626 8.61668 13.7838 7.07354 13.7838C5.53039 13.7838 4.27942 14.8626 4.27942 16.1934C4.27942 17.5242 5.53039 18.603 7.07354 18.603Z" stroke="white" stroke-miterlimit="10"/>
<path d="M7.67647 19.0469C9.21962 19.0469 10.4706 17.9681 10.4706 16.6373C10.4706 15.3065 9.21962 14.2277 7.67647 14.2277C6.13332 14.2277 4.88235 15.3065 4.88235 16.6373C4.88235 17.9681 6.13332 19.0469 7.67647 19.0469Z" stroke="white" stroke-miterlimit="10"/>
<path d="M8.36763 19.4147C9.91078 19.4147 11.1618 18.3359 11.1618 17.0051C11.1618 15.6743 9.91078 14.5954 8.36763 14.5954C6.82449 14.5954 5.57352 15.6743 5.57352 17.0051C5.57352 18.3359 6.82449 19.4147 8.36763 19.4147Z" stroke="white" stroke-miterlimit="10"/>
<path d="M9.14705 19.7191C10.6902 19.7191 11.9412 18.6403 11.9412 17.3094C11.9412 15.9786 10.6902 14.8998 9.14705 14.8998C7.6039 14.8998 6.35294 15.9786 6.35294 17.3094C6.35294 18.6403 7.6039 19.7191 9.14705 19.7191Z" stroke="white" stroke-miterlimit="10"/>
<path d="M10.0294 19.9347C11.5726 19.9347 12.8235 18.8559 12.8235 17.5251C12.8235 16.1942 11.5726 15.1154 10.0294 15.1154C8.48626 15.1154 7.23529 16.1942 7.23529 17.5251C7.23529 18.8559 8.48626 19.9347 10.0294 19.9347Z" stroke="white" stroke-miterlimit="10"/>
<path d="M10.9853 20.0615C12.5284 20.0615 13.7794 18.9827 13.7794 17.6519C13.7794 16.321 12.5284 15.2422 10.9853 15.2422C9.44213 15.2422 8.19116 16.321 8.19116 17.6519C8.19116 18.9827 9.44213 20.0615 10.9853 20.0615Z" stroke="white" stroke-miterlimit="10"/>
<path d="M12.0294 20.0869C13.5726 20.0869 14.8235 19.008 14.8235 17.6772C14.8235 16.3464 13.5726 15.2676 12.0294 15.2676C10.4863 15.2676 9.23529 16.3464 9.23529 17.6772C9.23529 19.008 10.4863 20.0869 12.0294 20.0869Z" stroke="white" stroke-miterlimit="10"/>
<path d="M13 19.9981C14.5431 19.9981 15.7941 18.9193 15.7941 17.5885C15.7941 16.2577 14.5431 15.1788 13 15.1788C11.4568 15.1788 10.2059 16.2577 10.2059 17.5885C10.2059 18.9193 11.4568 19.9981 13 19.9981Z" stroke="white" stroke-miterlimit="10"/>
<path d="M13.8823 19.7952C15.4255 19.7952 16.6765 18.7163 16.6765 17.3855C16.6765 16.0547 15.4255 14.9759 13.8823 14.9759C12.3392 14.9759 11.0882 16.0547 11.0882 17.3855C11.0882 18.7163 12.3392 19.7952 13.8823 19.7952Z" stroke="white" stroke-miterlimit="10"/>
<path d="M14.6618 19.5035C16.2049 19.5035 17.4559 18.4246 17.4559 17.0938C17.4559 15.763 16.2049 14.6842 14.6618 14.6842C13.1186 14.6842 11.8676 15.763 11.8676 17.0938C11.8676 18.4246 13.1186 19.5035 14.6618 19.5035Z" stroke="white" stroke-miterlimit="10"/>
<path d="M15.3529 19.123C16.8961 19.123 18.147 18.0442 18.147 16.7134C18.147 15.3826 16.8961 14.3037 15.3529 14.3037C13.8098 14.3037 12.5588 15.3826 12.5588 16.7134C12.5588 18.0442 13.8098 19.123 15.3529 19.123Z" stroke="white" stroke-miterlimit="10"/>
<path d="M15.9706 18.6791C17.5137 18.6791 18.7647 17.6003 18.7647 16.2695C18.7647 14.9387 17.5137 13.8599 15.9706 13.8599C14.4275 13.8599 13.1765 14.9387 13.1765 16.2695C13.1765 17.6003 14.4275 18.6791 15.9706 18.6791Z" stroke="white" stroke-miterlimit="10"/>
<path d="M16.5 18.1591C18.0431 18.1591 19.2941 17.0803 19.2941 15.7495C19.2941 14.4187 18.0431 13.3399 16.5 13.3399C14.9568 13.3399 13.7059 14.4187 13.7059 15.7495C13.7059 17.0803 14.9568 18.1591 16.5 18.1591Z" stroke="white" stroke-miterlimit="10"/>
<path d="M16.9412 17.5758C18.4843 17.5758 19.7353 16.4969 19.7353 15.1661C19.7353 13.8353 18.4843 12.7565 16.9412 12.7565C15.398 12.7565 14.1471 13.8353 14.1471 15.1661C14.1471 16.4969 15.398 17.5758 16.9412 17.5758Z" stroke="white" stroke-miterlimit="10"/>
<path d="M17.3088 16.967C18.852 16.967 20.1029 15.8882 20.1029 14.5574C20.1029 13.2266 18.852 12.1477 17.3088 12.1477C15.7657 12.1477 14.5147 13.2266 14.5147 14.5574C14.5147 15.8882 15.7657 16.967 17.3088 16.967Z" stroke="white" stroke-miterlimit="10"/>
<path d="M17.6176 16.3076C19.1608 16.3076 20.4118 15.2287 20.4118 13.8979C20.4118 12.5671 19.1608 11.4883 17.6176 11.4883C16.0745 11.4883 14.8235 12.5671 14.8235 13.8979C14.8235 15.2287 16.0745 16.3076 17.6176 16.3076Z" stroke="white" stroke-miterlimit="10"/>
<path d="M17.8382 15.6227C19.3814 15.6227 20.6324 14.5439 20.6324 13.2131C20.6324 11.8823 19.3814 10.8034 17.8382 10.8034C16.2951 10.8034 15.0441 11.8823 15.0441 13.2131C15.0441 14.5439 16.2951 15.6227 17.8382 15.6227Z" stroke="white" stroke-miterlimit="10"/>
<path d="M18 14.9252C19.5431 14.9252 20.7941 13.8463 20.7941 12.5155C20.7941 11.1847 19.5431 10.1059 18 10.1059C16.4568 10.1059 15.2059 11.1847 15.2059 12.5155C15.2059 13.8463 16.4568 14.9252 18 14.9252Z" stroke="white" stroke-miterlimit="10"/>
<path d="M18.103 14.2277C19.6461 14.2277 20.8971 13.1488 20.8971 11.818C20.8971 10.4872 19.6461 9.40839 18.103 9.40839C16.5598 9.40839 15.3088 10.4872 15.3088 11.818C15.3088 13.1488 16.5598 14.2277 18.103 14.2277Z" stroke="white" stroke-miterlimit="10"/>
<path d="M18.1471 13.5301C19.6902 13.5301 20.9412 12.4513 20.9412 11.1205C20.9412 9.78968 19.6902 8.71085 18.1471 8.71085C16.6039 8.71085 15.3529 9.78968 15.3529 11.1205C15.3529 12.4513 16.6039 13.5301 18.1471 13.5301Z" stroke="white" stroke-miterlimit="10"/>
<path d="M18.1471 12.8072C19.6902 12.8072 20.9412 11.7284 20.9412 10.3976C20.9412 9.06678 19.6902 7.98795 18.1471 7.98795C16.6039 7.98795 15.3529 9.06678 15.3529 10.3976C15.3529 11.7284 16.6039 12.8072 18.1471 12.8072Z" stroke="white" stroke-miterlimit="10"/>
<path d="M18.1471 12.0844C19.6902 12.0844 20.9412 11.0055 20.9412 9.67471C20.9412 8.34391 19.6902 7.26508 18.1471 7.26508C16.6039 7.26508 15.3529 8.34391 15.3529 9.67471C15.3529 11.0055 16.6039 12.0844 18.1471 12.0844Z" stroke="white" stroke-miterlimit="10"/>
<path d="M18.1471 11.3615C19.6902 11.3615 20.9412 10.2826 20.9412 8.95181C20.9412 7.62101 19.6902 6.54218 18.1471 6.54218C16.6039 6.54218 15.3529 7.62101 15.3529 8.95181C15.3529 10.2826 16.6039 11.3615 18.1471 11.3615Z" stroke="white" stroke-miterlimit="10"/>
<path d="M18.1471 10.6385C19.6902 10.6385 20.9412 9.55972 20.9412 8.22891C20.9412 6.89811 19.6902 5.81927 18.1471 5.81927C16.6039 5.81927 15.3529 6.89811 15.3529 8.22891C15.3529 9.55972 16.6039 10.6385 18.1471 10.6385Z" stroke="white" stroke-miterlimit="10"/>
<path d="M18.1471 9.90298C19.6902 9.90298 20.9412 8.82415 20.9412 7.49335C20.9412 6.16254 19.6902 5.08371 18.1471 5.08371C16.6039 5.08371 15.3529 6.16254 15.3529 7.49335C15.3529 8.82415 16.6039 9.90298 18.1471 9.90298Z" stroke="white" stroke-miterlimit="10"/>
<path d="M18.1471 9.18008C19.6902 9.18008 20.9412 8.10125 20.9412 6.77045C20.9412 5.43964 19.6902 4.36081 18.1471 4.36081C16.6039 4.36081 15.3529 5.43964 15.3529 6.77045C15.3529 8.10125 16.6039 9.18008 18.1471 9.18008Z" stroke="white" stroke-miterlimit="10"/>
<path d="M18.1471 8.45721C19.6902 8.45721 20.9412 7.37838 20.9412 6.04758C20.9412 4.71677 19.6902 3.63794 18.1471 3.63794C16.6039 3.63794 15.3529 4.71677 15.3529 6.04758C15.3529 7.37838 16.6039 8.45721 18.1471 8.45721Z" stroke="white" stroke-miterlimit="10"/>
<path d="M18.1471 7.73431C19.6902 7.73431 20.9412 6.65548 20.9412 5.32468C20.9412 3.99387 19.6902 2.91504 18.1471 2.91504C16.6039 2.91504 15.3529 3.99387 15.3529 5.32468C15.3529 6.65548 16.6039 7.73431 18.1471 7.73431Z" stroke="white" stroke-miterlimit="10"/>
<path d="M18.1471 7.01141C19.6902 7.01141 20.9412 5.93258 20.9412 4.60178C20.9412 3.27097 19.6902 2.19214 18.1471 2.19214C16.6039 2.19214 15.3529 3.27097 15.3529 4.60178C15.3529 5.93258 16.6039 7.01141 18.1471 7.01141Z" stroke="white" stroke-miterlimit="10"/>
<path d="M18.1471 6.28854C19.6902 6.28854 20.9412 5.20971 20.9412 3.87891C20.9412 2.5481 19.6902 1.46927 18.1471 1.46927C16.6039 1.46927 15.3529 2.5481 15.3529 3.87891C15.3529 5.20971 16.6039 6.28854 18.1471 6.28854Z" stroke="white" stroke-miterlimit="10"/>
<path d="M18.6765 5.81927C20.2196 5.81927 21.4706 4.74044 21.4706 3.40964C21.4706 2.07883 20.2196 1 18.6765 1C17.1333 1 15.8824 2.07883 15.8824 3.40964C15.8824 4.74044 17.1333 5.81927 18.6765 5.81927Z" stroke="white" stroke-miterlimit="10"/>
</svg>
