<svg width="37" height="22" viewBox="0 0 37 22" fill="none" xmlns="http://www.w3.org/2000/svg">
<path d="M16.0301 13.2257C17.4099 13.2257 18.5285 12.1469 18.5285 10.8161C18.5285 9.4853 17.4099 8.40646 16.0301 8.40646C14.6502 8.40646 13.5316 9.4853 13.5316 10.8161C13.5316 12.1469 14.6502 13.2257 16.0301 13.2257Z" stroke="white" stroke-miterlimit="10"/>
<path d="M16.3982 13.0482C17.7781 13.0482 18.8967 11.9694 18.8967 10.6386C18.8967 9.30774 17.7781 8.22891 16.3982 8.22891C15.0184 8.22891 13.8998 9.30774 13.8998 10.6386C13.8998 11.9694 15.0184 13.0482 16.3982 13.0482Z" stroke="white" stroke-miterlimit="10"/>
<path d="M16.7664 12.8326C18.1463 12.8326 19.2649 11.7538 19.2649 10.4229C19.2649 9.09214 18.1463 8.01331 16.7664 8.01331C15.3866 8.01331 14.268 9.09214 14.268 10.4229C14.268 11.7538 15.3866 12.8326 16.7664 12.8326Z" stroke="white" stroke-miterlimit="10"/>
<path d="M17.1346 12.5536C18.5145 12.5536 19.6331 11.4748 19.6331 10.144C19.6331 8.81315 18.5145 7.73431 17.1346 7.73431C15.7548 7.73431 14.6362 8.81315 14.6362 10.144C14.6362 11.4748 15.7548 12.5536 17.1346 12.5536Z" stroke="white" stroke-miterlimit="10"/>
<path d="M17.4765 12.2112C18.8564 12.2112 19.975 11.1323 19.975 9.80151C19.975 8.47071 18.8564 7.39188 17.4765 7.39188C16.0967 7.39188 14.9781 8.47071 14.9781 9.80151C14.9781 11.1323 16.0967 12.2112 17.4765 12.2112Z" stroke="white" stroke-miterlimit="10"/>
<path d="M17.7921 11.7926C19.172 11.7926 20.2905 10.7138 20.2905 9.383C20.2905 8.05219 19.172 6.97336 17.7921 6.97336C16.4123 6.97336 15.2937 8.05219 15.2937 9.383C15.2937 10.7138 16.4123 11.7926 17.7921 11.7926Z" stroke="white" stroke-miterlimit="10"/>
<path d="M18.042 11.298C19.4218 11.298 20.5404 10.2192 20.5404 8.8884C20.5404 7.55759 19.4218 6.47876 18.042 6.47876C16.6621 6.47876 15.5435 7.55759 15.5435 8.8884C15.5435 10.2192 16.6621 11.298 18.042 11.298Z" stroke="white" stroke-miterlimit="10"/>
<path d="M18.2129 10.7146C19.5928 10.7146 20.7113 9.6358 20.7113 8.30499C20.7113 6.97419 19.5928 5.89536 18.2129 5.89536C16.8331 5.89536 15.7145 6.97419 15.7145 8.30499C15.7145 9.6358 16.8331 10.7146 18.2129 10.7146Z" stroke="white" stroke-miterlimit="10"/>
<path d="M18.305 10.0298C19.6848 10.0298 20.8034 8.95099 20.8034 7.62018C20.8034 6.28937 19.6848 5.21054 18.305 5.21054C16.9251 5.21054 15.8065 6.28937 15.8065 7.62018C15.8065 8.95099 16.9251 10.0298 18.305 10.0298Z" stroke="white" stroke-miterlimit="10"/>
<path d="M18.305 9.44641C19.6848 9.44641 20.8034 8.36758 20.8034 7.03677C20.8034 5.70597 19.6848 4.62714 18.305 4.62714C16.9251 4.62714 15.8065 5.70597 15.8065 7.03677C15.8065 8.36758 16.9251 9.44641 18.305 9.44641Z" stroke="white" stroke-miterlimit="10"/>
<path d="M18.2261 8.92645C19.6059 8.92645 20.7245 7.84762 20.7245 6.51682C20.7245 5.18601 19.6059 4.10718 18.2261 4.10718C16.8462 4.10718 15.7276 5.18601 15.7276 6.51682C15.7276 7.84762 16.8462 8.92645 18.2261 8.92645Z" stroke="white" stroke-miterlimit="10"/>
<path d="M18.0946 8.41916C19.4744 8.41916 20.593 7.34033 20.593 6.00952C20.593 4.67872 19.4744 3.59988 18.0946 3.59988C16.7147 3.59988 15.5961 4.67872 15.5961 6.00952C15.5961 7.34033 16.7147 8.41916 18.0946 8.41916Z" stroke="white" stroke-miterlimit="10"/>
<path d="M17.8842 7.94989C19.264 7.94989 20.3826 6.87106 20.3826 5.54025C20.3826 4.20945 19.264 3.13062 17.8842 3.13062C16.5043 3.13062 15.3857 4.20945 15.3857 5.54025C15.3857 6.87106 16.5043 7.94989 17.8842 7.94989Z" stroke="white" stroke-miterlimit="10"/>
<path d="M17.6212 7.50601C19.001 7.50601 20.1196 6.42718 20.1196 5.09638C20.1196 3.76557 19.001 2.68674 17.6212 2.68674C16.2413 2.68674 15.1227 3.76557 15.1227 5.09638C15.1227 6.42718 16.2413 7.50601 17.6212 7.50601Z" stroke="white" stroke-miterlimit="10"/>
<path d="M17.2924 7.10019C18.6723 7.10019 19.7909 6.02136 19.7909 4.69055C19.7909 3.35975 18.6723 2.28091 17.2924 2.28091C15.9126 2.28091 14.794 3.35975 14.794 4.69055C14.794 6.02136 15.9126 7.10019 17.2924 7.10019Z" stroke="white" stroke-miterlimit="10"/>
<path d="M16.8979 6.73239C18.2778 6.73239 19.3964 5.65356 19.3964 4.32275C19.3964 2.99195 18.2778 1.91312 16.8979 1.91312C15.5181 1.91312 14.3995 2.99195 14.3995 4.32275C14.3995 5.65356 15.5181 6.73239 16.8979 6.73239Z" stroke="white" stroke-miterlimit="10"/>
<path d="M16.464 6.42801C17.8439 6.42801 18.9624 5.34918 18.9624 4.01837C18.9624 2.68757 17.8439 1.60873 16.464 1.60873C15.0842 1.60873 13.9656 2.68757 13.9656 4.01837C13.9656 5.34918 15.0842 6.42801 16.464 6.42801Z" stroke="white" stroke-miterlimit="10"/>
<path d="M15.9906 6.17438C17.3705 6.17438 18.4891 5.09555 18.4891 3.76474C18.4891 2.43393 17.3705 1.3551 15.9906 1.3551C14.6108 1.3551 13.4922 2.43393 13.4922 3.76474C13.4922 5.09555 14.6108 6.17438 15.9906 6.17438Z" stroke="white" stroke-miterlimit="10"/>
<path d="M15.4909 5.98413C16.8708 5.98413 17.9894 4.9053 17.9894 3.57449C17.9894 2.24369 16.8708 1.16486 15.4909 1.16486C14.1111 1.16486 12.9925 2.24369 12.9925 3.57449C12.9925 4.9053 14.1111 5.98413 15.4909 5.98413Z" stroke="white" stroke-miterlimit="10"/>
<path d="M14.9781 5.87C16.3579 5.87 17.4765 4.79116 17.4765 3.46036C17.4765 2.12955 16.3579 1.05072 14.9781 1.05072C13.5982 1.05072 12.4796 2.12955 12.4796 3.46036C12.4796 4.79116 13.5982 5.87 14.9781 5.87Z" stroke="white" stroke-miterlimit="10"/>
<path d="M14.4521 5.81928C15.832 5.81928 16.9505 4.74044 16.9505 3.40964C16.9505 2.07883 15.832 1 14.4521 1C13.0723 1 11.9537 2.07883 11.9537 3.40964C11.9537 4.74044 13.0723 5.81928 14.4521 5.81928Z" stroke="white" stroke-miterlimit="10"/>
<path d="M13.913 5.81928C15.2928 5.81928 16.4114 4.74044 16.4114 3.40964C16.4114 2.07883 15.2928 1 13.913 1C12.5331 1 11.4145 2.07883 11.4145 3.40964C11.4145 4.74044 12.5331 5.81928 13.913 5.81928Z" stroke="white" stroke-miterlimit="10"/>
<path d="M13.3738 5.81928C14.7537 5.81928 15.8723 4.74044 15.8723 3.40964C15.8723 2.07883 14.7537 1 13.3738 1C11.994 1 10.8754 2.07883 10.8754 3.40964C10.8754 4.74044 11.994 5.81928 13.3738 5.81928Z" stroke="white" stroke-miterlimit="10"/>
<path d="M12.8347 5.81928C14.2145 5.81928 15.3331 4.74044 15.3331 3.40964C15.3331 2.07883 14.2145 1 12.8347 1C11.4548 1 10.3362 2.07883 10.3362 3.40964C10.3362 4.74044 11.4548 5.81928 12.8347 5.81928Z" stroke="white" stroke-miterlimit="10"/>
<path d="M12.2956 5.81928C13.6754 5.81928 14.794 4.74044 14.794 3.40964C14.794 2.07883 13.6754 1 12.2956 1C10.9157 1 9.79712 2.07883 9.79712 3.40964C9.79712 4.74044 10.9157 5.81928 12.2956 5.81928Z" stroke="white" stroke-miterlimit="10"/>
<path d="M11.7564 5.81928C13.1363 5.81928 14.2549 4.74044 14.2549 3.40964C14.2549 2.07883 13.1363 1 11.7564 1C10.3766 1 9.258 2.07883 9.258 3.40964C9.258 4.74044 10.3766 5.81928 11.7564 5.81928Z" stroke="white" stroke-miterlimit="10"/>
<path d="M11.2173 5.81928C12.5971 5.81928 13.7157 4.74044 13.7157 3.40964C13.7157 2.07883 12.5971 1 11.2173 1C9.83743 1 8.71884 2.07883 8.71884 3.40964C8.71884 4.74044 9.83743 5.81928 11.2173 5.81928Z" stroke="white" stroke-miterlimit="10"/>
<path d="M10.6782 5.81928C12.058 5.81928 13.1766 4.74044 13.1766 3.40964C13.1766 2.07883 12.058 1 10.6782 1C9.29831 1 8.17972 2.07883 8.17972 3.40964C8.17972 4.74044 9.29831 5.81928 10.6782 5.81928Z" stroke="white" stroke-miterlimit="10"/>
<path d="M10.139 5.81928C11.5188 5.81928 12.6374 4.74044 12.6374 3.40964C12.6374 2.07883 11.5188 1 10.139 1C8.75915 1 7.64056 2.07883 7.64056 3.40964C7.64056 4.74044 8.75915 5.81928 10.139 5.81928Z" stroke="white" stroke-miterlimit="10"/>
<path d="M9.59988 5.81928C10.9797 5.81928 12.0983 4.74044 12.0983 3.40964C12.0983 2.07883 10.9797 1 9.59988 1C8.22003 1 7.10144 2.07883 7.10144 3.40964C7.10144 4.74044 8.22003 5.81928 9.59988 5.81928Z" stroke="white" stroke-miterlimit="10"/>
<path d="M9.06075 5.81928C10.4406 5.81928 11.5592 4.74044 11.5592 3.40964C11.5592 2.07883 10.4406 1 9.06075 1C7.6809 1 6.56232 2.07883 6.56232 3.40964C6.56232 4.74044 7.6809 5.81928 9.06075 5.81928Z" stroke="white" stroke-miterlimit="10"/>
<path d="M8.5216 5.81928C9.90145 5.81928 11.02 4.74044 11.02 3.40964C11.02 2.07883 9.90145 1 8.5216 1C7.14175 1 6.02316 2.07883 6.02316 3.40964C6.02316 4.74044 7.14175 5.81928 8.5216 5.81928Z" stroke="white" stroke-miterlimit="10"/>
<path d="M7.99563 5.81928C9.37548 5.81928 10.4941 4.74044 10.4941 3.40964C10.4941 2.07883 9.37548 1 7.99563 1C6.61578 1 5.49719 2.07883 5.49719 3.40964C5.49719 4.74044 6.61578 5.81928 7.99563 5.81928Z" stroke="white" stroke-miterlimit="10"/>
<path d="M7.4565 5.81928C8.83635 5.81928 9.95494 4.74044 9.95494 3.40964C9.95494 2.07883 8.83635 1 7.4565 1C6.07666 1 4.95807 2.07883 4.95807 3.40964C4.95807 4.74044 6.07666 5.81928 7.4565 5.81928Z" stroke="white" stroke-miterlimit="10"/>
<path d="M6.91735 5.81928C8.2972 5.81928 9.41579 4.74044 9.41579 3.40964C9.41579 2.07883 8.2972 1 6.91735 1C5.5375 1 4.41891 2.07883 4.41891 3.40964C4.41891 4.74044 5.5375 5.81928 6.91735 5.81928Z" stroke="white" stroke-miterlimit="10"/>
<path d="M6.37823 5.81928C7.75807 5.81928 8.87666 4.74044 8.87666 3.40964C8.87666 2.07883 7.75807 1 6.37823 1C4.99838 1 3.87979 2.07883 3.87979 3.40964C3.87979 4.74044 4.99838 5.81928 6.37823 5.81928Z" stroke="white" stroke-miterlimit="10"/>
<path d="M5.83907 5.81928C7.21892 5.81928 8.33751 4.74044 8.33751 3.40964C8.33751 2.07883 7.21892 1 5.83907 1C4.45922 1 3.34064 2.07883 3.34064 3.40964C3.34064 4.74044 4.45922 5.81928 5.83907 5.81928Z" stroke="white" stroke-miterlimit="10"/>
<path d="M5.26049 5.83194C6.64034 5.83194 7.75892 4.75311 7.75892 3.4223C7.75892 2.0915 6.64034 1.01266 5.26049 1.01266C3.88064 1.01266 2.76205 2.0915 2.76205 3.4223C2.76205 4.75311 3.88064 5.83194 5.26049 5.83194Z" stroke="white" stroke-miterlimit="10"/>
<path d="M4.72137 5.95877C6.10121 5.95877 7.2198 4.87994 7.2198 3.54913C7.2198 2.21833 6.10121 1.1395 4.72137 1.1395C3.34152 1.1395 2.22293 2.21833 2.22293 3.54913C2.22293 4.87994 3.34152 5.95877 4.72137 5.95877Z" stroke="white" stroke-miterlimit="10"/>
<path d="M4.27425 6.18707C5.6541 6.18707 6.77269 5.10824 6.77269 3.77744C6.77269 2.44663 5.6541 1.3678 4.27425 1.3678C2.89441 1.3678 1.77582 2.44663 1.77582 3.77744C1.77582 5.10824 2.89441 6.18707 4.27425 6.18707Z" stroke="white" stroke-miterlimit="10"/>
<path d="M3.91921 6.51682C5.29906 6.51682 6.41765 5.43798 6.41765 4.10718C6.41765 2.77637 5.29906 1.69754 3.91921 1.69754C2.53936 1.69754 1.42078 2.77637 1.42078 4.10718C1.42078 5.43798 2.53936 6.51682 3.91921 6.51682Z" stroke="white" stroke-miterlimit="10"/>
<path d="M3.66939 6.9353C5.04924 6.9353 6.16783 5.85647 6.16783 4.52567C6.16783 3.19486 5.04924 2.11603 3.66939 2.11603C2.28955 2.11603 1.17096 3.19486 1.17096 4.52567C1.17096 5.85647 2.28955 6.9353 3.66939 6.9353Z" stroke="white" stroke-miterlimit="10"/>
<path d="M3.52474 7.4426C4.90459 7.4426 6.02318 6.36377 6.02318 5.03296C6.02318 3.70215 4.90459 2.62332 3.52474 2.62332C2.14489 2.62332 1.02631 3.70215 1.02631 5.03296C1.02631 6.36377 2.14489 7.4426 3.52474 7.4426Z" stroke="white" stroke-miterlimit="10"/>
<path d="M3.49844 8.00064C4.87828 8.00064 5.99687 6.92181 5.99687 5.591C5.99687 4.2602 4.87828 3.18137 3.49844 3.18137C2.11859 3.18137 1 4.2602 1 5.591C1 6.92181 2.11859 8.00064 3.49844 8.00064Z" stroke="white" stroke-miterlimit="10"/>
<path d="M3.49844 8.5206C4.87828 8.5206 5.99687 7.44177 5.99687 6.11096C5.99687 4.78016 4.87828 3.70132 3.49844 3.70132C2.11859 3.70132 1 4.78016 1 6.11096C1 7.44177 2.11859 8.5206 3.49844 8.5206Z" stroke="white" stroke-miterlimit="10"/>
<path d="M3.49844 9.04059C4.87828 9.04059 5.99687 7.96176 5.99687 6.63095C5.99687 5.30015 4.87828 4.22131 3.49844 4.22131C2.11859 4.22131 1 5.30015 1 6.63095C1 7.96176 2.11859 9.04059 3.49844 9.04059Z" stroke="white" stroke-miterlimit="10"/>
<path d="M3.49844 9.56055C4.87828 9.56055 5.99687 8.48172 5.99687 7.15091C5.99687 5.8201 4.87828 4.74127 3.49844 4.74127C2.11859 4.74127 1 5.8201 1 7.15091C1 8.48172 2.11859 9.56055 3.49844 9.56055Z" stroke="white" stroke-miterlimit="10"/>
<path d="M3.49844 10.0805C4.87828 10.0805 5.99687 9.00171 5.99687 7.6709C5.99687 6.34009 4.87828 5.26126 3.49844 5.26126C2.11859 5.26126 1 6.34009 1 7.6709C1 9.00171 2.11859 10.0805 3.49844 10.0805Z" stroke="white" stroke-miterlimit="10"/>
<path d="M3.49844 10.6005C4.87828 10.6005 5.99687 9.52166 5.99687 8.19086C5.99687 6.86005 4.87828 5.78122 3.49844 5.78122C2.11859 5.78122 1 6.86005 1 8.19086C1 9.52166 2.11859 10.6005 3.49844 10.6005Z" stroke="white" stroke-miterlimit="10"/>
<path d="M3.49844 11.1205C4.87828 11.1205 5.99687 10.0417 5.99687 8.71085C5.99687 7.38004 4.87828 6.30121 3.49844 6.30121C2.11859 6.30121 1 7.38004 1 8.71085C1 10.0417 2.11859 11.1205 3.49844 11.1205Z" stroke="white" stroke-miterlimit="10"/>
<path d="M3.49844 11.6404C4.87828 11.6404 5.99687 10.5616 5.99687 9.23081C5.99687 7.9 4.87828 6.82117 3.49844 6.82117C2.11859 6.82117 1 7.9 1 9.23081C1 10.5616 2.11859 11.6404 3.49844 11.6404Z" stroke="white" stroke-miterlimit="10"/>
<path d="M3.49844 12.1604C4.87828 12.1604 5.99687 11.0816 5.99687 9.75079C5.99687 8.41999 4.87828 7.34116 3.49844 7.34116C2.11859 7.34116 1 8.41999 1 9.75079C1 11.0816 2.11859 12.1604 3.49844 12.1604Z" stroke="white" stroke-miterlimit="10"/>
<path d="M3.49844 12.6804C4.87828 12.6804 5.99687 11.6016 5.99687 10.2708C5.99687 8.93995 4.87828 7.86111 3.49844 7.86111C2.11859 7.86111 1 8.93995 1 10.2708C1 11.6016 2.11859 12.6804 3.49844 12.6804Z" stroke="white" stroke-miterlimit="10"/>
<path d="M3.49844 13.2004C4.87828 13.2004 5.99687 12.1215 5.99687 10.7907C5.99687 9.45993 4.87828 8.3811 3.49844 8.3811C2.11859 8.3811 1 9.45993 1 10.7907C1 12.1215 2.11859 13.2004 3.49844 13.2004Z" stroke="white" stroke-miterlimit="10"/>
<path d="M3.49844 13.7203C4.87828 13.7203 5.99687 12.6415 5.99687 11.3107C5.99687 9.97989 4.87828 8.90106 3.49844 8.90106C2.11859 8.90106 1 9.97989 1 11.3107C1 12.6415 2.11859 13.7203 3.49844 13.7203Z" stroke="white" stroke-miterlimit="10"/>
<path d="M3.49844 14.2403C4.87828 14.2403 5.99687 13.1615 5.99687 11.8307C5.99687 10.4999 4.87828 9.42105 3.49844 9.42105C2.11859 9.42105 1 10.4999 1 11.8307C1 13.1615 2.11859 14.2403 3.49844 14.2403Z" stroke="white" stroke-miterlimit="10"/>
<path d="M3.49844 14.7603C4.87828 14.7603 5.99687 13.6815 5.99687 12.3507C5.99687 11.0199 4.87828 9.94104 3.49844 9.94104C2.11859 9.94104 1 11.0199 1 12.3507C1 13.6815 2.11859 14.7603 3.49844 14.7603Z" stroke="white" stroke-miterlimit="10"/>
<path d="M3.49844 15.2803C4.87828 15.2803 5.99687 14.2014 5.99687 12.8706C5.99687 11.5398 4.87828 10.461 3.49844 10.461C2.11859 10.461 1 11.5398 1 12.8706C1 14.2014 2.11859 15.2803 3.49844 15.2803Z" stroke="white" stroke-miterlimit="10"/>
<path d="M3.49844 15.8003C4.87828 15.8003 5.99687 14.7214 5.99687 13.3906C5.99687 12.0598 4.87828 10.981 3.49844 10.981C2.11859 10.981 1 12.0598 1 13.3906C1 14.7214 2.11859 15.8003 3.49844 15.8003Z" stroke="white" stroke-miterlimit="10"/>
<path d="M3.49844 16.3076C4.87828 16.3076 5.99687 15.2287 5.99687 13.8979C5.99687 12.5671 4.87828 11.4883 3.49844 11.4883C2.11859 11.4883 1 12.5671 1 13.8979C1 15.2287 2.11859 16.3076 3.49844 16.3076Z" stroke="white" stroke-miterlimit="10"/>
<path d="M3.49844 16.8275C4.87828 16.8275 5.99687 15.7487 5.99687 14.4179C5.99687 13.0871 4.87828 12.0082 3.49844 12.0082C2.11859 12.0082 1 13.0871 1 14.4179C1 15.7487 2.11859 16.8275 3.49844 16.8275Z" stroke="white" stroke-miterlimit="10"/>
<path d="M3.49844 17.3475C4.87828 17.3475 5.99687 16.2687 5.99687 14.9379C5.99687 13.6071 4.87828 12.5282 3.49844 12.5282C2.11859 12.5282 1 13.6071 1 14.9379C1 16.2687 2.11859 17.3475 3.49844 17.3475Z" stroke="white" stroke-miterlimit="10"/>
<path d="M3.49844 17.8675C4.87828 17.8675 5.99687 16.7886 5.99687 15.4578C5.99687 14.127 4.87828 13.0482 3.49844 13.0482C2.11859 13.0482 1 14.127 1 15.4578C1 16.7886 2.11859 17.8675 3.49844 17.8675Z" stroke="white" stroke-miterlimit="10"/>
<path d="M3.49844 18.3875C4.87828 18.3875 5.99687 17.3086 5.99687 15.9778C5.99687 14.647 4.87828 13.5682 3.49844 13.5682C2.11859 13.5682 1 14.647 1 15.9778C1 17.3086 2.11859 18.3875 3.49844 18.3875Z" stroke="white" stroke-miterlimit="10"/>
<path d="M3.49844 18.9074C4.87828 18.9074 5.99687 17.8286 5.99687 16.4978C5.99687 15.167 4.87828 14.0881 3.49844 14.0881C2.11859 14.0881 1 15.167 1 16.4978C1 17.8286 2.11859 18.9074 3.49844 18.9074Z" stroke="white" stroke-miterlimit="10"/>
<path d="M3.55105 19.5288C4.9309 19.5288 6.04948 18.45 6.04948 17.1192C6.04948 15.7884 4.9309 14.7096 3.55105 14.7096C2.1712 14.7096 1.05261 15.7884 1.05261 17.1192C1.05261 18.45 2.1712 19.5288 3.55105 19.5288Z" stroke="white" stroke-miterlimit="10"/>
<path d="M3.69567 20.0361C5.07552 20.0361 6.19411 18.9573 6.19411 17.6265C6.19411 16.2957 5.07552 15.2169 3.69567 15.2169C2.31582 15.2169 1.19724 16.2957 1.19724 17.6265C1.19724 18.9573 2.31582 20.0361 3.69567 20.0361Z" stroke="white" stroke-miterlimit="10"/>
<path d="M3.9324 20.4293C5.31224 20.4293 6.43083 19.3505 6.43083 18.0197C6.43083 16.6888 5.31224 15.61 3.9324 15.61C2.55255 15.61 1.43396 16.6888 1.43396 18.0197C1.43396 19.3505 2.55255 20.4293 3.9324 20.4293Z" stroke="white" stroke-miterlimit="10"/>
<path d="M4.28741 20.7337C5.66725 20.7337 6.78584 19.6548 6.78584 18.324C6.78584 16.9932 5.66725 15.9144 4.28741 15.9144C2.90756 15.9144 1.78897 16.9932 1.78897 18.324C1.78897 19.6548 2.90756 20.7337 4.28741 20.7337Z" stroke="white" stroke-miterlimit="10"/>
<path d="M4.73452 20.9112C6.11437 20.9112 7.23295 19.8324 7.23295 18.5016C7.23295 17.1708 6.11437 16.0919 4.73452 16.0919C3.35467 16.0919 2.23608 17.1708 2.23608 18.5016C2.23608 19.8324 3.35467 20.9112 4.73452 20.9112Z" stroke="white" stroke-miterlimit="10"/>
<path d="M5.29992 21C6.67977 21 7.79835 19.9212 7.79835 18.5904C7.79835 17.2596 6.67977 16.1807 5.29992 16.1807C3.92007 16.1807 2.80148 17.2596 2.80148 18.5904C2.80148 19.9212 3.92007 21 5.29992 21Z" stroke="white" stroke-miterlimit="10"/>
<path d="M5.86538 21C7.24523 21 8.36381 19.9212 8.36381 18.5904C8.36381 17.2596 7.24523 16.1807 5.86538 16.1807C4.48553 16.1807 3.36694 17.2596 3.36694 18.5904C3.36694 19.9212 4.48553 21 5.86538 21Z" stroke="white" stroke-miterlimit="10"/>
<path d="M6.40453 21C7.78438 21 8.90297 19.9212 8.90297 18.5904C8.90297 17.2596 7.78438 16.1807 6.40453 16.1807C5.02469 16.1807 3.9061 17.2596 3.9061 18.5904C3.9061 19.9212 5.02469 21 6.40453 21Z" stroke="white" stroke-miterlimit="10"/>
<path d="M6.94363 21C8.32347 21 9.44206 19.9212 9.44206 18.5904C9.44206 17.2596 8.32347 16.1807 6.94363 16.1807C5.56378 16.1807 4.44519 17.2596 4.44519 18.5904C4.44519 19.9212 5.56378 21 6.94363 21Z" stroke="white" stroke-miterlimit="10"/>
<path d="M33.4984 18.8193C34.8783 18.8193 35.9969 17.7404 35.9969 16.4096C35.9969 15.0788 34.8783 14 33.4984 14C32.1186 14 31 15.0788 31 16.4096C31 17.7404 32.1186 18.8193 33.4984 18.8193Z" stroke="white" stroke-miterlimit="10"/>
<path d="M8.02193 21C9.40178 21 10.5204 19.9212 10.5204 18.5904C10.5204 17.2596 9.40178 16.1807 8.02193 16.1807C6.64209 16.1807 5.5235 17.2596 5.5235 18.5904C5.5235 19.9212 6.64209 21 8.02193 21Z" stroke="white" stroke-miterlimit="10"/>
<path d="M8.56106 21C9.94091 21 11.0595 19.9212 11.0595 18.5904C11.0595 17.2596 9.94091 16.1807 8.56106 16.1807C7.18121 16.1807 6.06262 17.2596 6.06262 18.5904C6.06262 19.9212 7.18121 21 8.56106 21Z" stroke="white" stroke-miterlimit="10"/>
<path d="M9.10021 21C10.4801 21 11.5986 19.9212 11.5986 18.5904C11.5986 17.2596 10.4801 16.1807 9.10021 16.1807C7.72036 16.1807 6.60178 17.2596 6.60178 18.5904C6.60178 19.9212 7.72036 21 9.10021 21Z" stroke="white" stroke-miterlimit="10"/>
<path d="M9.6393 21C11.0192 21 12.1377 19.9212 12.1377 18.5904C12.1377 17.2596 11.0192 16.1807 9.6393 16.1807C8.25946 16.1807 7.14087 17.2596 7.14087 18.5904C7.14087 19.9212 8.25946 21 9.6393 21Z" stroke="white" stroke-miterlimit="10"/>
<path d="M10.1785 21C11.5583 21 12.6769 19.9212 12.6769 18.5904C12.6769 17.2596 11.5583 16.1807 10.1785 16.1807C8.79861 16.1807 7.68002 17.2596 7.68002 18.5904C7.68002 19.9212 8.79861 21 10.1785 21Z" stroke="white" stroke-miterlimit="10"/>
<path d="M10.7176 21C12.0975 21 13.216 19.9212 13.216 18.5904C13.216 17.2596 12.0975 16.1807 10.7176 16.1807C9.33776 16.1807 8.21918 17.2596 8.21918 18.5904C8.21918 19.9212 9.33776 21 10.7176 21Z" stroke="white" stroke-miterlimit="10"/>
<path d="M11.2567 21C12.6366 21 13.7552 19.9212 13.7552 18.5904C13.7552 17.2596 12.6366 16.1807 11.2567 16.1807C9.87689 16.1807 8.7583 17.2596 8.7583 18.5904C8.7583 19.9212 9.87689 21 11.2567 21Z" stroke="white" stroke-miterlimit="10"/>
<path d="M11.7827 21C13.1626 21 14.2811 19.9212 14.2811 18.5904C14.2811 17.2596 13.1626 16.1807 11.7827 16.1807C10.4029 16.1807 9.28427 17.2596 9.28427 18.5904C9.28427 19.9212 10.4029 21 11.7827 21Z" stroke="white" stroke-miterlimit="10"/>
<path d="M12.3219 21C13.7017 21 14.8203 19.9212 14.8203 18.5904C14.8203 17.2596 13.7017 16.1807 12.3219 16.1807C10.942 16.1807 9.82343 17.2596 9.82343 18.5904C9.82343 19.9212 10.942 21 12.3219 21Z" stroke="white" stroke-miterlimit="10"/>
<path d="M12.861 21C14.2408 21 15.3594 19.9212 15.3594 18.5904C15.3594 17.2596 14.2408 16.1807 12.861 16.1807C11.4811 16.1807 10.3625 17.2596 10.3625 18.5904C10.3625 19.9212 11.4811 21 12.861 21Z" stroke="white" stroke-miterlimit="10"/>
<path d="M13.4001 21C14.78 21 15.8986 19.9212 15.8986 18.5904C15.8986 17.2596 14.78 16.1807 13.4001 16.1807C12.0203 16.1807 10.9017 17.2596 10.9017 18.5904C10.9017 19.9212 12.0203 21 13.4001 21Z" stroke="white" stroke-miterlimit="10"/>
<path d="M13.9393 21C15.3191 21 16.4377 19.9212 16.4377 18.5904C16.4377 17.2596 15.3191 16.1807 13.9393 16.1807C12.5594 16.1807 11.4408 17.2596 11.4408 18.5904C11.4408 19.9212 12.5594 21 13.9393 21Z" stroke="white" stroke-miterlimit="10"/>
<path d="M14.4784 21C15.8583 21 16.9769 19.9212 16.9769 18.5904C16.9769 17.2596 15.8583 16.1807 14.4784 16.1807C13.0986 16.1807 11.98 17.2596 11.98 18.5904C11.98 19.9212 13.0986 21 14.4784 21Z" stroke="white" stroke-miterlimit="10"/>
<path d="M15.0175 21C16.3974 21 17.516 19.9212 17.516 18.5904C17.516 17.2596 16.3974 16.1807 15.0175 16.1807C13.6377 16.1807 12.5191 17.2596 12.5191 18.5904C12.5191 19.9212 13.6377 21 15.0175 21Z" stroke="white" stroke-miterlimit="10"/>
<path d="M15.5567 21C16.9365 21 18.0551 19.9212 18.0551 18.5904C18.0551 17.2596 16.9365 16.1807 15.5567 16.1807C14.1768 16.1807 13.0582 17.2596 13.0582 18.5904C13.0582 19.9212 14.1768 21 15.5567 21Z" stroke="white" stroke-miterlimit="10"/>
<path d="M16.1221 20.9873C17.502 20.9873 18.6206 19.9085 18.6206 18.5777C18.6206 17.2469 17.502 16.168 16.1221 16.168C14.7423 16.168 13.6237 17.2469 13.6237 18.5777C13.6237 19.9085 14.7423 20.9873 16.1221 20.9873Z" stroke="white" stroke-miterlimit="10"/>
<path d="M16.6744 20.8985C18.0542 20.8985 19.1728 19.8197 19.1728 18.4889C19.1728 17.1581 18.0542 16.0793 16.6744 16.0793C15.2946 16.0793 14.176 17.1581 14.176 18.4889C14.176 19.8197 15.2946 20.8985 16.6744 20.8985Z" stroke="white" stroke-miterlimit="10"/>
<path d="M17.1741 20.7463C18.5539 20.7463 19.6725 19.6675 19.6725 18.3367C19.6725 17.0059 18.5539 15.9271 17.1741 15.9271C15.7942 15.9271 14.6757 17.0059 14.6757 18.3367C14.6757 19.6675 15.7942 20.7463 17.1741 20.7463Z" stroke="white" stroke-miterlimit="10"/>
<path d="M17.6343 20.5434C19.0142 20.5434 20.1328 19.4646 20.1328 18.1338C20.1328 16.803 19.0142 15.7242 17.6343 15.7242C16.2545 15.7242 15.1359 16.803 15.1359 18.1338C15.1359 19.4646 16.2545 20.5434 17.6343 20.5434Z" stroke="white" stroke-miterlimit="10"/>
<path d="M18.0551 20.2771C19.435 20.2771 20.5535 19.1983 20.5535 17.8675C20.5535 16.5367 19.435 15.4578 18.0551 15.4578C16.6753 15.4578 15.5567 16.5367 15.5567 17.8675C15.5567 19.1983 16.6753 20.2771 18.0551 20.2771Z" stroke="white" stroke-miterlimit="10"/>
<path d="M18.4233 19.9474C19.8031 19.9474 20.9217 18.8685 20.9217 17.5377C20.9217 16.2069 19.8031 15.1281 18.4233 15.1281C17.0435 15.1281 15.9249 16.2069 15.9249 17.5377C15.9249 18.8685 17.0435 19.9474 18.4233 19.9474Z" stroke="white" stroke-miterlimit="10"/>
<path d="M18.7389 19.5796C20.1187 19.5796 21.2373 18.5008 21.2373 17.17C21.2373 15.8391 20.1187 14.7603 18.7389 14.7603C17.359 14.7603 16.2404 15.8391 16.2404 17.17C16.2404 18.5008 17.359 19.5796 18.7389 19.5796Z" stroke="white" stroke-miterlimit="10"/>
<path d="M19.0019 19.1611C20.3817 19.1611 21.5003 18.0822 21.5003 16.7514C21.5003 15.4206 20.3817 14.3418 19.0019 14.3418C17.622 14.3418 16.5034 15.4206 16.5034 16.7514C16.5034 18.0822 17.622 19.1611 19.0019 19.1611Z" stroke="white" stroke-miterlimit="10"/>
<path d="M19.2123 18.6791C20.5921 18.6791 21.7107 17.6003 21.7107 16.2695C21.7107 14.9387 20.5921 13.8599 19.2123 13.8599C17.8324 13.8599 16.7138 14.9387 16.7138 16.2695C16.7138 17.6003 17.8324 18.6791 19.2123 18.6791Z" stroke="white" stroke-miterlimit="10"/>
<path d="M19.3701 18.1718C20.7499 18.1718 21.8685 17.093 21.8685 15.7622C21.8685 14.4314 20.7499 13.3526 19.3701 13.3526C17.9902 13.3526 16.8716 14.4314 16.8716 15.7622C16.8716 17.093 17.9902 18.1718 19.3701 18.1718Z" stroke="white" stroke-miterlimit="10"/>
<path d="M17.4984 16.8193C18.8783 16.8193 19.9969 15.7404 19.9969 14.4096C19.9969 13.0788 18.8783 12 17.4984 12C16.1186 12 15 13.0788 15 14.4096C15 15.7404 16.1186 16.8193 17.4984 16.8193Z" stroke="white" stroke-miterlimit="10"/>
<path d="M18.4984 17.8193C19.8783 17.8193 20.9969 16.7404 20.9969 15.4096C20.9969 14.0788 19.8783 13 18.4984 13C17.1186 13 16 14.0788 16 15.4096C16 16.7404 17.1186 17.8193 18.4984 17.8193Z" stroke="white" stroke-miterlimit="10"/>
<path d="M19.5016 17.0178C20.8814 17.0178 22 15.9389 22 14.6081C22 13.2773 20.8814 12.1985 19.5016 12.1985C18.1217 12.1985 17.0031 13.2773 17.0031 14.6081C17.0031 15.9389 18.1217 17.0178 19.5016 17.0178Z" stroke="white" stroke-miterlimit="10"/>
<path d="M18.4984 16.8193C19.8783 16.8193 20.9969 15.7404 20.9969 14.4096C20.9969 13.0788 19.8783 12 18.4984 12C17.1186 12 16 13.0788 16 14.4096C16 15.7404 17.1186 16.8193 18.4984 16.8193Z" stroke="white" stroke-miterlimit="10"/>
<path d="M17.4984 16.8193C18.8783 16.8193 19.9969 15.7404 19.9969 14.4096C19.9969 13.0788 18.8783 12 17.4984 12C16.1186 12 15 13.0788 15 14.4096C15 15.7404 16.1186 16.8193 17.4984 16.8193Z" stroke="white" stroke-miterlimit="10"/>
<path d="M12.2298 12.8579C13.6097 12.8579 14.7283 11.7791 14.7283 10.4483C14.7283 9.1175 13.6097 8.03867 12.2298 8.03867C10.85 8.03867 9.73138 9.1175 9.73138 10.4483C9.73138 11.7791 10.85 12.8579 12.2298 12.8579Z" stroke="white" stroke-miterlimit="10"/>
<path d="M11.9537 12.8579C13.3335 12.8579 14.4521 11.7791 14.4521 10.4483C14.4521 9.1175 13.3335 8.03867 11.9537 8.03867C10.5738 8.03867 9.45523 9.1175 9.45523 10.4483C9.45523 11.7791 10.5738 12.8579 11.9537 12.8579Z" stroke="white" stroke-miterlimit="10"/>
<path d="M11.6644 12.8579C13.0442 12.8579 14.1628 11.7791 14.1628 10.4483C14.1628 9.1175 13.0442 8.03867 11.6644 8.03867C10.2845 8.03867 9.16592 9.1175 9.16592 10.4483C9.16592 11.7791 10.2845 12.8579 11.6644 12.8579Z" stroke="white" stroke-miterlimit="10"/>
<path d="M11.3882 12.8579C12.7681 12.8579 13.8867 11.7791 13.8867 10.4483C13.8867 9.1175 12.7681 8.03867 11.3882 8.03867C10.0084 8.03867 8.8898 9.1175 8.8898 10.4483C8.8898 11.7791 10.0084 12.8579 11.3882 12.8579Z" stroke="white" stroke-miterlimit="10"/>
<path d="M11.099 12.8579C12.4788 12.8579 13.5974 11.7791 13.5974 10.4483C13.5974 9.1175 12.4788 8.03867 11.099 8.03867C9.71911 8.03867 8.60052 9.1175 8.60052 10.4483C8.60052 11.7791 9.71911 12.8579 11.099 12.8579Z" stroke="white" stroke-miterlimit="10"/>
<path d="M10.8228 12.8579C12.2026 12.8579 13.3212 11.7791 13.3212 10.4483C13.3212 9.1175 12.2026 8.03867 10.8228 8.03867C9.44293 8.03867 8.32434 9.1175 8.32434 10.4483C8.32434 11.7791 9.44293 12.8579 10.8228 12.8579Z" stroke="white" stroke-miterlimit="10"/>
<path d="M10.5335 12.8579C11.9133 12.8579 13.0319 11.7791 13.0319 10.4483C13.0319 9.1175 11.9133 8.03867 10.5335 8.03867C9.15365 8.03867 8.03506 9.1175 8.03506 10.4483C8.03506 11.7791 9.15365 12.8579 10.5335 12.8579Z" stroke="white" stroke-miterlimit="10"/>
<path d="M10.2574 12.8579C11.6372 12.8579 12.7558 11.7791 12.7558 10.4483C12.7558 9.1175 11.6372 8.03867 10.2574 8.03867C8.87753 8.03867 7.75894 9.1175 7.75894 10.4483C7.75894 11.7791 8.87753 12.8579 10.2574 12.8579Z" stroke="white" stroke-miterlimit="10"/>
<path d="M9.98122 12.8579C11.3611 12.8579 12.4797 11.7791 12.4797 10.4483C12.4797 9.1175 11.3611 8.03867 9.98122 8.03867C8.60138 8.03867 7.48279 9.1175 7.48279 10.4483C7.48279 11.7791 8.60138 12.8579 9.98122 12.8579Z" stroke="white" stroke-miterlimit="10"/>
<path d="M9.69195 12.8579C11.0718 12.8579 12.1904 11.7791 12.1904 10.4483C12.1904 9.1175 11.0718 8.03867 9.69195 8.03867C8.3121 8.03867 7.19351 9.1175 7.19351 10.4483C7.19351 11.7791 8.3121 12.8579 9.69195 12.8579Z" stroke="white" stroke-miterlimit="10"/>
<path d="M9.41579 12.8579C10.7956 12.8579 11.9142 11.7791 11.9142 10.4483C11.9142 9.1175 10.7956 8.03867 9.41579 8.03867C8.03595 8.03867 6.91736 9.1175 6.91736 10.4483C6.91736 11.7791 8.03595 12.8579 9.41579 12.8579Z" stroke="white" stroke-miterlimit="10"/>
<path d="M9.12649 12.8579C10.5063 12.8579 11.6249 11.7791 11.6249 10.4483C11.6249 9.1175 10.5063 8.03867 9.12649 8.03867C7.74664 8.03867 6.62805 9.1175 6.62805 10.4483C6.62805 11.7791 7.74664 12.8579 9.12649 12.8579Z" stroke="white" stroke-miterlimit="10"/>
<path d="M8.85033 12.8579C10.2302 12.8579 11.3488 11.7791 11.3488 10.4483C11.3488 9.1175 10.2302 8.03867 8.85033 8.03867C7.47049 8.03867 6.3519 9.1175 6.3519 10.4483C6.3519 11.7791 7.47049 12.8579 8.85033 12.8579Z" stroke="white" stroke-miterlimit="10"/>
<path d="M8.56106 12.8579C9.94091 12.8579 11.0595 11.7791 11.0595 10.4483C11.0595 9.1175 9.94091 8.03867 8.56106 8.03867C7.18121 8.03867 6.06262 9.1175 6.06262 10.4483C6.06262 11.7791 7.18121 12.8579 8.56106 12.8579Z" stroke="white" stroke-miterlimit="10"/>
<path d="M8.2849 12.8579C9.66475 12.8579 10.7833 11.7791 10.7833 10.4483C10.7833 9.1175 9.66475 8.03867 8.2849 8.03867C6.90506 8.03867 5.78647 9.1175 5.78647 10.4483C5.78647 11.7791 6.90506 12.8579 8.2849 12.8579Z" stroke="white" stroke-miterlimit="10"/>
<path d="M7.99563 12.8579C9.37548 12.8579 10.4941 11.7791 10.4941 10.4483C10.4941 9.1175 9.37548 8.03867 7.99563 8.03867C6.61578 8.03867 5.49719 9.1175 5.49719 10.4483C5.49719 11.7791 6.61578 12.8579 7.99563 12.8579Z" stroke="white" stroke-miterlimit="10"/>
<path d="M7.71947 12.8579C9.09932 12.8579 10.2179 11.7791 10.2179 10.4483C10.2179 9.1175 9.09932 8.03867 7.71947 8.03867C6.33963 8.03867 5.22104 9.1175 5.22104 10.4483C5.22104 11.7791 6.33963 12.8579 7.71947 12.8579Z" stroke="white" stroke-miterlimit="10"/>
<path d="M7.44332 12.8579C8.82317 12.8579 9.94176 11.7791 9.94176 10.4483C9.94176 9.1175 8.82317 8.03867 7.44332 8.03867C6.06347 8.03867 4.94489 9.1175 4.94489 10.4483C4.94489 11.7791 6.06347 12.8579 7.44332 12.8579Z" stroke="white" stroke-miterlimit="10"/>
<path d="M7.15404 12.8579C8.53389 12.8579 9.65248 11.7791 9.65248 10.4483C9.65248 9.1175 8.53389 8.03867 7.15404 8.03867C5.7742 8.03867 4.65561 9.1175 4.65561 10.4483C4.65561 11.7791 5.7742 12.8579 7.15404 12.8579Z" stroke="white" stroke-miterlimit="10"/>
<path d="M6.87789 12.8579C8.25774 12.8579 9.37633 11.7791 9.37633 10.4483C9.37633 9.1175 8.25774 8.03867 6.87789 8.03867C5.49804 8.03867 4.37946 9.1175 4.37946 10.4483C4.37946 11.7791 5.49804 12.8579 6.87789 12.8579Z" stroke="white" stroke-miterlimit="10"/>
<path d="M6.58861 12.8579C7.96846 12.8579 9.08705 11.7791 9.08705 10.4483C9.08705 9.1175 7.96846 8.03867 6.58861 8.03867C5.20877 8.03867 4.09018 9.1175 4.09018 10.4483C4.09018 11.7791 5.20877 12.8579 6.58861 12.8579Z" stroke="white" stroke-miterlimit="10"/>
<path d="M6.31246 12.8579C7.69231 12.8579 8.8109 11.7791 8.8109 10.4483C8.8109 9.1175 7.69231 8.03867 6.31246 8.03867C4.93261 8.03867 3.81403 9.1175 3.81403 10.4483C3.81403 11.7791 4.93261 12.8579 6.31246 12.8579Z" stroke="white" stroke-miterlimit="10"/>
<path d="M6.02315 12.8706C7.403 12.8706 8.52159 11.7918 8.52159 10.461C8.52159 9.13019 7.403 8.05136 6.02315 8.05136C4.64331 8.05136 3.52472 9.13019 3.52472 10.461C3.52472 11.7918 4.64331 12.8706 6.02315 12.8706Z" stroke="white" stroke-miterlimit="10"/>
<path d="M5.79961 13.0101C7.17946 13.0101 8.29805 11.9313 8.29805 10.6005C8.29805 9.26969 7.17946 8.19086 5.79961 8.19086C4.41977 8.19086 3.30118 9.26969 3.30118 10.6005C3.30118 11.9313 4.41977 13.0101 5.79961 13.0101Z" stroke="white" stroke-miterlimit="10"/>
<path d="M5.69442 13.2638C7.07427 13.2638 8.19285 12.185 8.19285 10.8542C8.19285 9.52335 7.07427 8.44452 5.69442 8.44452C4.31457 8.44452 3.19598 9.52335 3.19598 10.8542C3.19598 12.185 4.31457 13.2638 5.69442 13.2638Z" stroke="white" stroke-miterlimit="10"/>
<path d="M5.74703 13.5301C7.12688 13.5301 8.24547 12.4513 8.24547 11.1205C8.24547 9.78968 7.12688 8.71085 5.74703 8.71085C4.36718 8.71085 3.2486 9.78968 3.2486 11.1205C3.2486 12.4513 4.36718 13.5301 5.74703 13.5301Z" stroke="white" stroke-miterlimit="10"/>
<path d="M5.93111 13.7203C7.31096 13.7203 8.42955 12.6415 8.42955 11.3107C8.42955 9.97989 7.31096 8.90106 5.93111 8.90106C4.55127 8.90106 3.43268 9.97989 3.43268 11.3107C3.43268 12.6415 4.55127 13.7203 5.93111 13.7203Z" stroke="white" stroke-miterlimit="10"/>
<path d="M6.20727 13.7711C7.58711 13.7711 8.7057 12.6923 8.7057 11.3615C8.7057 10.0306 7.58711 8.95181 6.20727 8.95181C4.82742 8.95181 3.70883 10.0306 3.70883 11.3615C3.70883 12.6923 4.82742 13.7711 6.20727 13.7711Z" stroke="white" stroke-miterlimit="10"/>
<path d="M6.49657 13.7711C7.87642 13.7711 8.99501 12.6923 8.99501 11.3615C8.99501 10.0306 7.87642 8.95181 6.49657 8.95181C5.11673 8.95181 3.99814 10.0306 3.99814 11.3615C3.99814 12.6923 5.11673 13.7711 6.49657 13.7711Z" stroke="white" stroke-miterlimit="10"/>
<path d="M6.7727 13.7711C8.15254 13.7711 9.27113 12.6923 9.27113 11.3615C9.27113 10.0306 8.15254 8.95181 6.7727 8.95181C5.39285 8.95181 4.27426 10.0306 4.27426 11.3615C4.27426 12.6923 5.39285 13.7711 6.7727 13.7711Z" stroke="white" stroke-miterlimit="10"/>
<path d="M7.062 13.7711C8.44185 13.7711 9.56044 12.6923 9.56044 11.3615C9.56044 10.0306 8.44185 8.95181 7.062 8.95181C5.68216 8.95181 4.56357 10.0306 4.56357 11.3615C4.56357 12.6923 5.68216 13.7711 7.062 13.7711Z" stroke="white" stroke-miterlimit="10"/>
<path d="M7.33813 13.7711C8.71797 13.7711 9.83656 12.6923 9.83656 11.3615C9.83656 10.0306 8.71797 8.95181 7.33813 8.95181C5.95828 8.95181 4.83969 10.0306 4.83969 11.3615C4.83969 12.6923 5.95828 13.7711 7.33813 13.7711Z" stroke="white" stroke-miterlimit="10"/>
<path d="M7.61428 13.7711C8.99413 13.7711 10.1127 12.6923 10.1127 11.3615C10.1127 10.0306 8.99413 8.95181 7.61428 8.95181C6.23443 8.95181 5.11584 10.0306 5.11584 11.3615C5.11584 12.6923 6.23443 13.7711 7.61428 13.7711Z" stroke="white" stroke-miterlimit="10"/>
<path d="M7.90359 13.7711C9.28343 13.7711 10.402 12.6923 10.402 11.3615C10.402 10.0306 9.28343 8.95181 7.90359 8.95181C6.52374 8.95181 5.40515 10.0306 5.40515 11.3615C5.40515 12.6923 6.52374 13.7711 7.90359 13.7711Z" stroke="white" stroke-miterlimit="10"/>
<path d="M8.17974 13.7711C9.55959 13.7711 10.6782 12.6923 10.6782 11.3615C10.6782 10.0306 9.55959 8.95181 8.17974 8.95181C6.79989 8.95181 5.6813 10.0306 5.6813 11.3615C5.6813 12.6923 6.79989 13.7711 8.17974 13.7711Z" stroke="white" stroke-miterlimit="10"/>
<path d="M8.46902 13.7711C9.84886 13.7711 10.9675 12.6923 10.9675 11.3615C10.9675 10.0306 9.84886 8.95181 8.46902 8.95181C7.08917 8.95181 5.97058 10.0306 5.97058 11.3615C5.97058 12.6923 7.08917 13.7711 8.46902 13.7711Z" stroke="white" stroke-miterlimit="10"/>
<path d="M8.74514 13.7711C10.125 13.7711 11.2436 12.6923 11.2436 11.3615C11.2436 10.0306 10.125 8.95181 8.74514 8.95181C7.36529 8.95181 6.2467 10.0306 6.2467 11.3615C6.2467 12.6923 7.36529 13.7711 8.74514 13.7711Z" stroke="white" stroke-miterlimit="10"/>
<path d="M9.03445 13.7711C10.4143 13.7711 11.5329 12.6923 11.5329 11.3615C11.5329 10.0306 10.4143 8.95181 9.03445 8.95181C7.6546 8.95181 6.53601 10.0306 6.53601 11.3615C6.53601 12.6923 7.6546 13.7711 9.03445 13.7711Z" stroke="white" stroke-miterlimit="10"/>
<path d="M9.31057 13.7711C10.6904 13.7711 11.809 12.6923 11.809 11.3615C11.809 10.0306 10.6904 8.95181 9.31057 8.95181C7.93072 8.95181 6.81213 10.0306 6.81213 11.3615C6.81213 12.6923 7.93072 13.7711 9.31057 13.7711Z" stroke="white" stroke-miterlimit="10"/>
<path d="M9.59988 13.7711C10.9797 13.7711 12.0983 12.6923 12.0983 11.3615C12.0983 10.0306 10.9797 8.95181 9.59988 8.95181C8.22003 8.95181 7.10144 10.0306 7.10144 11.3615C7.10144 12.6923 8.22003 13.7711 9.59988 13.7711Z" stroke="white" stroke-miterlimit="10"/>
<path d="M9.87603 13.7711C11.2559 13.7711 12.3745 12.6923 12.3745 11.3615C12.3745 10.0306 11.2559 8.95181 9.87603 8.95181C8.49618 8.95181 7.37759 10.0306 7.37759 11.3615C7.37759 12.6923 8.49618 13.7711 9.87603 13.7711Z" stroke="white" stroke-miterlimit="10"/>
<path d="M10.1522 13.7711C11.532 13.7711 12.6506 12.6923 12.6506 11.3615C12.6506 10.0306 11.532 8.95181 10.1522 8.95181C8.77234 8.95181 7.65375 10.0306 7.65375 11.3615C7.65375 12.6923 8.77234 13.7711 10.1522 13.7711Z" stroke="white" stroke-miterlimit="10"/>
<path d="M10.4415 13.7711C11.8213 13.7711 12.9399 12.6923 12.9399 11.3615C12.9399 10.0306 11.8213 8.95181 10.4415 8.95181C9.06161 8.95181 7.94302 10.0306 7.94302 11.3615C7.94302 12.6923 9.06161 13.7711 10.4415 13.7711Z" stroke="white" stroke-miterlimit="10"/>
<path d="M10.7176 13.7711C12.0975 13.7711 13.216 12.6923 13.216 11.3615C13.216 10.0306 12.0975 8.95181 10.7176 8.95181C9.33776 8.95181 8.21918 10.0306 8.21918 11.3615C8.21918 12.6923 9.33776 13.7711 10.7176 13.7711Z" stroke="white" stroke-miterlimit="10"/>
<path d="M11.0069 13.7711C12.3868 13.7711 13.5054 12.6923 13.5054 11.3615C13.5054 10.0306 12.3868 8.95181 11.0069 8.95181C9.62707 8.95181 8.50848 10.0306 8.50848 11.3615C8.50848 12.6923 9.62707 13.7711 11.0069 13.7711Z" stroke="white" stroke-miterlimit="10"/>
<path d="M11.283 13.7711C12.6629 13.7711 13.7815 12.6923 13.7815 11.3615C13.7815 10.0306 12.6629 8.95181 11.283 8.95181C9.90319 8.95181 8.78461 10.0306 8.78461 11.3615C8.78461 12.6923 9.90319 13.7711 11.283 13.7711Z" stroke="white" stroke-miterlimit="10"/>
<path d="M11.5723 13.7711C12.9522 13.7711 14.0708 12.6923 14.0708 11.3615C14.0708 10.0306 12.9522 8.95181 11.5723 8.95181C10.1925 8.95181 9.07388 10.0306 9.07388 11.3615C9.07388 12.6923 10.1925 13.7711 11.5723 13.7711Z" stroke="white" stroke-miterlimit="10"/>
<path d="M11.8485 13.7711C13.2283 13.7711 14.3469 12.6923 14.3469 11.3615C14.3469 10.0306 13.2283 8.95181 11.8485 8.95181C10.4686 8.95181 9.35004 10.0306 9.35004 11.3615C9.35004 12.6923 10.4686 13.7711 11.8485 13.7711Z" stroke="white" stroke-miterlimit="10"/>
<path d="M12.1377 13.7711C13.5176 13.7711 14.6362 12.6923 14.6362 11.3615C14.6362 10.0306 13.5176 8.95181 12.1377 8.95181C10.7579 8.95181 9.63931 10.0306 9.63931 11.3615C9.63931 12.6923 10.7579 13.7711 12.1377 13.7711Z" stroke="white" stroke-miterlimit="10"/>
<path d="M12.4139 13.733C13.7937 13.733 14.9123 12.6542 14.9123 11.3234C14.9123 9.99259 13.7937 8.91376 12.4139 8.91376C11.0341 8.91376 9.91547 9.99259 9.91547 11.3234C9.91547 12.6542 11.0341 13.733 12.4139 13.733Z" stroke="white" stroke-miterlimit="10"/>
<path d="M12.6243 13.5682C14.0041 13.5682 15.1227 12.4893 15.1227 11.1585C15.1227 9.82773 14.0041 8.7489 12.6243 8.7489C11.2444 8.7489 10.1259 9.82773 10.1259 11.1585C10.1259 12.4893 11.2444 13.5682 12.6243 13.5682Z" stroke="white" stroke-miterlimit="10"/>
<path d="M12.7032 13.3145C14.0831 13.3145 15.2016 12.2357 15.2016 10.9049C15.2016 9.57407 14.0831 8.49524 12.7032 8.49524C11.3234 8.49524 10.2048 9.57407 10.2048 10.9049C10.2048 12.2357 11.3234 13.3145 12.7032 13.3145Z" stroke="white" stroke-miterlimit="10"/>
</svg>
