<svg width="23" height="22" viewBox="0 0 23 22" fill="none" xmlns="http://www.w3.org/2000/svg">
<path d="M19.4009 20.1894C20.7578 20.1894 21.8578 19.1119 21.8578 17.7828C21.8578 16.4537 20.7578 15.3762 19.4009 15.3762C18.044 15.3762 16.944 16.4537 16.944 17.7828C16.944 19.1119 18.044 20.1894 19.4009 20.1894Z" stroke="white" stroke-miterlimit="10"/>
<path d="M19.5431 20.5694C20.9 20.5694 22 19.4919 22 18.1628C22 16.8337 20.9 15.7562 19.5431 15.7562C18.1862 15.7562 17.0862 16.8337 17.0862 18.1628C17.0862 19.4919 18.1862 20.5694 19.5431 20.5694Z" stroke="white" stroke-miterlimit="10"/>
<path d="M19.3104 20.9114C20.6673 20.9114 21.7673 19.8339 21.7673 18.5048C21.7673 17.1757 20.6673 16.0982 19.3104 16.0982C17.9535 16.0982 16.8535 17.1757 16.8535 18.5048C16.8535 19.8339 17.9535 20.9114 19.3104 20.9114Z" stroke="white" stroke-miterlimit="10"/>
<path d="M18.9095 20.9494C20.2664 20.9494 21.3664 19.8719 21.3664 18.5428C21.3664 17.2137 20.2664 16.1362 18.9095 16.1362C17.5526 16.1362 16.4526 17.2137 16.4526 18.5428C16.4526 19.8719 17.5526 20.9494 18.9095 20.9494Z" stroke="white" stroke-miterlimit="10"/>
<path d="M18.5862 20.6834C19.9431 20.6834 21.0431 19.6059 21.0431 18.2768C21.0431 16.9477 19.9431 15.8702 18.5862 15.8702C17.2293 15.8702 16.1293 16.9477 16.1293 18.2768C16.1293 19.6059 17.2293 20.6834 18.5862 20.6834Z" stroke="white" stroke-miterlimit="10"/>
<path d="M18.2888 20.3921C19.6457 20.3921 20.7457 19.3146 20.7457 17.9855C20.7457 16.6564 19.6457 15.5789 18.2888 15.5789C16.9319 15.5789 15.8319 16.6564 15.8319 17.9855C15.8319 19.3146 16.9319 20.3921 18.2888 20.3921Z" stroke="white" stroke-miterlimit="10"/>
<path d="M17.9784 20.1007C19.3353 20.1007 20.4353 19.0233 20.4353 17.6941C20.4353 16.365 19.3353 15.2875 17.9784 15.2875C16.6215 15.2875 15.5215 16.365 15.5215 17.6941C15.5215 19.0233 16.6215 20.1007 17.9784 20.1007Z" stroke="white" stroke-miterlimit="10"/>
<path d="M17.681 19.7968C19.0379 19.7968 20.1379 18.7193 20.1379 17.3902C20.1379 16.061 19.0379 14.9836 17.681 14.9836C16.3241 14.9836 15.2241 16.061 15.2241 17.3902C15.2241 18.7193 16.3241 19.7968 17.681 19.7968Z" stroke="white" stroke-miterlimit="10"/>
<path d="M17.3836 19.5054C18.7405 19.5054 19.8405 18.4279 19.8405 17.0988C19.8405 15.7697 18.7405 14.6922 17.3836 14.6922C16.0267 14.6922 14.9267 15.7697 14.9267 17.0988C14.9267 18.4279 16.0267 19.5054 17.3836 19.5054Z" stroke="white" stroke-miterlimit="10"/>
<path d="M17.0861 19.2141C18.443 19.2141 19.543 18.1366 19.543 16.8075C19.543 15.4784 18.443 14.4009 17.0861 14.4009C15.7292 14.4009 14.6292 15.4784 14.6292 16.8075C14.6292 18.1366 15.7292 19.2141 17.0861 19.2141Z" stroke="white" stroke-miterlimit="10"/>
<path d="M16.7888 18.9227C18.1457 18.9227 19.2457 17.8453 19.2457 16.5162C19.2457 15.187 18.1457 14.1096 16.7888 14.1096C15.4319 14.1096 14.3319 15.187 14.3319 16.5162C14.3319 17.8453 15.4319 18.9227 16.7888 18.9227Z" stroke="white" stroke-miterlimit="10"/>
<path d="M16.4784 18.6315C17.8353 18.6315 18.9353 17.554 18.9353 16.2249C18.9353 14.8957 17.8353 13.8183 16.4784 13.8183C15.1215 13.8183 14.0215 14.8957 14.0215 16.2249C14.0215 17.554 15.1215 18.6315 16.4784 18.6315Z" stroke="white" stroke-miterlimit="10"/>
<path d="M16.181 18.3274C17.5379 18.3274 18.6379 17.2499 18.6379 15.9208C18.6379 14.5917 17.5379 13.5142 16.181 13.5142C14.8241 13.5142 13.7241 14.5917 13.7241 15.9208C13.7241 17.2499 14.8241 18.3274 16.181 18.3274Z" stroke="white" stroke-miterlimit="10"/>
<path d="M15.8836 18.0361C17.2405 18.0361 18.3405 16.9586 18.3405 15.6295C18.3405 14.3004 17.2405 13.2229 15.8836 13.2229C14.5267 13.2229 13.4267 14.3004 13.4267 15.6295C13.4267 16.9586 14.5267 18.0361 15.8836 18.0361Z" stroke="white" stroke-miterlimit="10"/>
<path d="M15.5862 17.7448C16.9431 17.7448 18.0431 16.6673 18.0431 15.3382C18.0431 14.009 16.9431 12.9316 15.5862 12.9316C14.2293 12.9316 13.1293 14.009 13.1293 15.3382C13.1293 16.6673 14.2293 17.7448 15.5862 17.7448Z" stroke="white" stroke-miterlimit="10"/>
<path d="M15.2888 17.4535C16.6457 17.4535 17.7457 16.376 17.7457 15.0469C17.7457 13.7178 16.6457 12.6403 15.2888 12.6403C13.9319 12.6403 12.8319 13.7178 12.8319 15.0469C12.8319 16.376 13.9319 17.4535 15.2888 17.4535Z" stroke="white" stroke-miterlimit="10"/>
<path d="M14.9784 17.1622C16.3353 17.1622 17.4353 16.0847 17.4353 14.7556C17.4353 13.4265 16.3353 12.349 14.9784 12.349C13.6215 12.349 12.5215 13.4265 12.5215 14.7556C12.5215 16.0847 13.6215 17.1622 14.9784 17.1622Z" stroke="white" stroke-miterlimit="10"/>
<path d="M14.681 16.8708C16.0379 16.8708 17.1379 15.7934 17.1379 14.4642C17.1379 13.1351 16.0379 12.0576 14.681 12.0576C13.3241 12.0576 12.2242 13.1351 12.2242 14.4642C12.2242 15.7934 13.3241 16.8708 14.681 16.8708Z" stroke="white" stroke-miterlimit="10"/>
<path d="M14.4224 16.5415C15.7793 16.5415 16.8793 15.464 16.8793 14.1349C16.8793 12.8058 15.7793 11.7283 14.4224 11.7283C13.0655 11.7283 11.9655 12.8058 11.9655 14.1349C11.9655 15.464 13.0655 16.5415 14.4224 16.5415Z" stroke="white" stroke-miterlimit="10"/>
<path d="M14.4483 16.1488C15.8052 16.1488 16.9052 15.0713 16.9052 13.7422C16.9052 12.4131 15.8052 11.3356 14.4483 11.3356C13.0914 11.3356 11.9914 12.4131 11.9914 13.7422C11.9914 15.0713 13.0914 16.1488 14.4483 16.1488Z" stroke="white" stroke-miterlimit="10"/>
<path d="M14.7974 15.9335C16.1543 15.9335 17.2543 14.8561 17.2543 13.527C17.2543 12.1978 16.1543 11.1204 14.7974 11.1204C13.4405 11.1204 12.3405 12.1978 12.3405 13.527C12.3405 14.8561 13.4405 15.9335 14.7974 15.9335Z" stroke="white" stroke-miterlimit="10"/>
<path d="M15.1853 16.0602C16.5423 16.0602 17.6422 14.9827 17.6422 13.6536C17.6422 12.3244 16.5423 11.247 15.1853 11.247C13.8284 11.247 12.7285 12.3244 12.7285 13.6536C12.7285 14.9827 13.8284 16.0602 15.1853 16.0602Z" stroke="white" stroke-miterlimit="10"/>
<path d="M19.0332 13C20.1398 13 21.0369 12.1046 21.0369 11C21.0369 9.89543 20.1398 9 19.0332 9C17.9266 9 17.0295 9.89543 17.0295 11C17.0295 12.1046 17.9266 13 19.0332 13Z" stroke="white" stroke-miterlimit="10"/>
<path d="M18.4846 14.8132C19.8415 14.8132 20.9415 13.7357 20.9415 12.4066C20.9415 11.0775 19.8415 10 18.4846 10C17.1277 10 16.0277 11.0775 16.0277 12.4066C16.0277 13.7357 17.1277 14.8132 18.4846 14.8132Z" stroke="white" stroke-miterlimit="10"/>
<path d="M19.4397 14.8443C20.7966 14.8443 21.8965 13.7668 21.8965 12.4377C21.8965 11.1086 20.7966 10.0311 19.4397 10.0311C18.0827 10.0311 16.9828 11.1086 16.9828 12.4377C16.9828 13.7668 18.0827 14.8443 19.4397 14.8443Z" stroke="white" stroke-miterlimit="10"/>
<path d="M19.2586 15.5409C20.6155 15.5409 21.7155 14.4634 21.7155 13.1343C21.7155 11.8052 20.6155 10.7277 19.2586 10.7277C17.9017 10.7277 16.8017 11.8052 16.8017 13.1343C16.8017 14.4634 17.9017 15.5409 19.2586 15.5409Z" stroke="white" stroke-miterlimit="10"/>
<path d="M17.5305 14C18.3604 14 19.0333 12.8807 19.0333 11.5C19.0333 10.1193 18.3604 9 17.5305 9C16.7005 9 16.0277 10.1193 16.0277 11.5C16.0277 12.8807 16.7005 14 17.5305 14Z" stroke="white" stroke-miterlimit="10"/>
<path d="M18.6896 16.8835C20.0465 16.8835 21.1465 15.8061 21.1465 14.4769C21.1465 13.1478 20.0465 12.0703 18.6896 12.0703C17.3327 12.0703 16.2327 13.1478 16.2327 14.4769C16.2327 15.8061 17.3327 16.8835 18.6896 16.8835Z" stroke="white" stroke-miterlimit="10"/>
<path d="M18.0431 17.0355C19.4 17.0355 20.5 15.958 20.5 14.6289C20.5 13.2998 19.4 12.2223 18.0431 12.2223C16.6862 12.2223 15.5862 13.2998 15.5862 14.6289C15.5862 15.958 16.6862 17.0355 18.0431 17.0355Z" stroke="white" stroke-miterlimit="10"/>
<path d="M17.8879 16.4149C19.2448 16.4149 20.3448 15.3374 20.3448 14.0083C20.3448 12.6792 19.2448 11.6017 17.8879 11.6017C16.531 11.6017 15.431 12.6792 15.431 14.0083C15.431 15.3374 16.531 16.4149 17.8879 16.4149Z" stroke="white" stroke-miterlimit="10"/>
<path d="M18.1983 15.7435C19.5552 15.7435 20.6552 14.6661 20.6552 13.337C20.6552 12.0078 19.5552 10.9304 18.1983 10.9304C16.8414 10.9304 15.7414 12.0078 15.7414 13.337C15.7414 14.6661 16.8414 15.7435 18.1983 15.7435Z" stroke="white" stroke-miterlimit="10"/>
<path d="M18.431 15.0595C19.7879 15.0595 20.8879 13.9821 20.8879 12.6529C20.8879 11.3238 19.7879 10.2463 18.431 10.2463C17.0741 10.2463 15.9741 11.3238 15.9741 12.6529C15.9741 13.9821 17.0741 15.0595 18.431 15.0595Z" stroke="white" stroke-miterlimit="10"/>
<path d="M18.5733 14.3629C19.9302 14.3629 21.0302 13.2855 21.0302 11.9563C21.0302 10.6272 19.9302 9.54974 18.5733 9.54974C17.2164 9.54974 16.1164 10.6272 16.1164 11.9563C16.1164 13.2855 17.2164 14.3629 18.5733 14.3629Z" stroke="white" stroke-miterlimit="10"/>
<path d="M18.0314 14C19.138 14 20.0351 12.8807 20.0351 11.5C20.0351 10.1193 19.138 9 18.0314 9C16.9248 9 16.0277 10.1193 16.0277 11.5C16.0277 12.8807 16.9248 14 18.0314 14Z" stroke="white" stroke-miterlimit="10"/>
<path d="M18.625 12.9062C19.9819 12.9062 21.0819 11.8287 21.0819 10.4996C21.0819 9.17049 19.9819 8.09302 18.625 8.09302C17.268 8.09302 16.1681 9.17049 16.1681 10.4996C16.1681 11.8287 17.268 12.9062 18.625 12.9062Z" stroke="white" stroke-miterlimit="10"/>
<path d="M18.5345 12.1843C19.8914 12.1843 20.9914 11.1068 20.9914 9.77772C20.9914 8.44859 19.8914 7.37112 18.5345 7.37112C17.1776 7.37112 16.0776 8.44859 16.0776 9.77772C16.0776 11.1068 17.1776 12.1843 18.5345 12.1843Z" stroke="white" stroke-miterlimit="10"/>
<path d="M18.3535 11.4877C19.7104 11.4877 20.8104 10.4102 20.8104 9.08112C20.8104 7.752 19.7104 6.67453 18.3535 6.67453C16.9966 6.67453 15.8966 7.752 15.8966 9.08112C15.8966 10.4102 16.9966 11.4877 18.3535 11.4877Z" stroke="white" stroke-miterlimit="10"/>
<path d="M16.4809 15.8132C17.8378 15.8132 18.9378 14.7357 18.9378 13.4066C18.9378 12.0775 17.8378 11 16.4809 11C15.124 11 14.024 12.0775 14.024 13.4066C14.024 14.7357 15.124 15.8132 16.4809 15.8132Z" stroke="white" stroke-miterlimit="10"/>
<path d="M17.7715 10.1957C19.1284 10.1957 20.2284 9.11825 20.2284 7.78913C20.2284 6.46001 19.1284 5.38254 17.7715 5.38254C16.4146 5.38254 15.3146 6.46001 15.3146 7.78913C15.3146 9.11825 16.4146 10.1957 17.7715 10.1957Z" stroke="white" stroke-miterlimit="10"/>
<path d="M17.3707 9.60042C18.7276 9.60042 19.8276 8.52295 19.8276 7.19382C19.8276 5.8647 18.7276 4.78723 17.3707 4.78723C16.0138 4.78723 14.9138 5.8647 14.9138 7.19382C14.9138 8.52295 16.0138 9.60042 17.3707 9.60042Z" stroke="white" stroke-miterlimit="10"/>
<path d="M16.9181 9.05577C18.275 9.05577 19.375 7.9783 19.375 6.64918C19.375 5.32005 18.275 4.24258 16.9181 4.24258C15.5612 4.24258 14.4612 5.32005 14.4612 6.64918C14.4612 7.9783 15.5612 9.05577 16.9181 9.05577Z" stroke="white" stroke-miterlimit="10"/>
<path d="M16.4138 8.54902C17.7707 8.54902 18.8707 7.47156 18.8707 6.14243C18.8707 4.81331 17.7707 3.73584 16.4138 3.73584C15.0569 3.73584 13.9569 4.81331 13.9569 6.14243C13.9569 7.47156 15.0569 8.54902 16.4138 8.54902Z" stroke="white" stroke-miterlimit="10"/>
<path d="M15.8448 8.10576C17.2017 8.10576 18.3017 7.02829 18.3017 5.69916C18.3017 4.37004 17.2017 3.29257 15.8448 3.29257C14.4879 3.29257 13.3879 4.37004 13.3879 5.69916C13.3879 7.02829 14.4879 8.10576 15.8448 8.10576Z" stroke="white" stroke-miterlimit="10"/>
<path d="M15.2372 7.71312C16.5941 7.71312 17.6941 6.63565 17.6941 5.30653C17.6941 3.9774 16.5941 2.89993 15.2372 2.89993C13.8803 2.89993 12.7803 3.9774 12.7803 5.30653C12.7803 6.63565 13.8803 7.71312 15.2372 7.71312Z" stroke="white" stroke-miterlimit="10"/>
<path d="M14.5905 7.38374C15.9474 7.38374 17.0474 6.30627 17.0474 4.97715C17.0474 3.64802 15.9474 2.57056 14.5905 2.57056C13.2336 2.57056 12.1336 3.64802 12.1336 4.97715C12.1336 6.30627 13.2336 7.38374 14.5905 7.38374Z" stroke="white" stroke-miterlimit="10"/>
<path d="M13.8922 7.10521C15.2491 7.10521 16.3491 6.02774 16.3491 4.69862C16.3491 3.36949 15.2491 2.29202 13.8922 2.29202C12.5353 2.29202 11.4353 3.36949 11.4353 4.69862C11.4353 6.02774 12.5353 7.10521 13.8922 7.10521Z" stroke="white" stroke-miterlimit="10"/>
<path d="M13.1681 6.91511C14.525 6.91511 15.625 5.83765 15.625 4.50852C15.625 3.1794 14.525 2.10193 13.1681 2.10193C11.8112 2.10193 10.7112 3.1794 10.7112 4.50852C10.7112 5.83765 11.8112 6.91511 13.1681 6.91511Z" stroke="white" stroke-miterlimit="10"/>
<path d="M12.4052 6.77583C13.7621 6.77583 14.8621 5.69836 14.8621 4.36924C14.8621 3.04011 13.7621 1.96265 12.4052 1.96265C11.0483 1.96265 9.94827 3.04011 9.94827 4.36924C9.94827 5.69836 11.0483 6.77583 12.4052 6.77583Z" stroke="white" stroke-miterlimit="10"/>
<path d="M11.6293 6.72514C12.9862 6.72514 14.0862 5.64767 14.0862 4.31855C14.0862 2.98942 12.9862 1.91196 11.6293 1.91196C10.2724 1.91196 9.17239 2.98942 9.17239 4.31855C9.17239 5.64767 10.2724 6.72514 11.6293 6.72514Z" stroke="white" stroke-miterlimit="10"/>
<path d="M10.8405 6.76314C12.1974 6.76314 13.2974 5.68567 13.2974 4.35654C13.2974 3.02742 12.1974 1.94995 10.8405 1.94995C9.48363 1.94995 8.38364 3.02742 8.38364 4.35654C8.38364 5.68567 9.48363 6.76314 10.8405 6.76314Z" stroke="white" stroke-miterlimit="10"/>
<path d="M10.0776 6.86445C11.4345 6.86445 12.5345 5.78699 12.5345 4.45786C12.5345 3.12874 11.4345 2.05127 10.0776 2.05127C8.72072 2.05127 7.62073 3.12874 7.62073 4.45786C7.62073 5.78699 8.72072 6.86445 10.0776 6.86445Z" stroke="white" stroke-miterlimit="10"/>
<path d="M9.34053 7.05443C10.6974 7.05443 11.7974 5.97696 11.7974 4.64783C11.7974 3.31871 10.6974 2.24124 9.34053 2.24124C7.98363 2.24124 6.88364 3.31871 6.88364 4.64783C6.88364 5.97696 7.98363 7.05443 9.34053 7.05443Z" stroke="white" stroke-miterlimit="10"/>
<path d="M8.64223 7.29512C9.99913 7.29512 11.0991 6.21765 11.0991 4.88853C11.0991 3.5594 9.99913 2.48193 8.64223 2.48193C7.28532 2.48193 6.18533 3.5594 6.18533 4.88853C6.18533 6.21765 7.28532 7.29512 8.64223 7.29512Z" stroke="white" stroke-miterlimit="10"/>
<path d="M7.9698 7.6118C9.32671 7.6118 10.4267 6.53433 10.4267 5.20521C10.4267 3.87608 9.32671 2.79861 7.9698 2.79861C6.6129 2.79861 5.51291 3.87608 5.51291 5.20521C5.51291 6.53433 6.6129 7.6118 7.9698 7.6118Z" stroke="white" stroke-miterlimit="10"/>
<path d="M7.34914 7.99177C8.70604 7.99177 9.80603 6.91431 9.80603 5.58518C9.80603 4.25606 8.70604 3.17859 7.34914 3.17859C5.99223 3.17859 4.89224 4.25606 4.89224 5.58518C4.89224 6.91431 5.99223 7.99177 7.34914 7.99177Z" stroke="white" stroke-miterlimit="10"/>
<path d="M6.78017 8.42244C8.13707 8.42244 9.23706 7.34497 9.23706 6.01585C9.23706 4.68672 8.13707 3.60925 6.78017 3.60925C5.42326 3.60925 4.32327 4.68672 4.32327 6.01585C4.32327 7.34497 5.42326 8.42244 6.78017 8.42244Z" stroke="white" stroke-miterlimit="10"/>
<path d="M6.24996 8.91643C7.60686 8.91643 8.70685 7.83896 8.70685 6.50983C8.70685 5.18071 7.60686 4.10324 6.24996 4.10324C4.89305 4.10324 3.79306 5.18071 3.79306 6.50983C3.79306 7.83896 4.89305 8.91643 6.24996 8.91643Z" stroke="white" stroke-miterlimit="10"/>
<path d="M5.78447 9.44844C7.14138 9.44844 8.24137 8.37097 8.24137 7.04185C8.24137 5.71272 7.14138 4.63525 5.78447 4.63525C4.42757 4.63525 3.32758 5.71272 3.32758 7.04185C3.32758 8.37097 4.42757 9.44844 5.78447 9.44844Z" stroke="white" stroke-miterlimit="10"/>
<path d="M5.37074 10.031C6.72765 10.031 7.82764 8.95352 7.82764 7.6244C7.82764 6.29527 6.72765 5.2178 5.37074 5.2178C4.01384 5.2178 2.91385 6.29527 2.91385 7.6244C2.91385 8.95352 4.01384 10.031 5.37074 10.031Z" stroke="white" stroke-miterlimit="10"/>
<path d="M5.03444 10.6517C6.39135 10.6517 7.49134 9.57422 7.49134 8.24509C7.49134 6.91597 6.39135 5.8385 5.03444 5.8385C3.67753 5.8385 2.57755 6.91597 2.57755 8.24509C2.57755 9.57422 3.67753 10.6517 5.03444 10.6517Z" stroke="white" stroke-miterlimit="10"/>
<path d="M4.74999 11.2977C6.10689 11.2977 7.20688 10.2203 7.20688 8.89115C7.20688 7.56203 6.10689 6.48456 4.74999 6.48456C3.39308 6.48456 2.29309 7.56203 2.29309 8.89115C2.29309 10.2203 3.39308 11.2977 4.74999 11.2977Z" stroke="white" stroke-miterlimit="10"/>
<path d="M4.55605 11.9943C5.91295 11.9943 7.01294 10.9169 7.01294 9.58774C7.01294 8.25862 5.91295 7.18115 4.55605 7.18115C3.19914 7.18115 2.09915 8.25862 2.09915 9.58774C2.09915 10.9169 3.19914 11.9943 4.55605 11.9943Z" stroke="white" stroke-miterlimit="10"/>
<path d="M4.42674 12.7036C5.78365 12.7036 6.88364 11.6261 6.88364 10.297C6.88364 8.96785 5.78365 7.89038 4.42674 7.89038C3.06984 7.89038 1.96985 8.96785 1.96985 10.297C1.96985 11.6261 3.06984 12.7036 4.42674 12.7036Z" stroke="white" stroke-miterlimit="10"/>
<path d="M4.3879 13.4383C5.7448 13.4383 6.84479 12.3608 6.84479 11.0317C6.84479 9.70259 5.7448 8.62512 4.3879 8.62512C3.03099 8.62512 1.931 9.70259 1.931 11.0317C1.931 12.3608 3.03099 13.4383 4.3879 13.4383Z" stroke="white" stroke-miterlimit="10"/>
<path d="M4.43965 14.1729C5.79656 14.1729 6.89655 13.0955 6.89655 11.7663C6.89655 10.4372 5.79656 9.35974 4.43965 9.35974C3.08275 9.35974 1.98276 10.4372 1.98276 11.7663C1.98276 13.0955 3.08275 14.1729 4.43965 14.1729Z" stroke="white" stroke-miterlimit="10"/>
<path d="M4.56896 14.8822C5.92586 14.8822 7.02585 13.8047 7.02585 12.4756C7.02585 11.1465 5.92586 10.069 4.56896 10.069C3.21205 10.069 2.11206 11.1465 2.11206 12.4756C2.11206 13.8047 3.21205 14.8822 4.56896 14.8822Z" stroke="white" stroke-miterlimit="10"/>
<path d="M4.7758 15.5661C6.13271 15.5661 7.2327 14.4886 7.2327 13.1595C7.2327 11.8304 6.13271 10.7529 4.7758 10.7529C3.4189 10.7529 2.31891 11.8304 2.31891 13.1595C2.31891 14.4886 3.4189 15.5661 4.7758 15.5661Z" stroke="white" stroke-miterlimit="10"/>
<path d="M5.06032 16.2249C6.41723 16.2249 7.51721 15.1475 7.51721 13.8183C7.51721 12.4892 6.41723 11.4117 5.06032 11.4117C3.70341 11.4117 2.60342 12.4892 2.60342 13.8183C2.60342 15.1475 3.70341 16.2249 5.06032 16.2249Z" stroke="white" stroke-miterlimit="10"/>
<path d="M5.4095 16.8328C6.76641 16.8328 7.8664 15.7554 7.8664 14.4262C7.8664 13.0971 6.76641 12.0197 5.4095 12.0197C4.0526 12.0197 2.95261 13.0971 2.95261 14.4262C2.95261 15.7554 4.0526 16.8328 5.4095 16.8328Z" stroke="white" stroke-miterlimit="10"/>
<path d="M5.82329 17.4155C7.1802 17.4155 8.28018 16.3381 8.28018 15.0089C8.28018 13.6798 7.1802 12.6024 5.82329 12.6024C4.46638 12.6024 3.36639 13.6798 3.36639 15.0089C3.36639 16.3381 4.46638 17.4155 5.82329 17.4155Z" stroke="white" stroke-miterlimit="10"/>
<path d="M6.28877 17.9475C7.64568 17.9475 8.74567 16.87 8.74567 15.5409C8.74567 14.2118 7.64568 13.1343 6.28877 13.1343C4.93187 13.1343 3.83188 14.2118 3.83188 15.5409C3.83188 16.87 4.93187 17.9475 6.28877 17.9475Z" stroke="white" stroke-miterlimit="10"/>
<path d="M6.81899 18.4288C8.17589 18.4288 9.27588 17.3513 9.27588 16.0222C9.27588 14.6931 8.17589 13.6156 6.81899 13.6156C5.46208 13.6156 4.36209 14.6931 4.36209 16.0222C4.36209 17.3513 5.46208 18.4288 6.81899 18.4288Z" stroke="white" stroke-miterlimit="10"/>
<path d="M7.4009 18.8594C8.7578 18.8594 9.85779 17.782 9.85779 16.4529C9.85779 15.1237 8.7578 14.0463 7.4009 14.0463C6.04399 14.0463 4.944 15.1237 4.944 16.4529C4.944 17.782 6.04399 18.8594 7.4009 18.8594Z" stroke="white" stroke-miterlimit="10"/>
<path d="M8.02156 19.2268C9.37847 19.2268 10.4785 18.1494 10.4785 16.8202C10.4785 15.4911 9.37847 14.4136 8.02156 14.4136C6.66466 14.4136 5.56467 15.4911 5.56467 16.8202C5.56467 18.1494 6.66466 19.2268 8.02156 19.2268Z" stroke="white" stroke-miterlimit="10"/>
<path d="M8.69399 19.5434C10.0509 19.5434 11.1509 18.466 11.1509 17.1368C11.1509 15.8077 10.0509 14.7303 8.69399 14.7303C7.33708 14.7303 6.23709 15.8077 6.23709 17.1368C6.23709 18.466 7.33708 19.5434 8.69399 19.5434Z" stroke="white" stroke-miterlimit="10"/>
<path d="M9.40517 19.7841C10.7621 19.7841 11.8621 18.7067 11.8621 17.3775C11.8621 16.0484 10.7621 14.9709 9.40517 14.9709C8.04826 14.9709 6.94827 16.0484 6.94827 17.3775C6.94827 18.7067 8.04826 19.7841 9.40517 19.7841Z" stroke="white" stroke-miterlimit="10"/>
<path d="M10.1423 19.9615C11.4992 19.9615 12.5992 18.884 12.5992 17.5549C12.5992 16.2258 11.4992 15.1483 10.1423 15.1483C8.78535 15.1483 7.68536 16.2258 7.68536 17.5549C7.68536 18.884 8.78535 19.9615 10.1423 19.9615Z" stroke="white" stroke-miterlimit="10"/>
<path d="M10.9052 20.0628C12.2621 20.0628 13.3621 18.9854 13.3621 17.6562C13.3621 16.3271 12.2621 15.2496 10.9052 15.2496C9.54832 15.2496 8.44833 16.3271 8.44833 17.6562C8.44833 18.9854 9.54832 20.0628 10.9052 20.0628Z" stroke="white" stroke-miterlimit="10"/>
<path d="M11.681 20.0881C13.0379 20.0881 14.1379 19.0106 14.1379 17.6815C14.1379 16.3524 13.0379 15.2749 11.681 15.2749C10.3241 15.2749 9.22412 16.3524 9.22412 17.6815C9.22412 19.0106 10.3241 20.0881 11.681 20.0881Z" stroke="white" stroke-miterlimit="10"/>
<path d="M12.431 20.0375C13.7879 20.0375 14.8879 18.96 14.8879 17.6309C14.8879 16.3017 13.7879 15.2243 12.431 15.2243C11.0741 15.2243 9.97409 16.3017 9.97409 17.6309C9.97409 18.96 11.0741 20.0375 12.431 20.0375Z" stroke="white" stroke-miterlimit="10"/>
<path d="M13.1552 19.9107C14.5121 19.9107 15.6121 18.8333 15.6121 17.5042C15.6121 16.175 14.5121 15.0976 13.1552 15.0976C11.7983 15.0976 10.6983 16.175 10.6983 17.5042C10.6983 18.8333 11.7983 19.9107 13.1552 19.9107Z" stroke="white" stroke-miterlimit="10"/>
<path d="M13.8534 19.7207C15.2103 19.7207 16.3103 18.6432 16.3103 17.3141C16.3103 15.985 15.2103 14.9075 13.8534 14.9075C12.4965 14.9075 11.3965 15.985 11.3965 17.3141C11.3965 18.6432 12.4965 19.7207 13.8534 19.7207Z" stroke="white" stroke-miterlimit="10"/>
<path d="M14.5388 19.4548C15.8957 19.4548 16.9957 18.3773 16.9957 17.0482C16.9957 15.7191 15.8957 14.6416 14.5388 14.6416C13.1819 14.6416 12.0819 15.7191 12.0819 17.0482C12.0819 18.3773 13.1819 19.4548 14.5388 19.4548Z" stroke="white" stroke-miterlimit="10"/>
<path d="M15.2372 19.4167C16.5941 19.4167 17.6941 18.3393 17.6941 17.0101C17.6941 15.681 16.5941 14.6035 15.2372 14.6035C13.8803 14.6035 12.7803 15.681 12.7803 17.0101C12.7803 18.3393 13.8803 19.4167 15.2372 19.4167Z" stroke="white" stroke-miterlimit="10"/>
<path d="M15.3276 20.0628C16.6845 20.0628 17.7845 18.9854 17.7845 17.6562C17.7845 16.3271 16.6845 15.2496 15.3276 15.2496C13.9707 15.2496 12.8707 16.3271 12.8707 17.6562C12.8707 18.9854 13.9707 20.0628 15.3276 20.0628Z" stroke="white" stroke-miterlimit="10"/>
<path d="M14.681 20.4047C16.0379 20.4047 17.1379 19.3272 17.1379 17.9981C17.1379 16.669 16.0379 15.5915 14.681 15.5915C13.3241 15.5915 12.2242 16.669 12.2242 17.9981C12.2242 19.3272 13.3241 20.4047 14.681 20.4047Z" stroke="white" stroke-miterlimit="10"/>
<path d="M13.9827 20.6454C15.3396 20.6454 16.4396 19.5679 16.4396 18.2388C16.4396 16.9097 15.3396 15.8322 13.9827 15.8322C12.6258 15.8322 11.5258 16.9097 11.5258 18.2388C11.5258 19.5679 12.6258 20.6454 13.9827 20.6454Z" stroke="white" stroke-miterlimit="10"/>
<path d="M13.2715 20.8227C14.6284 20.8227 15.7284 19.7453 15.7284 18.4161C15.7284 17.087 14.6284 16.0096 13.2715 16.0096C11.9146 16.0096 10.8146 17.087 10.8146 18.4161C10.8146 19.7453 11.9146 20.8227 13.2715 20.8227Z" stroke="white" stroke-miterlimit="10"/>
<path d="M12.5474 20.9494C13.9043 20.9494 15.0043 19.8719 15.0043 18.5428C15.0043 17.2137 13.9043 16.1362 12.5474 16.1362C11.1905 16.1362 10.0905 17.2137 10.0905 18.5428C10.0905 19.8719 11.1905 20.9494 12.5474 20.9494Z" stroke="white" stroke-miterlimit="10"/>
<path d="M11.8103 21C13.1673 21 14.2672 19.9225 14.2672 18.5934C14.2672 17.2643 13.1673 16.1868 11.8103 16.1868C10.4534 16.1868 9.35345 17.2643 9.35345 18.5934C9.35345 19.9225 10.4534 21 11.8103 21Z" stroke="white" stroke-miterlimit="10"/>
<path d="M11.0345 20.9873C12.3914 20.9873 13.4914 19.9099 13.4914 18.5808C13.4914 17.2516 12.3914 16.1742 11.0345 16.1742C9.67757 16.1742 8.57758 17.2516 8.57758 18.5808C8.57758 19.9099 9.67757 20.9873 11.0345 20.9873Z" stroke="white" stroke-miterlimit="10"/>
<path d="M10.2587 20.9114C11.6156 20.9114 12.7156 19.8339 12.7156 18.5048C12.7156 17.1757 11.6156 16.0982 10.2587 16.0982C8.90178 16.0982 7.80179 17.1757 7.80179 18.5048C7.80179 19.8339 8.90178 20.9114 10.2587 20.9114Z" stroke="white" stroke-miterlimit="10"/>
<path d="M9.50862 20.772C10.8655 20.772 11.9655 19.6946 11.9655 18.3655C11.9655 17.0363 10.8655 15.9589 9.50862 15.9589C8.15172 15.9589 7.05173 17.0363 7.05173 18.3655C7.05173 19.6946 8.15172 20.772 9.50862 20.772Z" stroke="white" stroke-miterlimit="10"/>
<path d="M8.79741 20.5567C10.1543 20.5567 11.2543 19.4793 11.2543 18.1502C11.2543 16.821 10.1543 15.7436 8.79741 15.7436C7.4405 15.7436 6.34052 16.821 6.34052 18.1502C6.34052 19.4793 7.4405 20.5567 8.79741 20.5567Z" stroke="white" stroke-miterlimit="10"/>
<path d="M8.09905 20.2907C9.45595 20.2907 10.5559 19.2133 10.5559 17.8841C10.5559 16.555 9.45595 15.4775 8.09905 15.4775C6.74214 15.4775 5.64215 16.555 5.64215 17.8841C5.64215 19.2133 6.74214 20.2907 8.09905 20.2907Z" stroke="white" stroke-miterlimit="10"/>
<path d="M7.43968 19.9615C8.79659 19.9615 9.89658 18.884 9.89658 17.5549C9.89658 16.2258 8.79659 15.1483 7.43968 15.1483C6.08278 15.1483 4.98279 16.2258 4.98279 17.5549C4.98279 18.884 6.08278 19.9615 7.43968 19.9615Z" stroke="white" stroke-miterlimit="10"/>
<path d="M6.81899 19.5814C8.17589 19.5814 9.27588 18.5039 9.27588 17.1748C9.27588 15.8457 8.17589 14.7682 6.81899 14.7682C5.46208 14.7682 4.36209 15.8457 4.36209 17.1748C4.36209 18.5039 5.46208 19.5814 6.81899 19.5814Z" stroke="white" stroke-miterlimit="10"/>
<path d="M6.24996 19.1507C7.60686 19.1507 8.70685 18.0732 8.70685 16.7441C8.70685 15.415 7.60686 14.3375 6.24996 14.3375C4.89305 14.3375 3.79306 15.415 3.79306 16.7441C3.79306 18.0732 4.89305 19.1507 6.24996 19.1507Z" stroke="white" stroke-miterlimit="10"/>
<path d="M5.70686 18.6695C7.06377 18.6695 8.16376 17.5921 8.16376 16.2629C8.16376 14.9338 7.06377 13.8564 5.70686 13.8564C4.34996 13.8564 3.24997 14.9338 3.24997 16.2629C3.24997 17.5921 4.34996 18.6695 5.70686 18.6695Z" stroke="white" stroke-miterlimit="10"/>
<path d="M5.22844 18.1501C6.58535 18.1501 7.68534 17.0727 7.68534 15.7435C7.68534 14.4144 6.58535 13.3369 5.22844 13.3369C3.87153 13.3369 2.77155 14.4144 2.77155 15.7435C2.77155 17.0727 3.87153 18.1501 5.22844 18.1501Z" stroke="white" stroke-miterlimit="10"/>
<path d="M4.7888 17.5802C6.14571 17.5802 7.2457 16.5027 7.2457 15.1736C7.2457 13.8444 6.14571 12.767 4.7888 12.767C3.4319 12.767 2.33191 13.8444 2.33191 15.1736C2.33191 16.5027 3.4319 17.5802 4.7888 17.5802Z" stroke="white" stroke-miterlimit="10"/>
<path d="M4.41377 16.9848C5.77068 16.9848 6.87067 15.9074 6.87067 14.5783C6.87067 13.2491 5.77068 12.1717 4.41377 12.1717C3.05687 12.1717 1.95688 13.2491 1.95688 14.5783C1.95688 15.9074 3.05687 16.9848 4.41377 16.9848Z" stroke="white" stroke-miterlimit="10"/>
<path d="M4.0905 16.3515C5.44741 16.3515 6.5474 15.274 6.5474 13.9449C6.5474 12.6157 5.44741 11.5383 4.0905 11.5383C2.7336 11.5383 1.63361 12.6157 1.63361 13.9449C1.63361 15.274 2.7336 16.3515 4.0905 16.3515Z" stroke="white" stroke-miterlimit="10"/>
<path d="M3.8319 15.6929C5.1888 15.6929 6.28879 14.6154 6.28879 13.2863C6.28879 11.9571 5.1888 10.8797 3.8319 10.8797C2.47499 10.8797 1.375 11.9571 1.375 13.2863C1.375 14.6154 2.47499 15.6929 3.8319 15.6929Z" stroke="white" stroke-miterlimit="10"/>
<path d="M3.63793 14.9962C4.99483 14.9962 6.09482 13.9187 6.09482 12.5896C6.09482 11.2605 4.99483 10.183 3.63793 10.183C2.28102 10.183 1.18103 11.2605 1.18103 12.5896C1.18103 13.9187 2.28102 14.9962 3.63793 14.9962Z" stroke="white" stroke-miterlimit="10"/>
<path d="M3.5085 14.2868C4.86541 14.2868 5.9654 13.2093 5.9654 11.8802C5.9654 10.5511 4.86541 9.47363 3.5085 9.47363C2.15159 9.47363 1.05161 10.5511 1.05161 11.8802C1.05161 13.2093 2.15159 14.2868 3.5085 14.2868Z" stroke="white" stroke-miterlimit="10"/>
<path d="M3.4569 13.5523C4.8138 13.5523 5.91379 12.4749 5.91379 11.1457C5.91379 9.8166 4.8138 8.73914 3.4569 8.73914C2.09999 8.73914 1 9.8166 1 11.1457C1 12.4749 2.09999 13.5523 3.4569 13.5523Z" stroke="white" stroke-miterlimit="10"/>
<path d="M3.48265 12.8049C4.83956 12.8049 5.93955 11.7274 5.93955 10.3983C5.93955 9.06917 4.83956 7.9917 3.48265 7.9917C2.12575 7.9917 1.02576 9.06917 1.02576 10.3983C1.02576 11.7274 2.12575 12.8049 3.48265 12.8049Z" stroke="white" stroke-miterlimit="10"/>
<path d="M3.58623 12.083C4.94313 12.083 6.04312 11.0055 6.04312 9.6764C6.04312 8.34727 4.94313 7.26981 3.58623 7.26981C2.22932 7.26981 1.12933 8.34727 1.12933 9.6764C1.12933 11.0055 2.22932 12.083 3.58623 12.083Z" stroke="white" stroke-miterlimit="10"/>
<path d="M3.75429 11.3864C5.11119 11.3864 6.21118 10.3089 6.21118 8.9798C6.21118 7.65068 5.11119 6.57321 3.75429 6.57321C2.39738 6.57321 1.29739 7.65068 1.29739 8.9798C1.29739 10.3089 2.39738 11.3864 3.75429 11.3864Z" stroke="white" stroke-miterlimit="10"/>
<path d="M3.98711 10.715C5.34401 10.715 6.444 9.63757 6.444 8.30845C6.444 6.97932 5.34401 5.90186 3.98711 5.90186C2.6302 5.90186 1.53021 6.97932 1.53021 8.30845C1.53021 9.63757 2.6302 10.715 3.98711 10.715Z" stroke="white" stroke-miterlimit="10"/>
<path d="M4.28447 10.0691C5.64138 10.0691 6.74137 8.99161 6.74137 7.66248C6.74137 6.33336 5.64138 5.25589 4.28447 5.25589C2.92757 5.25589 1.82758 6.33336 1.82758 7.66248C1.82758 8.99161 2.92757 10.0691 4.28447 10.0691Z" stroke="white" stroke-miterlimit="10"/>
<path d="M4.63365 9.44844C5.99056 9.44844 7.09055 8.37097 7.09055 7.04185C7.09055 5.71272 5.99056 4.63525 4.63365 4.63525C3.27675 4.63525 2.17676 5.71272 2.17676 7.04185C2.17676 8.37097 3.27675 9.44844 4.63365 9.44844Z" stroke="white" stroke-miterlimit="10"/>
<path d="M5.04738 8.87837C6.40429 8.87837 7.50428 7.8009 7.50428 6.47178C7.50428 5.14265 6.40429 4.06519 5.04738 4.06519C3.69047 4.06519 2.59048 5.14265 2.59048 6.47178C2.59048 7.8009 3.69047 8.87837 5.04738 8.87837Z" stroke="white" stroke-miterlimit="10"/>
<path d="M5.52583 8.34639C6.88274 8.34639 7.98273 7.26892 7.98273 5.9398C7.98273 4.61067 6.88274 3.5332 5.52583 3.5332C4.16893 3.5332 3.06894 4.61067 3.06894 5.9398C3.06894 7.26892 4.16893 8.34639 5.52583 8.34639Z" stroke="white" stroke-miterlimit="10"/>
<path d="M6.04311 7.83977C7.40001 7.83977 8.5 6.7623 8.5 5.43317C8.5 4.10405 7.40001 3.02658 6.04311 3.02658C4.6862 3.02658 3.58621 4.10405 3.58621 5.43317C3.58621 6.7623 4.6862 7.83977 6.04311 7.83977Z" stroke="white" stroke-miterlimit="10"/>
<path d="M6.59914 7.39644C7.95604 7.39644 9.05603 6.31897 9.05603 4.98984C9.05603 3.66072 7.95604 2.58325 6.59914 2.58325C5.24223 2.58325 4.14224 3.66072 4.14224 4.98984C4.14224 6.31897 5.24223 7.39644 6.59914 7.39644Z" stroke="white" stroke-miterlimit="10"/>
<path d="M7.20693 6.99116C8.56383 6.99116 9.66382 5.9137 9.66382 4.58457C9.66382 3.25545 8.56383 2.17798 7.20693 2.17798C5.85002 2.17798 4.75003 3.25545 4.75003 4.58457C4.75003 5.9137 5.85002 6.99116 7.20693 6.99116Z" stroke="white" stroke-miterlimit="10"/>
<path d="M7.85347 6.64915C9.21038 6.64915 10.3104 5.57168 10.3104 4.24256C10.3104 2.91344 9.21038 1.83597 7.85347 1.83597C6.49657 1.83597 5.39658 2.91344 5.39658 4.24256C5.39658 5.57168 6.49657 6.64915 7.85347 6.64915Z" stroke="white" stroke-miterlimit="10"/>
<path d="M8.52587 6.35783C9.88277 6.35783 10.9828 5.28036 10.9828 3.95124C10.9828 2.62212 9.88277 1.54465 8.52587 1.54465C7.16896 1.54465 6.06897 2.62212 6.06897 3.95124C6.06897 5.28036 7.16896 6.35783 8.52587 6.35783Z" stroke="white" stroke-miterlimit="10"/>
<path d="M9.23708 6.12984C10.594 6.12984 11.694 5.05237 11.694 3.72324C11.694 2.39412 10.594 1.31665 9.23708 1.31665C7.88017 1.31665 6.78018 2.39412 6.78018 3.72324C6.78018 5.05237 7.88017 6.12984 9.23708 6.12984Z" stroke="white" stroke-miterlimit="10"/>
<path d="M9.97411 5.95256C11.331 5.95256 12.431 4.87509 12.431 3.54597C12.431 2.21684 11.331 1.13937 9.97411 1.13937C8.6172 1.13937 7.51721 2.21684 7.51721 3.54597C7.51721 4.87509 8.6172 5.95256 9.97411 5.95256Z" stroke="white" stroke-miterlimit="10"/>
<path d="M10.7371 5.85124C12.094 5.85124 13.194 4.77377 13.194 3.44465C13.194 2.11552 12.094 1.03806 10.7371 1.03806C9.3802 1.03806 8.28021 2.11552 8.28021 3.44465C8.28021 4.77377 9.3802 5.85124 10.7371 5.85124Z" stroke="white" stroke-miterlimit="10"/>
<path d="M11.5258 5.81318C12.8827 5.81318 13.9827 4.73572 13.9827 3.40659C13.9827 2.07747 12.8827 1 11.5258 1C10.1689 1 9.06891 2.07747 9.06891 3.40659C9.06891 4.73572 10.1689 5.81318 11.5258 5.81318Z" stroke="white" stroke-miterlimit="10"/>
</svg>
